<svg width="29" height="20" viewBox="0 0 29 20" fill="none" xmlns="http://www.w3.org/2000/svg">
<path d="M28.0579 7.19033L14.9709 1.06267C14.8283 0.97911 14.6002 0.97911 14.4577 1.06267L1.37066 7.19033C1.14256 7.30174 1 7.49671 1 7.74739C1 7.97021 1.14256 8.19304 1.37066 8.2766L5.19127 9.86422C5.19127 9.89207 5.19127 9.91992 5.19127 9.94777V16.8275C5.19127 17.0503 5.33383 17.301 5.59044 17.3845C8.52718 18.4708 11.635 19 14.7143 19C17.7936 19 20.9014 18.4429 23.8381 17.3845C24.0662 17.301 24.2373 17.106 24.2373 16.8275V9.94777C24.2373 9.91992 24.2373 9.89207 24.2373 9.86422L28.0579 8.24874C28.2575 8.16518 28.4286 7.97021 28.4286 7.71954C28.3715 7.52456 28.2575 7.30174 28.0579 7.19033ZM23.0113 16.4375C17.6225 18.3037 11.749 18.3037 6.36026 16.4375V10.3934L14.4577 13.8193C14.5432 13.8472 14.6002 13.875 14.6858 13.875C14.7713 13.875 14.8283 13.8472 14.9139 13.8193L23.0113 10.3934V16.4375ZM14.6858 12.6495L3.02435 7.69168L14.6858 2.2325L26.3472 7.69168L14.6858 12.6495Z" fill="#232F3F" stroke="#232F3F" stroke-width="0.2"/>
</svg>
