<svg width="22" height="20" viewBox="0 0 22 20" fill="none" xmlns="http://www.w3.org/2000/svg">
<path d="M21.6905 2.61905L21.619 2.54762C21.5238 2.45238 21.3571 2.30952 21.0952 2.30952H4.66667L4.59524 1.90476C4.42857 0.809524 3.47619 0 2.35714 0H0.690476C0.285714 0 0 0.309524 0 0.690476C0 1.07143 0.309524 1.38095 0.690476 1.38095H2.38095C2.80952 1.38095 3.16667 1.69048 3.2381 2.09524L4.66667 10.6905C4.66667 10.7619 4.69048 10.8333 4.71429 10.881L4.95238 12.3571C5.16667 13.6667 6.33333 14.6429 7.64286 14.6429H18.6905C19.0952 14.6429 19.381 14.3333 19.381 13.9524C19.381 13.5714 19.0714 13.2619 18.6905 13.2619H7.61905C6.95238 13.2619 6.40476 12.7857 6.30952 12.1667L6.16667 11.381H19.0238C19.1667 11.4048 19.2857 11.4048 19.4048 11.3333C19.5714 11.2381 19.7143 11.0714 19.7619 10.881L21.7619 3.2381C21.8571 3.02381 21.8095 2.80952 21.6905 2.61905ZM20.2381 3.7381L18.5714 10.0238H5.95238L4.92857 3.7381H20.2381Z" fill="#232F3F"/>
<path d="M7.83382 15.3096C6.54811 15.3096 5.50049 16.3572 5.50049 17.6429C5.50049 18.9286 6.54811 19.9762 7.83382 19.9762C9.11954 19.9762 10.1672 18.9286 10.1672 17.6429C10.1672 16.3572 9.11954 15.3096 7.83382 15.3096ZM7.83382 16.7143C8.35763 16.7143 8.73858 17.1191 8.73858 17.6429C8.73858 18.1429 8.31001 18.5715 7.81001 18.5715C7.31001 18.5715 6.90525 18.1429 6.90525 17.6429C6.90525 17.1429 7.31001 16.7143 7.83382 16.7143Z" fill="#232F3F"/>
<path d="M15.5477 15.3096C14.262 15.3096 13.2144 16.3572 13.2144 17.6429C13.2144 18.9286 14.2382 20 15.5477 20C16.8572 20 17.881 18.9524 17.881 17.6667C17.881 16.381 16.8334 15.3096 15.5477 15.3096ZM15.5239 16.7143C16.0477 16.7143 16.4525 17.1191 16.4525 17.6429C16.4525 18.1429 16.0239 18.5715 15.5239 18.5715C15.0239 18.5715 14.5953 18.1429 14.5953 17.6429C14.5715 17.1429 15.0001 16.7143 15.5239 16.7143Z" fill="#232F3F"/>
</svg>
