<svg width="166" height="30" viewBox="0 0 166 30" fill="none" xmlns="http://www.w3.org/2000/svg">
<path fill-rule="evenodd" clip-rule="evenodd" d="M111.608 29.1637C111.606 29.2069 111.614 29.2498 111.63 29.29C111.646 29.3301 111.67 29.3666 111.7 29.3971C111.731 29.4277 111.767 29.4517 111.808 29.4676C111.848 29.4836 111.891 29.4912 111.934 29.49H120.074C120.161 29.49 120.244 29.4556 120.305 29.3944C120.366 29.3332 120.4 29.2502 120.4 29.1637V0.94207C120.4 0.854694 120.366 0.77076 120.305 0.708158C120.244 0.645556 120.161 0.609233 120.074 0.606934H111.934C111.89 0.606918 111.847 0.615642 111.807 0.63259C111.767 0.649537 111.73 0.674367 111.7 0.705608C111.67 0.736849 111.646 0.773869 111.63 0.814483C111.614 0.855096 111.606 0.898481 111.608 0.94207V29.1637Z" fill="white"/>
<path fill-rule="evenodd" clip-rule="evenodd" d="M73.606 28.7756L61.6207 1.06548C61.5789 0.978408 61.514 0.904433 61.4332 0.851576C61.3524 0.798718 61.2586 0.768992 61.1621 0.765625H49.1061C49.0098 0.769938 48.9165 0.800044 48.8358 0.852793C48.7551 0.905543 48.6901 0.979002 48.6475 1.06548L36.6622 28.7756C36.6414 28.8085 36.6305 28.8468 36.6309 28.8857C36.6312 28.9247 36.6428 28.9627 36.6642 28.9953C36.6856 29.0278 36.7159 29.0535 36.7515 29.0693C36.7871 29.0851 36.8265 29.0903 36.865 29.0843H45.3844C45.4809 29.0805 45.5743 29.0495 45.6539 28.9949C45.7335 28.9403 45.796 28.8642 45.8342 28.7756L47.598 24.4894C47.6362 24.4008 47.6988 24.3248 47.7784 24.2701C47.8579 24.2155 47.9514 24.1845 48.0478 24.1808H62.3174C62.4133 24.1865 62.5059 24.2183 62.5851 24.2727C62.6644 24.3271 62.7273 24.402 62.7672 24.4894L64.3899 28.7756C64.4298 28.863 64.4927 28.938 64.572 28.9924C64.6512 29.0467 64.7438 29.0785 64.8397 29.0843H73.412C73.4498 29.0883 73.488 29.0817 73.5222 29.0651C73.5564 29.0486 73.5852 29.0227 73.6054 28.9905C73.6257 28.9584 73.6364 28.9212 73.6366 28.8831C73.6367 28.8451 73.6261 28.8079 73.606 28.7756ZM49.9087 18.1925L53.8685 7.87395C54.336 6.8421 54.7505 6.70099 55.2091 6.70099C55.6677 6.70099 56.1704 7.12431 56.4526 7.91804L60.3771 18.1925H49.9087Z" fill="white"/>
<path fill-rule="evenodd" clip-rule="evenodd" d="M147.449 0.421387H138.163C126.927 0.553676 125.207 4.16075 125.207 14.6645C125.207 16.4283 125.207 18.1922 125.295 20.0001C125.595 26.9762 129.414 29.1369 135.781 29.6131C137.774 29.7454 142.413 29.8336 142.607 29.8248C142.607 29.8248 147.837 29.7454 149.83 29.6131C156.207 29.1369 160.017 26.9674 160.317 20.0001C160.405 18.2363 160.405 16.4724 160.405 14.6645C160.405 4.19603 158.685 0.624231 147.449 0.456665V0.421387ZM151.524 15.8463C151.524 20.6087 151.224 22.4695 145.976 22.6018C144.609 22.6812 141.002 22.6812 139.635 22.6018C134.397 22.4695 134.088 20.6087 134.088 15.8463V14.6645C134.066 13.5369 134.11 12.4091 134.22 11.2867C134.741 7.30041 137.748 7.51208 140.676 7.4327C141.761 7.4327 143.86 7.4327 144.936 7.4327C147.881 7.51208 150.871 7.30041 151.391 11.2867C151.502 12.4091 151.546 13.5369 151.524 14.6645V15.8375V15.8463Z" fill="white"/>
<path fill-rule="evenodd" clip-rule="evenodd" d="M26.502 18.3333C26.2639 21.2789 25.2408 22.496 21.0252 22.6018C19.6582 22.6812 16.06 22.6812 14.693 22.6018C9.44553 22.4695 9.14567 20.6087 9.14567 15.8463V14.6645C9.1251 13.5372 9.16632 12.4095 9.26914 11.2867C9.78948 7.30041 12.7968 7.51208 15.7248 7.4327C16.8096 7.4327 18.9086 7.4327 19.9934 7.4327C22.7979 7.51208 25.6465 7.31805 26.352 10.7664H35.3477C34.8009 3.26119 32.2257 0.553676 22.498 0.421387H13.2113C1.98443 0.553676 0.255859 4.16075 0.255859 14.6645C0.255859 16.4283 0.255859 18.1922 0.344052 20.0001C0.652726 26.9762 4.46265 29.1369 10.8301 29.6131C12.8233 29.7454 17.4711 29.8336 17.6563 29.8248C17.6563 29.8248 22.8949 29.7454 24.888 29.6131C31.2556 29.1369 35.0655 26.9674 35.3741 20.0001C35.3741 19.4534 35.4182 18.9066 35.4271 18.3686H26.502V18.3333Z" fill="white"/>
<path fill-rule="evenodd" clip-rule="evenodd" d="M85.1413 18.1924C87.0904 18.1924 88.9953 18.263 90.9444 18.2718L93.352 18.3776C95.3452 18.4835 98.3526 17.7603 98.3614 21.0234C98.3614 23.14 96.3153 23.1841 94.7543 23.2547C92.5054 23.3252 92.8405 23.3693 90.5828 23.3517C89.1982 23.3517 89.0835 23.3517 87.6548 23.2811C85.7057 23.1841 84.4093 22.6991 84.2947 20.5295L75.6783 20.4678C75.6783 22.2846 75.5548 23.7133 76.4984 25.4154C78.5533 28.8461 82.6719 29.4899 86.1996 29.5604L90.3623 29.6575C93.696 29.6575 98.4496 29.6575 101.536 28.8725C106.14 27.7349 106.943 24.798 106.969 20.5031C107.087 18.5924 106.559 16.6975 105.47 15.1233C104.182 13.43 102.145 12.601 99.6225 12.4775C94.8072 12.213 93.7313 12.1248 88.916 12.0895H87.3461C85.4412 12.0895 83.2805 11.4633 83.2981 9.12623C83.3157 6.78913 85.2648 6.54219 87.2138 6.48045C88.1751 6.48045 89.3216 6.48045 91.2707 6.48045C92.6553 6.48045 92.2585 6.55101 93.6431 6.54219C95.9978 6.54219 98.1938 6.67448 98.1674 9.31143L106.837 9.38199V8.07674C106.837 1.54167 102.586 0.721475 97.7969 0.386343C95.8479 0.245235 93.8547 0.227599 91.9057 0.209961C88.131 0.209961 88.1751 0.271695 84.4005 0.456899C77.7243 0.933139 74.5935 2.22075 74.5406 9.27615C74.4877 16.7725 78.421 18.0954 85.1237 18.1571L85.1413 18.1924Z" fill="white"/>
<path fill-rule="evenodd" clip-rule="evenodd" d="M164.965 26.1297C164.775 25.7894 164.494 25.5086 164.153 25.3184C163.819 25.1273 163.441 25.0269 163.055 25.0269C162.67 25.0269 162.292 25.1273 161.957 25.3184C161.617 25.5086 161.336 25.7894 161.146 26.1297C160.856 26.6397 160.781 27.2438 160.937 27.8093C161.092 28.3748 161.466 28.8556 161.975 29.1459C162.305 29.3314 162.677 29.4288 163.055 29.4288C163.434 29.4288 163.806 29.3314 164.136 29.1459C164.474 28.9545 164.757 28.6778 164.956 28.3434C165.155 28.0072 165.259 27.623 165.256 27.2321C165.259 26.8453 165.158 26.4647 164.965 26.1297ZM164.665 28.1758C164.497 28.4512 164.259 28.6777 163.976 28.8325C163.693 28.9872 163.374 29.0649 163.051 29.0577C162.742 29.0532 162.439 28.9714 162.169 28.8196C161.881 28.6617 161.643 28.4265 161.481 28.1405C161.309 27.8564 161.22 27.5292 161.225 27.1969C161.222 26.866 161.308 26.5402 161.472 26.2532C161.634 25.9672 161.872 25.732 162.16 25.5741C162.442 25.4064 162.763 25.3178 163.091 25.3178C163.418 25.3178 163.74 25.4064 164.021 25.5741C164.309 25.732 164.547 25.9672 164.709 26.2532C164.874 26.5402 164.959 26.866 164.956 27.1969C164.961 27.5292 164.873 27.8564 164.7 28.1405L164.665 28.1758Z" fill="white"/>
<path fill-rule="evenodd" clip-rule="evenodd" d="M163.677 27.7525C163.605 27.6011 163.5 27.4683 163.368 27.3645C163.536 27.3038 163.679 27.189 163.774 27.0382C163.859 26.9066 163.905 26.7537 163.906 26.5972C163.905 26.4676 163.872 26.3402 163.809 26.2268C163.75 26.1165 163.662 26.0248 163.553 25.9622C163.406 25.8896 163.242 25.8562 163.077 25.8652H162.195V28.5904H162.68V27.4439H163.007C163.054 27.4439 163.124 27.532 163.218 27.7084L163.307 27.876L163.677 28.5904H164.162L163.721 27.7084L163.677 27.7525ZM162.936 27.1175H162.68V26.2356H163.007C163.116 26.2253 163.226 26.2467 163.324 26.2974C163.384 26.3313 163.43 26.384 163.456 26.4473C163.492 26.512 163.511 26.585 163.509 26.6589C163.508 26.78 163.467 26.8973 163.395 26.9941C163.343 27.051 163.278 27.0951 163.206 27.1226C163.134 27.1502 163.057 27.1605 162.98 27.1528L162.936 27.1175Z" fill="white"/>
</svg>
