<svg width="171" height="170" viewBox="0 0 171 170" fill="none" xmlns="http://www.w3.org/2000/svg">
<g opacity="0.6">
<path fill-rule="evenodd" clip-rule="evenodd" d="M114.608 99.1637C114.606 99.2069 114.614 99.2498 114.63 99.29C114.646 99.3301 114.67 99.3666 114.7 99.3971C114.731 99.4277 114.767 99.4517 114.808 99.4676C114.848 99.4836 114.891 99.4912 114.934 99.49H123.074C123.161 99.49 123.244 99.4556 123.305 99.3944C123.366 99.3332 123.4 99.2502 123.4 99.1637V70.9421C123.4 70.8547 123.366 70.7708 123.305 70.7082C123.244 70.6456 123.161 70.6092 123.074 70.6069H114.934C114.89 70.6069 114.847 70.6156 114.807 70.6326C114.767 70.6495 114.73 70.6744 114.7 70.7056C114.67 70.7368 114.646 70.7739 114.63 70.8145C114.614 70.8551 114.606 70.8985 114.608 70.9421V99.1637Z" fill="white"/>
<path fill-rule="evenodd" clip-rule="evenodd" d="M76.606 98.7756L64.6207 71.0655C64.5789 70.9784 64.514 70.9044 64.4332 70.8516C64.3524 70.7987 64.2586 70.769 64.1621 70.7656H52.1061C52.0098 70.7699 51.9165 70.8 51.8358 70.8528C51.7551 70.9055 51.6901 70.979 51.6475 71.0655L39.6622 98.7756C39.6414 98.8085 39.6305 98.8468 39.6309 98.8857C39.6312 98.9247 39.6428 98.9627 39.6642 98.9953C39.6856 99.0278 39.7159 99.0535 39.7515 99.0693C39.7871 99.0851 39.8265 99.0903 39.865 99.0843H48.3844C48.4809 99.0805 48.5743 99.0495 48.6539 98.9949C48.7335 98.9403 48.796 98.8642 48.8342 98.7756L50.598 94.4894C50.6362 94.4008 50.6988 94.3248 50.7784 94.2701C50.8579 94.2155 50.9514 94.1845 51.0478 94.1808H65.3174C65.4133 94.1865 65.5059 94.2183 65.5851 94.2727C65.6644 94.3271 65.7273 94.402 65.7672 94.4894L67.3899 98.7756C67.4298 98.863 67.4927 98.938 67.572 98.9924C67.6512 99.0467 67.7438 99.0785 67.8397 99.0843H76.412C76.4498 99.0883 76.488 99.0817 76.5222 99.0651C76.5564 99.0486 76.5852 99.0227 76.6054 98.9905C76.6257 98.9584 76.6364 98.9212 76.6366 98.8831C76.6367 98.8451 76.6261 98.8079 76.606 98.7756ZM52.9087 88.1925L56.8685 77.874C57.336 76.8421 57.7505 76.701 58.2091 76.701C58.6677 76.701 59.1704 77.1243 59.4526 77.918L63.3771 88.1925H52.9087Z" fill="white"/>
<path fill-rule="evenodd" clip-rule="evenodd" d="M150.449 70.4214H141.163C129.927 70.5537 128.207 74.1608 128.207 84.6645C128.207 86.4283 128.207 88.1922 128.295 90.0001C128.595 96.9762 132.414 99.1369 138.781 99.6131C140.774 99.7454 145.413 99.8336 145.607 99.8248C145.607 99.8248 150.837 99.7454 152.83 99.6131C159.207 99.1369 163.017 96.9674 163.317 90.0001C163.405 88.2363 163.405 86.4724 163.405 84.6645C163.405 74.196 161.685 70.6242 150.449 70.4567V70.4214ZM154.524 85.8463C154.524 90.6087 154.224 92.4695 148.976 92.6018C147.609 92.6812 144.002 92.6812 142.635 92.6018C137.397 92.4695 137.088 90.6087 137.088 85.8463V84.6645C137.066 83.5369 137.11 82.4091 137.22 81.2867C137.741 77.3004 140.748 77.5121 143.676 77.4327C144.761 77.4327 146.86 77.4327 147.936 77.4327C150.881 77.5121 153.871 77.3004 154.391 81.2867C154.502 82.4091 154.546 83.5369 154.524 84.6645V85.8375V85.8463Z" fill="white"/>
<path fill-rule="evenodd" clip-rule="evenodd" d="M29.502 88.3333C29.2639 91.2789 28.2408 92.496 24.0252 92.6018C22.6582 92.6812 19.06 92.6812 17.693 92.6018C12.4455 92.4695 12.1457 90.6087 12.1457 85.8463V84.6645C12.1251 83.5372 12.1663 82.4095 12.2691 81.2867C12.7895 77.3004 15.7968 77.5121 18.7248 77.4327C19.8096 77.4327 21.9086 77.4327 22.9934 77.4327C25.7979 77.5121 28.6465 77.3181 29.352 80.7664H38.3477C37.8009 73.2612 35.2257 70.5537 25.498 70.4214H16.2113C4.98443 70.5537 3.25586 74.1608 3.25586 84.6645C3.25586 86.4283 3.25586 88.1922 3.34405 90.0001C3.65273 96.9762 7.46265 99.1369 13.8301 99.6131C15.8233 99.7454 20.4711 99.8336 20.6563 99.8248C20.6563 99.8248 25.8949 99.7454 27.888 99.6131C34.2556 99.1369 38.0655 96.9674 38.3741 90.0001C38.3741 89.4534 38.4182 88.9066 38.4271 88.3686H29.502V88.3333Z" fill="white"/>
<path fill-rule="evenodd" clip-rule="evenodd" d="M88.1413 88.1924C90.0904 88.1924 91.9953 88.263 93.9444 88.2718L96.352 88.3776C98.3452 88.4835 101.353 87.7603 101.361 91.0234C101.361 93.14 99.3153 93.1841 97.7543 93.2547C95.5054 93.3252 95.8405 93.3693 93.5828 93.3517C92.1982 93.3517 92.0835 93.3517 90.6548 93.2811C88.7057 93.1841 87.4093 92.6991 87.2947 90.5295L78.6783 90.4678C78.6783 92.2846 78.5548 93.7133 79.4984 95.4154C81.5533 98.8461 85.6719 99.4899 89.1996 99.5604L93.3623 99.6575C96.696 99.6575 101.45 99.6575 104.536 98.8725C109.14 97.7349 109.943 94.798 109.969 90.5031C110.087 88.5924 109.559 86.6975 108.47 85.1233C107.182 83.43 105.145 82.601 102.623 82.4775C97.8072 82.213 96.7313 82.1248 91.916 82.0895H90.3461C88.4412 82.0895 86.2805 81.4633 86.2981 79.1262C86.3157 76.7891 88.2648 76.5422 90.2138 76.4805C91.1751 76.4805 92.3216 76.4805 94.2707 76.4805C95.6553 76.4805 95.2585 76.551 96.6431 76.5422C98.9978 76.5422 101.194 76.6745 101.167 79.3114L109.837 79.382V78.0767C109.837 71.5417 105.586 70.7215 100.797 70.3863C98.8479 70.2452 96.8547 70.2276 94.9057 70.21C91.131 70.21 91.1751 70.2717 87.4005 70.4569C80.7243 70.9331 77.5935 72.2208 77.5406 79.2762C77.4877 86.7725 81.421 88.0954 88.1237 88.1571L88.1413 88.1924Z" fill="white"/>
<path fill-rule="evenodd" clip-rule="evenodd" d="M167.965 96.1297C167.775 95.7894 167.494 95.5086 167.153 95.3184C166.819 95.1273 166.441 95.0269 166.055 95.0269C165.67 95.0269 165.292 95.1273 164.957 95.3184C164.617 95.5086 164.336 95.7894 164.146 96.1297C163.856 96.6397 163.781 97.2438 163.937 97.8093C164.092 98.3748 164.466 98.8556 164.975 99.1459C165.305 99.3314 165.677 99.4288 166.055 99.4288C166.434 99.4288 166.806 99.3314 167.136 99.1459C167.474 98.9545 167.757 98.6778 167.956 98.3434C168.155 98.0072 168.259 97.623 168.256 97.2321C168.259 96.8453 168.158 96.4647 167.965 96.1297ZM167.665 98.1758C167.497 98.4512 167.259 98.6777 166.976 98.8325C166.693 98.9872 166.374 99.0649 166.051 99.0577C165.742 99.0532 165.439 98.9714 165.169 98.8196C164.881 98.6617 164.643 98.4265 164.481 98.1405C164.309 97.8564 164.22 97.5292 164.225 97.1969C164.222 96.866 164.308 96.5402 164.472 96.2532C164.634 95.9672 164.872 95.732 165.16 95.5741C165.442 95.4064 165.763 95.3178 166.091 95.3178C166.418 95.3178 166.74 95.4064 167.021 95.5741C167.309 95.732 167.547 95.9672 167.709 96.2532C167.874 96.5402 167.959 96.866 167.956 97.1969C167.961 97.5292 167.873 97.8564 167.7 98.1405L167.665 98.1758Z" fill="white"/>
<path fill-rule="evenodd" clip-rule="evenodd" d="M166.677 97.7525C166.605 97.6011 166.5 97.4683 166.368 97.3645C166.536 97.3038 166.679 97.189 166.774 97.0382C166.859 96.9066 166.905 96.7537 166.906 96.5972C166.905 96.4676 166.872 96.3402 166.809 96.2268C166.75 96.1165 166.662 96.0248 166.553 95.9622C166.406 95.8896 166.242 95.8562 166.077 95.8652H165.195V98.5904H165.68V97.4439H166.007C166.054 97.4439 166.124 97.532 166.218 97.7084L166.307 97.876L166.677 98.5904H167.162L166.721 97.7084L166.677 97.7525ZM165.936 97.1175H165.68V96.2356H166.007C166.116 96.2253 166.226 96.2467 166.324 96.2974C166.384 96.3313 166.43 96.384 166.456 96.4473C166.492 96.512 166.511 96.585 166.509 96.6589C166.508 96.78 166.467 96.8973 166.395 96.9941C166.343 97.051 166.278 97.0951 166.206 97.1226C166.134 97.1502 166.057 97.1605 165.98 97.1528L165.936 97.1175Z" fill="white"/>
</g>
</svg>
