<svg width="266" height="41" viewBox="0 0 266 41" fill="none" xmlns="http://www.w3.org/2000/svg">
<path d="M200.543 31.6627V22.4421H197.17V36.766H200.029L208.204 27.4294V36.766H211.577V22.4421H208.718L200.543 31.6627ZM236.787 31.7787V22.4421H233.415V36.766H236.273L244.448 27.3714V36.766H247.821V22.4421H244.848L236.787 31.7787ZM226.154 28.0093H218.723V22.4421H215.35V36.766H218.723V31.1408H226.154V36.766H229.527V22.4421H226.154V28.0093ZM184.994 22.4421L176.876 36.766H180.878L186.194 27.3134L191.568 36.766H195.741L187.623 22.4421H184.994ZM262.97 22.4421L254.967 31.7787V22.4421H251.594V36.766H254.452L262.627 27.3714V36.766H266V22.4421H262.97ZM180.821 22.4421H165.042V25.5736H178.991L180.821 22.4421ZM165.042 28.0093V31.1408H175.847L177.676 28.0093H165.042ZM90.3245 22.4421H74.5463V25.5736H88.4952L90.3245 22.4421ZM62.0266 19.3105H59.2826L51.1648 33.6344H49.1068V40.9994H52.3082V36.766H68.8867V40.9994H72.0881V33.6344H70.0301L62.0266 19.3105ZM55.1666 33.6344L60.4831 24.1818L65.8569 33.6344H55.1666ZM113.82 22.0941C108.161 22.0941 105.474 25.6316 105.474 29.5171C105.474 33.6344 108.104 36.94 113.82 36.94C116.336 36.94 122.11 35.7801 122.11 29.5171C122.11 25.4576 119.537 22.0941 113.82 22.0941ZM113.82 33.8084C110.562 33.8084 109.19 31.8947 109.19 29.575C109.19 27.0234 110.79 25.2837 113.82 25.2837C117.308 25.2837 118.451 27.0234 118.451 29.575C118.451 32.6486 116.164 33.8084 113.82 33.8084ZM94.4977 22.4421L86.38 36.766H90.3817L95.6982 27.3134L101.072 36.766H105.245L97.1846 22.4421H94.4977ZM157.896 36.766H161.269V22.4421H157.896V36.766ZM151.494 27.6033H146.349V22.4421H142.976V36.766H145.605H146.349H151.436C153.723 36.766 156.124 35.4902 156.124 32.0687C156.124 27.6613 153.094 27.6033 151.494 27.6033ZM151.322 33.7504H146.349V30.5609H151.322C151.894 30.5609 152.808 30.7349 152.808 32.1847C152.751 33.4605 152.065 33.7504 151.322 33.7504ZM74.6035 28.0093V31.1408H85.4081L87.2375 28.0093H74.6035ZM165.042 36.766H172.703L174.475 33.6344H165.042V36.766ZM136.916 28.2992C137.831 27.8933 138.574 27.3134 138.574 25.7476C138.574 22.79 136.116 22.4421 134.401 22.4421H125.254V36.766H134.572C138.86 36.766 139.717 34.3883 139.717 32.1847C139.66 29.749 138.288 28.7632 136.916 28.2992ZM128.57 25.4576H134C134.801 25.4576 135.144 25.8636 135.144 26.7335C135.144 27.6033 134.629 28.0093 134 28.0093H128.57V25.4576ZM134.515 33.7504H128.57V30.6769H134.515C135.487 30.6769 136.173 30.9088 136.173 32.1847C136.173 33.2285 135.773 33.7504 134.515 33.7504ZM74.6035 36.766H82.2639L84.0361 33.6344H74.6035V36.766Z" fill="black"/>
<path d="M26.2398 25.9802L12.1767 15.3678L8.74662 21.3989L24.8107 28.4738L26.2398 25.9802ZM28.4122 22.2108L16.3499 8.06082L12.9198 14.0339L26.983 24.6464L28.4122 22.2108ZM30.9847 17.6294L20.9804 0L17.1502 6.66902L29.2126 20.761L30.9847 17.6294ZM3.77305 30.1556L0 36.8246H20.0658L21.838 33.6931L3.77305 30.1556ZM21.838 36.8246H27.1545L31.8423 28.5898L36.5872 36.8246H41.9037L31.8423 19.1952L21.838 36.8246ZM24.0675 29.8076L8.00344 22.7907L4.57339 28.7638L22.6383 32.3013L24.0675 29.8076Z" fill="#B2B2B2"/>
</svg>
