<svg width="19" height="22" viewBox="0 0 19 22" fill="none" xmlns="http://www.w3.org/2000/svg">
<path d="M10.3363 1.10126L10.3364 1.10115L10.3326 1.09831C10.03 0.871369 9.63641 0.861498 9.39241 1.10312L1.23932 8.06136C1.15617 8.10563 1.07964 8.18559 1.02364 8.27892C0.965283 8.37618 0.925 8.4949 0.925 8.61654V20.2964C0.925 20.7547 1.23488 21.075 1.63325 21.075H6.41777C6.81613 21.075 7.12601 20.7547 7.12601 20.2964V14.6722H12.5345V20.2964C12.5345 20.7547 12.8444 21.075 13.2427 21.075H18.0273C18.4256 21.075 18.7355 20.7547 18.7355 20.2964V8.61654C18.7355 8.45726 18.6582 8.22668 18.5025 8.07098L18.5026 8.07081L18.4981 8.06696L10.3363 1.10126ZM5.70952 13.8936V19.5881H5.01055H2.41185V8.93265L9.86543 2.59362L17.319 8.93265V19.5881H14.0213V13.8936C14.0213 13.4952 13.701 13.1853 13.2427 13.1853H6.41777C6.02454 13.1853 5.70952 13.5004 5.70952 13.8936Z" fill="#232F3F" stroke="#232F3F" stroke-width="0.15"/>
</svg>
