<svg width="36" height="29" viewBox="0 0 36 29" fill="none" xmlns="http://www.w3.org/2000/svg">
<path d="M26.0286 8.14286L25.9429 8.05714C25.8286 7.94286 25.6286 7.77143 25.3143 7.77143H5.6L5.51429 7.28571C5.31429 5.97143 4.17143 5 2.82857 5H0.828572C0.342857 5 0 5.37143 0 5.82857C0 6.28571 0.371429 6.65714 0.828572 6.65714H2.85714C3.37143 6.65714 3.8 7.02857 3.88571 7.51429L5.6 17.8286C5.6 17.9143 5.62857 18 5.65714 18.0571L5.94286 19.8286C6.2 21.4 7.6 22.5714 9.17143 22.5714H22.4286C22.9143 22.5714 23.2571 22.2 23.2571 21.7429C23.2571 21.2857 22.8857 20.9143 22.4286 20.9143H9.14286C8.34286 20.9143 7.68571 20.3429 7.57143 19.6L7.4 18.6571H22.8286C23 18.6857 23.1429 18.6857 23.2857 18.6C23.4857 18.4857 23.6571 18.2857 23.7143 18.0571L26.1143 8.88571C26.2286 8.62857 26.1714 8.37143 26.0286 8.14286ZM24.2857 9.48571L22.2857 17.0286H7.14286L5.91429 9.48571H24.2857Z" fill="white"/>
<path d="M9.39961 23.3714C7.85675 23.3714 6.59961 24.6286 6.59961 26.1714C6.59961 27.7143 7.85675 28.9714 9.39961 28.9714C10.9425 28.9714 12.1996 27.7143 12.1996 26.1714C12.1996 24.6286 10.9425 23.3714 9.39961 23.3714ZM9.39961 25.0571C10.0282 25.0571 10.4853 25.5429 10.4853 26.1714C10.4853 26.7714 9.97104 27.2857 9.37104 27.2857C8.77104 27.2857 8.28532 26.7714 8.28532 26.1714C8.28532 25.5714 8.77104 25.0571 9.39961 25.0571Z" fill="white"/>
<path d="M18.6574 23.3714C17.1146 23.3714 15.8574 24.6286 15.8574 26.1714C15.8574 27.7143 17.086 29 18.6574 29C20.2289 29 21.4574 27.7429 21.4574 26.2C21.4574 24.6571 20.2003 23.3714 18.6574 23.3714ZM18.6289 25.0571C19.2574 25.0571 19.7431 25.5429 19.7431 26.1714C19.7431 26.7714 19.2289 27.2857 18.6289 27.2857C18.0289 27.2857 17.5146 26.7714 17.5146 26.1714C17.486 25.5714 18.0003 25.0571 18.6289 25.0571Z" fill="white"/>
<circle cx="28" cy="8" r="8" fill="#E97327"/>
<path d="M29.3701 12H27.6781V5.448L25.9021 6.348V4.656L27.8701 3.6H29.3701V12Z" fill="white"/>
</svg>
