<svg width="29" height="40" viewBox="0 0 29 40" fill="none" xmlns="http://www.w3.org/2000/svg">
<path d="M14.5 0C6.49186 0 0 6.44806 0 14.4022C0 22.562 9.12257 34.6064 12.8967 39.2377C13.7253 40.2541 15.2747 40.2541 16.1033 39.2377C19.8774 34.6064 29 22.562 29 14.4022C29 6.44806 22.5081 0 14.5 0ZM14.5 19.5458C11.6394 19.5458 9.32143 17.2435 9.32143 14.4022C9.32143 11.5608 11.6394 9.25854 14.5 9.25854C17.3606 9.25854 19.6786 11.5608 19.6786 14.4022C19.6786 17.2435 17.3606 19.5458 14.5 19.5458Z" fill="#E97327"/>
</svg>
