<svg width="119" height="15" viewBox="0 0 119 15" fill="none" xmlns="http://www.w3.org/2000/svg">
<path d="M3.39127 14.9681C3.3291 14.9945 3.26118 15.0043 3.19411 14.9966C3.12703 14.989 3.06308 14.964 3.00844 14.9243C2.95381 14.8845 2.91035 14.8313 2.88227 14.7697C2.85419 14.7081 2.84246 14.6404 2.8482 14.5729L3.26667 9.74133L0.0959749 6.07974C0.0516526 6.02856 0.0212896 5.96676 0.00783706 5.90034C-0.00561549 5.83391 -0.00169997 5.76513 0.0192032 5.70067C0.0401063 5.63621 0.077286 5.57827 0.127128 5.53248C0.17697 5.48669 0.23778 5.45461 0.303645 5.43936L5.01502 4.34481L7.50942 0.189768C7.5443 0.131859 7.5935 0.0839619 7.65227 0.0507155C7.71103 0.0174692 7.77736 0 7.84483 0C7.9123 0 7.97863 0.0174692 8.03739 0.0507155C8.09615 0.0839619 8.14535 0.131859 8.18023 0.189768L10.6746 4.34481L15.386 5.43936C15.4519 5.45461 15.5127 5.48669 15.5625 5.53248C15.6124 5.57827 15.6495 5.63621 15.6705 5.70067C15.6914 5.76513 15.6953 5.83391 15.6818 5.90034C15.6684 5.96676 15.638 6.02856 15.5937 6.07974L12.423 9.74133L12.8415 14.5729C12.8473 14.6404 12.8357 14.7083 12.8077 14.77C12.7797 14.8316 12.7362 14.885 12.6816 14.9249C12.6269 14.9647 12.5629 14.9897 12.4958 14.9974C12.4286 15.0052 12.3606 14.9953 12.2984 14.9689L7.84483 13.0768L3.39127 14.9689V14.9681Z" fill="#E97327"/>
<path d="M29.0807 14.9681C29.0186 14.9945 28.9506 15.0043 28.8836 14.9966C28.8165 14.989 28.7525 14.964 28.6979 14.9243C28.6433 14.8845 28.5998 14.8313 28.5717 14.7697C28.5436 14.7081 28.5319 14.6404 28.5376 14.5729L28.9561 9.74133L25.7854 6.07974C25.7411 6.02856 25.7107 5.96676 25.6973 5.90034C25.6838 5.83391 25.6878 5.76513 25.7087 5.70067C25.7296 5.63621 25.7667 5.57827 25.8166 5.53248C25.8664 5.48669 25.9272 5.45461 25.9931 5.43936L30.7045 4.34481L33.1989 0.189768C33.2338 0.131859 33.283 0.0839619 33.3417 0.0507155C33.4005 0.0174692 33.4668 0 33.5343 0C33.6018 0 33.6681 0.0174692 33.7268 0.0507155C33.7856 0.0839619 33.8348 0.131859 33.8697 0.189768L36.3641 4.34481L41.0755 5.43936C41.1413 5.45461 41.2021 5.48669 41.252 5.53248C41.3018 5.57827 41.339 5.63621 41.3599 5.70067C41.3808 5.76513 41.3847 5.83391 41.3713 5.90034C41.3578 5.96676 41.3275 6.02856 41.2831 6.07974L38.1124 9.74133L38.5309 14.5729C38.5368 14.6404 38.5252 14.7083 38.4972 14.77C38.4691 14.8316 38.4257 14.885 38.371 14.9249C38.3164 14.9647 38.2524 14.9897 38.1852 14.9974C38.1181 15.0052 38.0501 14.9953 37.9878 14.9689L33.5343 13.0768L29.0807 14.9689V14.9681Z" fill="#C1C4C9"/>
<path d="M54.7707 14.9681C54.7085 14.9945 54.6406 15.0043 54.5735 14.9966C54.5064 14.989 54.4425 14.964 54.3878 14.9243C54.3332 14.8845 54.2897 14.8313 54.2617 14.7697C54.2336 14.7081 54.2219 14.6404 54.2276 14.5729L54.6461 9.74133L51.4754 6.07974C51.431 6.02856 51.4007 5.96676 51.3872 5.90034C51.3738 5.83391 51.3777 5.76513 51.3986 5.70067C51.4195 5.63621 51.4567 5.57827 51.5065 5.53248C51.5564 5.48669 51.6172 5.45461 51.683 5.43936L56.3944 4.34481L58.8888 0.189768C58.9237 0.131859 58.9729 0.0839619 59.0317 0.0507155C59.0904 0.0174692 59.1568 0 59.2242 0C59.2917 0 59.358 0.0174692 59.4168 0.0507155C59.4755 0.0839619 59.5247 0.131859 59.5596 0.189768L62.054 4.34481L66.7654 5.43936C66.8313 5.45461 66.8921 5.48669 66.9419 5.53248C66.9918 5.57827 67.0289 5.63621 67.0498 5.70067C67.0707 5.76513 67.0747 5.83391 67.0612 5.90034C67.0478 5.96676 67.0174 6.02856 66.9731 6.07974L63.8024 9.74133L64.2209 14.5729C64.2267 14.6404 64.2151 14.7083 64.1871 14.77C64.1591 14.8316 64.1156 14.885 64.061 14.9249C64.0063 14.9647 63.9423 14.9897 63.8752 14.9974C63.808 15.0052 63.74 14.9953 63.6778 14.9689L59.2242 13.0768L54.7707 14.9689V14.9681Z" fill="#C1C4C9"/>
<path d="M80.4606 14.9681C80.3984 14.9945 80.3305 15.0043 80.2634 14.9966C80.1964 14.989 80.1324 14.964 80.0778 14.9243C80.0231 14.8845 79.9797 14.8313 79.9516 14.7697C79.9235 14.7081 79.9118 14.6404 79.9175 14.5729L80.336 9.74133L77.1653 6.07974C77.121 6.02856 77.0906 5.96676 77.0772 5.90034C77.0637 5.83391 77.0676 5.76513 77.0885 5.70067C77.1094 5.63621 77.1466 5.57827 77.1965 5.53248C77.2463 5.48669 77.3071 5.45461 77.373 5.43936L82.0844 4.34481L84.5788 0.189768C84.6136 0.131859 84.6628 0.0839619 84.7216 0.0507155C84.7804 0.0174692 84.8467 0 84.9142 0C84.9816 0 85.048 0.0174692 85.1067 0.0507155C85.1655 0.0839619 85.2147 0.131859 85.2496 0.189768L87.744 4.34481L92.4553 5.43936C92.5212 5.45461 92.582 5.48669 92.6319 5.53248C92.6817 5.57827 92.7189 5.63621 92.7398 5.70067C92.7607 5.76513 92.7646 5.83391 92.7512 5.90034C92.7377 5.96676 92.7073 6.02856 92.663 6.07974L89.4923 9.74133L89.9108 14.5729C89.9167 14.6404 89.9051 14.7083 89.877 14.77C89.849 14.8316 89.8056 14.885 89.7509 14.9249C89.6963 14.9647 89.6322 14.9897 89.5651 14.9974C89.498 15.0052 89.43 14.9953 89.3677 14.9689L84.9142 13.0768L80.4606 14.9689V14.9681Z" fill="#C1C4C9"/>
<path d="M106.15 14.9681C106.088 14.9945 106.02 15.0043 105.953 14.9966C105.886 14.989 105.822 14.964 105.767 14.9243C105.713 14.8845 105.669 14.8313 105.641 14.7697C105.613 14.7081 105.601 14.6404 105.607 14.5729L106.025 9.74133L102.855 6.07974C102.81 6.02856 102.78 5.96676 102.767 5.90034C102.753 5.83391 102.757 5.76513 102.778 5.70067C102.799 5.63621 102.836 5.57827 102.886 5.53248C102.936 5.48669 102.997 5.45461 103.062 5.43936L107.774 4.34481L110.268 0.189768C110.303 0.131859 110.352 0.0839619 110.411 0.0507155C110.47 0.0174692 110.536 0 110.604 0C110.671 0 110.737 0.0174692 110.796 0.0507155C110.855 0.0839619 110.904 0.131859 110.939 0.189768L113.433 4.34481L118.145 5.43936C118.211 5.45461 118.271 5.48669 118.321 5.53248C118.371 5.57827 118.408 5.63621 118.429 5.70067C118.45 5.76513 118.454 5.83391 118.441 5.90034C118.427 5.96676 118.397 6.02856 118.352 6.07974L115.182 9.74133L115.6 14.5729C115.606 14.6404 115.595 14.7083 115.566 14.77C115.538 14.8316 115.495 14.885 115.44 14.9249C115.386 14.9647 115.322 14.9897 115.255 14.9974C115.187 15.0052 115.119 14.9953 115.057 14.9689L110.604 13.0768L106.15 14.9689V14.9681Z" fill="#C1C4C9"/>
</svg>
