<svg width="17" height="17" viewBox="0 0 17 17" fill="none" xmlns="http://www.w3.org/2000/svg">
<path d="M12.7176 11.1633C12.9779 10.7535 13.2382 10.3438 13.4241 9.89682C13.796 9.0401 13.9819 8.1089 13.9819 7.17769C13.9819 6.24648 13.796 5.31527 13.4241 4.45856C13.0894 3.6391 12.5688 2.89413 11.9367 2.22366C11.3045 1.59044 10.5608 1.06896 9.70553 0.733728C8.85025 0.361245 7.9206 0.175003 6.99095 0.175003C6.06131 0.175003 5.13166 0.361245 4.27638 0.733728C3.45829 1.06896 2.71457 1.59044 2.04523 2.22366C1.41307 2.85688 0.892462 3.60185 0.557789 4.45856C0.18593 5.31527 0 6.24648 0 7.17769C0 8.1089 0.18593 9.0401 0.557789 9.89682C0.892462 10.7163 1.41307 11.4612 2.04523 12.1317C2.67739 12.7649 3.42111 13.2864 4.27638 13.6216C5.13166 13.9941 6.06131 14.1804 6.99095 14.1804C7.9206 14.1804 8.85025 13.9941 9.70553 13.6216C10.1518 13.4354 10.5608 13.2119 10.9698 12.9139L14.5025 16.4525C14.7628 16.7133 15.0603 16.825 15.395 16.825C15.7296 16.825 16.0271 16.7133 16.2874 16.4525C16.7709 15.9683 16.7709 15.1861 16.2874 14.7018L12.7176 11.1633ZM10.2261 11.9082C9.29648 12.5414 8.1809 12.9512 6.95377 12.9512C3.79296 12.9512 1.22714 10.381 1.22714 7.21494C1.22714 4.04883 3.79296 1.44145 6.95377 1.44145C10.1146 1.44145 12.6804 4.01158 12.6804 7.17769C12.6804 8.40688 12.3085 9.52433 11.6392 10.4555C11.3045 11.0143 10.7839 11.5357 10.2261 11.9082Z" fill="#232F3F"/>
</svg>
