<svg width="25" height="22" viewBox="0 0 25 22" fill="none" xmlns="http://www.w3.org/2000/svg">
<path d="M21.2858 2.34791C20.2406 1.48485 18.8996 1.00951 17.5096 1.00951C15.9021 1.00951 14.3469 1.64877 13.2433 2.7639C12.9859 3.02289 12.7505 3.30835 12.5321 3.62465C11.4041 1.98871 9.58192 1 7.61838 1C7.25866 1 6.89381 1.03315 6.53383 1.09841C4.67564 1.4368 3.21519 2.45891 2.19308 4.13545C0.729802 6.53887 0.613922 8.75832 1.83773 10.9207C2.49421 12.079 3.34828 13.2121 4.4503 14.3843C6.47782 16.5398 8.87739 18.5848 12.0044 20.8219C12.1709 20.9404 12.3481 21 12.5303 21C12.8129 21 13.0041 20.8569 13.1131 20.7747C15.8921 18.7919 18.1725 16.8815 20.0857 14.9323C21.1617 13.8357 22.3806 12.4883 23.2717 10.8128C23.6456 10.1073 24.0726 9.16018 24.0477 8.09028C23.9917 5.74852 23.0628 3.81633 21.2858 2.34791ZM22.1309 10.2077C21.3179 11.7373 20.1748 12.9978 19.1645 14.0282C17.3428 15.8841 15.1709 17.7091 12.5262 19.6071C9.58243 17.4858 7.30954 15.5408 5.39071 13.5002C4.35986 12.4035 3.56591 11.3519 2.96133 10.2843C1.97571 8.54223 2.08157 6.80172 3.29613 4.8076C4.11808 3.45866 5.28587 2.63825 6.76431 2.36872C7.04746 2.31708 7.33497 2.29138 7.61838 2.29138C9.38022 2.29138 10.9401 3.26288 11.7867 4.8834C11.835 4.9777 11.8826 5.06763 11.9609 5.21357C12.073 5.42477 12.2921 5.55581 12.5301 5.55581C12.5337 5.55581 12.5375 5.55581 12.5411 5.55581C12.7829 5.5517 13.0023 5.4127 13.1092 5.19558C13.4178 4.56968 13.7516 4.08611 14.1606 3.67244C15.0242 2.80013 16.2446 2.30089 17.5098 2.30089C18.6008 2.30089 19.6496 2.67114 20.4631 3.34381C21.9395 4.56222 22.7108 6.17016 22.7576 8.12085C22.7748 8.88705 22.45 9.60546 22.1309 10.2077Z" fill="white" stroke="white" stroke-width="0.5"/>
</svg>
