<svg width="22" height="12" viewBox="0 0 22 12" fill="none" xmlns="http://www.w3.org/2000/svg">
<path d="M21.0378 10.8373C21.0122 10.7824 20.9883 10.7369 20.9662 10.7004C20.5992 10.0432 19.898 9.23652 18.8629 8.28012L18.841 8.25822L18.8301 8.24748L18.819 8.23647H18.8079C18.3381 7.79113 18.0406 7.49169 17.916 7.33838C17.6881 7.04634 17.637 6.75074 17.7616 6.45122C17.8496 6.22492 18.1802 5.74701 18.7527 5.01684C19.0538 4.62987 19.2923 4.31973 19.4684 4.08607C20.7385 2.40687 21.2892 1.33383 21.1203 0.86655L21.0546 0.757352C21.0106 0.691611 20.8968 0.63147 20.7135 0.576621C20.5297 0.521888 20.2949 0.512837 20.0085 0.549313L16.8371 0.571098C16.7858 0.552994 16.7124 0.554682 16.6168 0.576621C16.5214 0.598561 16.4736 0.609569 16.4736 0.609569L16.4184 0.636993L16.3746 0.66994C16.3379 0.691726 16.2975 0.730043 16.2534 0.784815C16.2096 0.839395 16.1729 0.903448 16.1436 0.976438C15.7983 1.8598 15.4057 2.68111 14.9652 3.44032C14.6935 3.89303 14.444 4.28536 14.2162 4.61756C13.9887 4.94964 13.7978 5.19431 13.6438 5.35115C13.4895 5.50813 13.3503 5.6339 13.2252 5.72891C13.1004 5.82395 13.0051 5.86411 12.9391 5.84942C12.8729 5.83473 12.8106 5.82016 12.7517 5.80558C12.6489 5.73984 12.5663 5.65043 12.504 5.53728C12.4415 5.42414 12.3994 5.28172 12.3773 5.11016C12.3554 4.93848 12.3425 4.79081 12.3388 4.66666C12.3353 4.54265 12.3369 4.36725 12.3444 4.14095C12.352 3.91454 12.3554 3.76135 12.3554 3.68104C12.3554 3.40357 12.3609 3.10244 12.3718 2.77757C12.3829 2.4527 12.3919 2.1953 12.3994 2.00567C12.4069 1.81585 12.4104 1.61502 12.4104 1.4033C12.4104 1.19157 12.3974 1.02553 12.3718 0.905021C12.3465 0.784661 12.3076 0.667831 12.2565 0.554567C12.205 0.441418 12.1296 0.353891 12.0307 0.291756C11.9316 0.229696 11.8084 0.180448 11.6618 0.143857C11.2727 0.0562913 10.7772 0.00892239 10.1751 0.00155814C8.80968 -0.0130169 7.93234 0.0746635 7.54325 0.264485C7.38909 0.344686 7.24958 0.454267 7.12485 0.592884C6.99267 0.753555 6.97423 0.841236 7.06966 0.855658C7.5102 0.921284 7.82207 1.07827 8.00562 1.32647L8.07177 1.45799C8.12322 1.55288 8.1746 1.72088 8.22601 1.96175C8.27735 2.20262 8.31048 2.46908 8.32506 2.76096C8.3617 3.29399 8.3617 3.75027 8.32506 4.12983C8.2883 4.50955 8.25359 4.80516 8.22046 5.01688C8.18733 5.2286 8.1378 5.40016 8.07177 5.53153C8.00562 5.66294 7.96162 5.74325 7.93955 5.7724C7.91753 5.80155 7.89917 5.81993 7.88459 5.82714C7.78917 5.8635 7.68993 5.88202 7.58722 5.88202C7.48436 5.88202 7.35962 5.83086 7.21283 5.7286C7.06607 5.62635 6.91376 5.48589 6.75589 5.307C6.59803 5.12807 6.41999 4.87803 6.2217 4.55684C6.02357 4.23565 5.81799 3.85605 5.60509 3.41803L5.42894 3.10037C5.31883 2.89601 5.1684 2.59845 4.97752 2.20796C4.78653 1.8173 4.61771 1.43943 4.47095 1.0744C4.41229 0.921091 4.32415 0.804376 4.20671 0.72406L4.15159 0.691112C4.11495 0.661962 4.05613 0.631009 3.97545 0.598024C3.89464 0.565076 3.81033 0.541449 3.72216 0.526912L0.704898 0.548699C0.396573 0.548699 0.187371 0.61816 0.0772164 0.756892L0.0331313 0.822518C0.0111081 0.859071 0 0.917448 0 0.997803C0 1.07812 0.0220232 1.17669 0.0661083 1.29341C0.506573 2.32287 0.985569 3.3157 1.5031 4.27205C2.02062 5.22841 2.47035 5.99878 2.85199 6.58247C3.23371 7.16659 3.6228 7.71787 4.01926 8.23605C4.41572 8.75443 4.67815 9.08662 4.80654 9.23256C4.9351 9.37878 5.03607 9.48809 5.10947 9.56108L5.38482 9.82385C5.56101 9.9991 5.81973 10.209 6.16111 10.4535C6.50257 10.6982 6.88059 10.939 7.29536 11.1765C7.71022 11.4136 8.19284 11.607 8.7435 11.7567C9.29408 11.9064 9.82997 11.9665 10.3512 11.9375H11.6176C11.8745 11.9155 12.069 11.8352 12.2013 11.6966L12.2451 11.6417C12.2746 11.5981 12.3022 11.5304 12.3276 11.4393C12.3534 11.3481 12.3662 11.2475 12.3662 11.1382C12.3587 10.8243 12.3827 10.5414 12.4376 10.2896C12.4925 10.0378 12.5551 9.84802 12.625 9.72018C12.695 9.59245 12.7739 9.48467 12.8617 9.3973C12.9497 9.30974 13.0124 9.25669 13.0492 9.23843C13.0858 9.22006 13.115 9.20759 13.137 9.20012C13.3132 9.14174 13.5205 9.19827 13.7594 9.36999C13.998 9.54156 14.2218 9.75339 14.4312 10.0052C14.6404 10.2572 14.8918 10.5399 15.1854 10.8537C15.4792 11.1677 15.7361 11.4011 15.9562 11.5546L16.1764 11.686C16.3234 11.7737 16.5143 11.854 16.7492 11.927C16.9838 12 17.1893 12.0182 17.3657 11.9818L20.1847 11.938C20.4635 11.938 20.6804 11.8921 20.8343 11.801C20.9885 11.7098 21.0801 11.6093 21.1097 11.4999C21.1392 11.3904 21.1407 11.2662 21.1153 11.1274C21.0892 10.9889 21.0634 10.8921 21.0378 10.8373Z" fill="#E97327"/>
</svg>
