<svg width="22" height="15" viewBox="0 0 22 15" fill="none" xmlns="http://www.w3.org/2000/svg">
<path d="M21.155 2.34712C20.906 1.42936 20.1764 0.705934 19.2513 0.4588C17.561 0 10.7998 0 10.7998 0C10.7998 0 4.03878 0 2.34848 0.441311C1.44113 0.688282 0.693784 1.42952 0.44478 2.34712C0 4.02345 0 7.5 0 7.5C0 7.5 0 10.994 0.44478 12.6529C0.693949 13.5705 1.42333 14.2941 2.34865 14.5412C4.05657 15 10.8 15 10.8 15C10.8 15 17.561 15 19.2513 14.5587C20.1766 14.3117 20.906 13.5881 21.1551 12.6705C21.5999 10.994 21.5999 7.51765 21.5999 7.51765C21.5999 7.51765 21.6177 4.02345 21.155 2.34712Z" fill="#E97327"/>
<path d="M9 10.8002L14.4 7.5002L9 4.2002V10.8002Z" fill="#0E1A29"/>
</svg>
