<svg width="27" height="24" viewBox="0 0 27 24" fill="none" xmlns="http://www.w3.org/2000/svg">
<path d="M26.0286 3.14286L25.9429 3.05714C25.8286 2.94286 25.6286 2.77143 25.3143 2.77143H5.6L5.51429 2.28571C5.31429 0.971429 4.17143 0 2.82857 0H0.828572C0.342857 0 0 0.371428 0 0.828571C0 1.28571 0.371429 1.65714 0.828572 1.65714H2.85714C3.37143 1.65714 3.8 2.02857 3.88571 2.51429L5.6 12.8286C5.6 12.9143 5.62857 13 5.65714 13.0571L5.94286 14.8286C6.2 16.4 7.6 17.5714 9.17143 17.5714H22.4286C22.9143 17.5714 23.2571 17.2 23.2571 16.7429C23.2571 16.2857 22.8857 15.9143 22.4286 15.9143H9.14286C8.34286 15.9143 7.68571 15.3429 7.57143 14.6L7.4 13.6571H22.8286C23 13.6857 23.1429 13.6857 23.2857 13.6C23.4857 13.4857 23.6571 13.2857 23.7143 13.0571L26.1143 3.88571C26.2286 3.62857 26.1714 3.37143 26.0286 3.14286ZM24.2857 4.48571L22.2857 12.0286H7.14286L5.91429 4.48571H24.2857Z" fill="white"/>
<path d="M9.4001 18.3714C7.85724 18.3714 6.6001 19.6286 6.6001 21.1714C6.6001 22.7143 7.85724 23.9714 9.4001 23.9714C10.943 23.9714 12.2001 22.7143 12.2001 21.1714C12.2001 19.6286 10.943 18.3714 9.4001 18.3714ZM9.4001 20.0571C10.0287 20.0571 10.4858 20.5429 10.4858 21.1714C10.4858 21.7714 9.97153 22.2857 9.37153 22.2857C8.77153 22.2857 8.28581 21.7714 8.28581 21.1714C8.28581 20.5714 8.77153 20.0571 9.4001 20.0571Z" fill="white"/>
<path d="M18.6569 18.3714C17.1141 18.3714 15.8569 19.6286 15.8569 21.1714C15.8569 22.7143 17.0855 24 18.6569 24C20.2284 24 21.4569 22.7429 21.4569 21.2C21.4569 19.6571 20.1998 18.3714 18.6569 18.3714ZM18.6284 20.0571C19.2569 20.0571 19.7426 20.5429 19.7426 21.1714C19.7426 21.7714 19.2284 22.2857 18.6284 22.2857C18.0284 22.2857 17.5141 21.7714 17.5141 21.1714C17.4855 20.5714 17.9998 20.0571 18.6284 20.0571Z" fill="white"/>
</svg>
