<svg width="18" height="22" viewBox="0 0 18 22" fill="none" xmlns="http://www.w3.org/2000/svg">
<path d="M8.06667 21.9083C8.25 22 8.34167 22 8.525 22C8.70833 22 8.8 21.9083 8.98333 21.8167C9.35 21.5417 17.1417 15.3083 17.1417 8.525C17.05 3.85 13.2917 0 8.525 0C3.75833 0 0 3.85 0 8.61667C0 15.3083 7.79167 21.6333 8.06667 21.9083ZM8.525 1.375C12.4667 1.375 15.675 4.58333 15.675 8.525C15.675 13.75 10.0833 18.975 8.525 20.35C6.875 18.975 1.375 13.75 1.375 8.525C1.375 4.58333 4.58333 1.375 8.525 1.375Z" fill="#232F3F"/>
<path d="M12.6499 8.70837C12.6499 6.41671 10.8166 4.58337 8.5249 4.58337C6.23324 4.58337 4.3999 6.41671 4.3999 8.70837C4.3999 11 6.23324 12.8334 8.5249 12.8334C10.8166 12.8334 12.6499 11 12.6499 8.70837ZM5.7749 8.70837C5.7749 7.15004 6.96657 5.95837 8.5249 5.95837C10.0832 5.95837 11.2749 7.15004 11.2749 8.70837C11.2749 10.2667 10.0832 11.4584 8.5249 11.4584C6.96657 11.4584 5.7749 10.2667 5.7749 8.70837Z" fill="#232F3F"/>
</svg>
