<svg width="169" height="84" viewBox="0 0 169 84" fill="none" xmlns="http://www.w3.org/2000/svg">
<g clip-path="url(#clip0)">
<path fill-rule="evenodd" clip-rule="evenodd" d="M87.3167 0V84H169V0H87.3167Z" fill="#444444"/>
<path fill-rule="evenodd" clip-rule="evenodd" d="M0 0H81.6833V84H0V0Z" fill="#444444"/>
<path fill-rule="evenodd" clip-rule="evenodd" d="M164.073 5V78.7523H91.9264V5H164.073Z" fill="white"/>
<path fill-rule="evenodd" clip-rule="evenodd" d="M44.2539 58.9736C43.3547 57.8516 42.8983 56.3791 42.8983 54.5987C42.8983 52.7708 43.3332 51.2988 44.1912 50.2243C45.1261 49.0475 46.5038 48.4513 48.2866 48.4513H48.4232V45.4019H48.2866C45.5056 45.4019 43.3591 46.2922 41.9071 48.0467C40.5859 49.6339 39.9161 51.846 39.9161 54.6225C39.9161 57.3044 40.6432 59.5102 42.0769 61.1772C43.5846 62.9298 45.6881 63.8193 48.3288 63.8193H48.4654V60.7704H48.3288C46.5872 60.7704 45.2158 60.166 44.2539 58.9736ZM33.6603 58.9736C32.7611 57.8524 32.3047 56.3812 32.3047 54.5987C32.3047 52.7708 32.7396 51.2988 33.5973 50.2243C34.5317 49.0475 35.9097 48.4513 37.693 48.4513H37.8296V45.4019H37.693C34.9122 45.4019 32.7655 46.2922 31.3127 48.0467C29.9921 49.6339 29.3223 51.846 29.3223 54.6225C29.3223 57.3044 30.0493 59.5102 31.483 61.1772C32.991 62.9298 35.0945 63.8193 37.7352 63.8193H37.8718V60.7704H37.7352C35.9934 60.7704 34.6222 60.166 33.6603 58.9736ZM43.397 29.2784V37.7663H46.5598V20.1931H43.397V26.3135H41.6756C40.9654 26.3135 40.4359 26.1481 40.1017 25.8224C39.8596 25.5916 39.7427 25.2837 39.7427 24.8791V20.1931H36.58V25.2117C36.58 26.3665 37.0271 27.3448 37.9086 28.1201C38.7798 28.8883 39.8488 29.2784 41.0862 29.2784H43.397ZM73.656 44.9842L73.4334 45.2217C73.4334 45.2217 67.5505 51.5018 67.1137 51.9684V45.8221H64.3499V63.2952H67.1137V56.1178C67.1827 56.0426 70.7221 52.2112 71.1205 51.7798C71.1425 52.4091 71.521 63.2952 71.521 63.2952H74.3372L73.656 44.9842ZM52.9644 37.7663H56.1267V23.114H58.7923V20.1931H50.3426V23.114H52.9644V37.7663ZM60.2488 45.2217C60.2488 45.2217 54.3662 51.5018 53.9292 51.9684V45.8221H51.1653V63.2952H53.9292V56.1178C53.9986 56.0426 57.5375 52.2112 57.9362 51.7798C57.9585 52.4091 58.3366 63.2952 58.3366 63.2952H61.1526L60.4717 44.9842L60.2488 45.2217ZM65.9375 23.114H67.0821C67.8968 23.114 68.4582 23.3639 68.7973 23.8788C69.0699 24.3062 69.2638 25.1343 69.3885 26.2682H65.8608C65.8696 25.9125 65.9292 23.4535 65.9375 23.114ZM65.8048 29.1891C66.1482 29.1893 69.4308 29.1915 69.7522 29.1915C69.7895 29.5497 70.6394 37.7679 70.6394 37.7679L73.825 37.7661L72.3654 24.9202C72.3667 23.2359 71.8579 21.9645 70.8546 21.1651C70.056 20.5204 68.9624 20.1931 67.6036 20.1931H62.918L62.3364 37.7663H65.4989C65.4989 37.7663 65.7908 29.5738 65.8048 29.1891ZM10.6791 23.114H14.5962V37.7663H17.7587V20.1931H7.51714V37.7663H10.6791V23.114ZM12.1579 55.3605C11.9314 55.8083 11.667 56.0338 11.372 56.0338C11.0858 56.0338 10.8453 55.8404 10.6372 55.4403C10.4166 55.0158 10.3054 54.3949 10.3054 53.5931V48.4513H10.4218C11.0752 48.4513 11.5737 48.8194 11.9464 49.5775C12.3292 50.3579 12.5234 51.6073 12.5234 53.2915C12.5234 54.1853 12.4005 54.8814 12.1579 55.3605ZM10.4282 45.8486H7.49744V63.2833H10.3054V58.216C10.8492 58.7038 11.442 58.9948 12.0913 58.9948C13.0254 58.9948 13.8038 58.4897 14.4052 57.4939C15.0776 56.3754 15.4184 54.7177 15.4184 52.5662C15.4184 51.0696 15.1452 49.7285 14.6068 48.5827C13.759 46.7692 12.3531 45.8486 10.4282 45.8486ZM29.2443 33.4675C28.8321 34.6051 28.2536 35.1581 27.4742 35.1581C26.7274 35.1581 26.1639 34.5977 25.7518 33.4442C25.321 32.239 25.1027 30.7096 25.1027 28.8992C25.1027 27.0414 25.3171 25.5127 25.7398 24.3555C26.1432 23.2487 26.7106 22.7107 27.4742 22.7107C28.3311 22.7107 28.941 23.2553 29.3386 24.3764C29.7069 25.4075 29.8933 26.9129 29.8933 28.851C29.8933 30.7233 29.6753 32.2764 29.2443 33.4675ZM31.686 35.4541C32.624 33.7985 33.1002 31.5771 33.1002 28.851C33.1002 26.1566 32.6077 23.9503 31.6377 22.2937C30.6465 20.6031 29.2435 19.7461 27.4682 19.7461C25.7831 19.7461 24.4431 20.6086 23.485 22.3096C22.547 23.9702 22.0711 26.1794 22.0711 28.8751C22.0711 31.6643 22.5268 33.9169 23.4249 35.5709C24.3438 37.265 25.7043 38.1241 27.4682 38.1241C29.2611 38.1241 30.6802 37.226 31.686 35.4541ZM23.7671 59.0838C23.3961 60.2333 22.8516 60.8155 22.1496 60.8155C21.4754 60.8155 20.9446 60.2246 20.5732 59.0594C20.1872 57.8468 19.9913 56.3081 19.9913 54.4853C19.9913 52.6166 20.1836 51.0778 20.5631 49.9124C20.9262 48.7945 21.4599 48.2277 22.1496 48.2277C22.9314 48.2277 23.4887 48.7868 23.8516 49.9352C24.1823 50.9747 24.3497 52.4886 24.3497 54.4378C24.3497 56.3216 24.154 57.8842 23.7671 59.0838ZM25.8557 47.9208C24.9757 46.2496 23.7302 45.4019 22.153 45.4019C20.6571 45.4019 19.4677 46.2543 18.6172 47.9364C17.7816 49.5889 17.3575 51.7837 17.3575 54.4617C17.3575 57.235 17.7634 59.4752 18.5636 61.1183C19.378 62.792 20.5856 63.6413 22.153 63.6413C23.7453 63.6413 25.0058 62.7528 25.899 60.9996C26.7341 59.357 27.1577 57.1491 27.1577 54.4378C27.1577 51.7583 26.7199 49.5656 25.856 47.9208H25.8557Z" fill="white"/>
<path fill-rule="evenodd" clip-rule="evenodd" d="M111.874 27.084C112.48 28.454 113.476 29.857 116.184 31.7498C116.79 32.1741 117.459 33.0559 116.949 34.2958C116.438 35.5362 115.481 37.2981 116.055 37.9825C116.63 38.6694 118.672 39.0274 120.332 38.3426C120.332 38.3426 120.683 39.419 121.291 40.1037C121.291 40.1037 121.003 40.692 120.046 40.3987C120.046 40.3987 120.397 41.2789 119.918 42.2252C119.918 42.2252 118.802 42.0302 118.321 40.984C118.321 40.984 117.875 41.8017 116.982 42.0935C116.982 42.0935 116.247 41.7034 116.407 40.2026C116.407 40.2026 115.864 41.5407 114.204 41.7678C114.204 41.7678 113.247 40.5288 114.492 38.8631C114.492 38.8631 113.597 39.6808 111.97 39.2889C111.97 39.2889 111.713 38.4407 113.183 37.2639C113.183 37.2639 111.521 37.2006 110.884 35.7641C110.884 35.7641 111.586 34.8827 113.309 35.0796C113.309 35.0796 111.713 34.7195 111.364 32.7618C111.364 32.7618 112.512 32.0114 114.333 33.2178C114.333 33.2178 114.013 32.5983 113.247 31.9788C112.48 31.3584 111.554 29.6278 111.874 27.084Z" fill="#444444"/>
<path fill-rule="evenodd" clip-rule="evenodd" d="M118.554 46.7664C118.312 46.4386 118.132 46.1126 117.998 45.7949C118.283 48.1694 118.387 49.7707 119.64 51.3082C119.64 51.3082 120.397 50.2779 119.909 47.7781C119.698 47.7155 119.463 47.6151 119.233 47.4566C119.233 47.4566 119.52 48.471 119.341 49.4949C119.341 49.4949 118.888 49.1578 118.554 46.7664Z" fill="#444444"/>
<path fill-rule="evenodd" clip-rule="evenodd" d="M116.384 46.5197C116.235 46.3265 115.947 45.9187 115.795 45.627C115.69 47.0057 115.335 50.6351 116.524 51.7701C116.524 51.7701 117.339 51.1606 117.627 45.8686C117.454 46.1646 117.153 46.4789 117.004 46.6506C117.004 46.6506 117.202 48.3306 116.613 49.5143C116.613 49.5143 116.022 49.0566 116.384 46.5197Z" fill="#444444"/>
<path fill-rule="evenodd" clip-rule="evenodd" d="M113.551 49.2957C114.551 48.0717 114.85 44.4062 114.85 44.4062C114.988 44.3116 115.127 44.208 115.265 44.0949C115.324 44.0472 115.379 43.9984 115.431 43.9473C115.43 44.0808 115.436 44.2183 115.448 44.3567C115.304 46.5624 115.134 48.8365 114.46 49.9685C113.8 51.0769 112.588 51.653 112.588 51.653C111.45 49.584 112.825 46.8056 113.976 44.8763C114.117 44.8204 114.26 44.7536 114.406 44.6776C114.002 46.1633 113.237 47.9297 113.551 49.2957Z" fill="#444444"/>
<path fill-rule="evenodd" clip-rule="evenodd" d="M110.73 42.9315C110.723 43.1697 110.766 43.3605 110.796 43.462C110.809 43.5012 110.824 43.5553 110.85 43.6101C109.897 44.5686 109.191 45.4804 107.779 47.4879C106.363 49.4962 104.126 49.5757 104.126 49.5757C104.341 47.9511 104.774 46.6657 105.97 45.2806C107.168 43.8953 108.7 42.6313 109.828 41.791C110.117 41.9288 110.495 42.0149 110.973 41.9569C111.009 41.9524 111.045 41.9479 111.084 41.9421C110.932 42.1421 110.842 42.3435 110.791 42.5324C109.937 43.0319 107.465 44.316 106.462 46.384C106.462 46.384 108.028 45.8821 110.73 42.9315Z" fill="#444444"/>
<path fill-rule="evenodd" clip-rule="evenodd" d="M108.954 40.907L109.049 40.7358C109.079 40.6801 109.112 40.6285 109.149 40.5781C108.229 40.9446 104.95 42.2091 103.89 42.7698C102.831 43.3329 101.295 44.6112 100.462 47.2025C100.462 47.2025 102.673 47.4065 104.499 45.8622C106.324 44.3152 108.451 42.1596 109.36 41.473C109.269 41.3858 109.199 41.3026 109.149 41.2348C109.149 41.2348 106.679 43.4726 104.066 44.4374C104.066 44.4374 104.626 43.4015 105.658 42.6492C106.914 41.7345 107.855 41.4277 108.954 40.907Z" fill="#444444"/>
<path fill-rule="evenodd" clip-rule="evenodd" d="M107.081 39.3806C107.116 39.2908 107.153 39.206 107.191 39.123C106.109 39.3493 103.405 39.679 102.196 40.0574C100.989 40.4358 98.8046 41.3404 97.5086 43.8665C97.5086 43.8665 99.4119 44.468 103.002 42.7393C106.591 41.0121 107.717 40.656 108.403 40.4718C107.855 40.4302 107.468 40.2413 107.267 40.1154C105.836 40.7654 103.92 41.5392 102.02 41.5879C102.02 41.5879 102.959 40.9096 103.942 40.4875C105.012 40.0285 106.188 39.6133 107.081 39.3806Z" fill="#444444"/>
<path fill-rule="evenodd" clip-rule="evenodd" d="M107.171 37.5601C107.523 37.7294 107.792 37.8137 108.251 37.8638C108.001 38.027 107.762 38.2393 107.55 38.5207C106.286 38.8935 104.129 39.3011 100.571 39.5639C97.0122 39.8263 95.1159 39.1564 95.1159 39.1564C96.3567 38.3826 98.3326 37.5951 99.6706 37.332C101.006 37.068 104.516 37.0956 106.055 36.8828C106.073 36.899 106.261 37.0561 106.561 37.2429C105.267 37.3616 102.51 37.4939 101.086 38.23C101.086 38.23 103.714 38.5893 107.171 37.5601Z" fill="#444444"/>
<path fill-rule="evenodd" clip-rule="evenodd" d="M106.905 35.4697C107.084 35.3608 107.302 35.2545 107.565 35.1528C105.765 34.595 103.29 33.706 99.5724 33.4556C96.8412 33.2722 94.871 33.4323 93.8523 33.7023C93.8523 33.7023 96.336 35.493 99.1781 36.1253C102.02 36.7578 104.328 36.3558 106.015 36.3701C106.127 36.2005 106.251 36.0108 106.449 35.8192C104.478 35.8317 101.194 35.3091 100.019 34.9103C100.019 34.9103 102.882 34.299 106.905 35.4697Z" fill="#444444"/>
<path fill-rule="evenodd" clip-rule="evenodd" d="M106.896 33.3048C106.905 33.3557 107.115 34.3936 108.292 34.9694C105.765 33.8366 100.781 33.1845 98.1042 32.0472C94.4837 30.5103 93.8251 28.5902 93.8251 28.5902C96.9562 28.5062 99.4894 29.289 101.44 29.8995C103.726 30.6165 107.206 31.9428 108.425 32.4985C107.968 32.5175 107.468 32.6514 107.047 32.9391C105.345 32.2722 104.553 31.9915 103.009 31.5488C101.791 31.2006 100.888 31.1314 100.128 31.0564C100.128 31.0564 101.2 31.7814 102.966 32.3607C104.716 32.932 105.475 33.0274 106.896 33.3048Z" fill="#444444"/>
<path fill-rule="evenodd" clip-rule="evenodd" d="M106.704 30.4815C106.806 30.6654 107.105 31.1039 107.222 31.2786C103.222 30.5936 98.8253 27.5012 97.4663 25.5859C96.1066 23.669 96.4938 20.8066 96.4938 20.8066C97.8111 21.0804 100.678 23.6067 101.419 24.3646C102.161 25.1227 104.405 27.3533 105.955 28.6004L106.442 30.0382C105.112 28.9456 103.532 27.7235 102.55 26.9673C101.793 26.383 100.66 25.5591 99.535 25.1646C99.535 25.1646 100.573 26.5473 101.409 27.2185C102.374 27.9991 103.359 28.6775 104.166 29.1314C104.884 29.5339 105.251 29.7631 106.704 30.4815Z" fill="#444444"/>
<path fill-rule="evenodd" clip-rule="evenodd" d="M117.983 41.9234C118.105 41.8174 118.209 41.7093 118.297 41.6094C118.482 41.8479 119.098 42.6383 119.401 43.4227C119.633 44.0947 119.877 45.0065 120 45.5309C120.122 46.0524 120.486 47.1367 120.706 47.5108C120.706 47.5108 119.732 47.6356 119.011 46.776C118.302 45.9291 118.061 45.0809 117.951 44.2067C117.864 43.5231 117.892 42.5776 117.983 41.9234Z" fill="#444444"/>
<path fill-rule="evenodd" clip-rule="evenodd" d="M116.447 42.0547C116.628 42.3022 116.802 42.4037 116.819 42.4124L116.949 42.4818L117.088 42.4368C117.208 42.3963 117.32 42.3504 117.425 42.2964C117.564 42.6991 117.623 42.8947 117.659 43.2368C117.706 43.6912 117.793 44.408 117.626 44.9939C117.423 45.7072 117.004 46.1418 116.774 46.4182C116.774 46.4182 116.137 45.7009 115.954 45.1089C115.763 44.4899 115.696 43.7694 115.931 43.0325C116.058 42.6339 116.265 42.2648 116.447 42.0547Z" fill="#444444"/>
<path fill-rule="evenodd" clip-rule="evenodd" d="M114.251 42.1231C114.901 42.0336 115.397 41.7922 115.768 41.5137C115.851 41.7482 115.978 42.064 115.883 42.5116C115.787 42.9597 115.485 43.456 115.048 43.8143C114.392 44.3495 113.511 44.8556 112.54 44.7004C112.54 44.7004 112.317 43.956 114.251 42.1231Z" fill="#444444"/>
<path fill-rule="evenodd" clip-rule="evenodd" d="M113.515 40.8789C113.594 41.5422 113.904 41.9579 113.929 41.99C113.701 42.2677 112.882 43.7087 111.17 43.4649C111.17 43.4649 110.707 42.4855 111.847 41.7057C112.62 41.1778 112.985 41.0705 113.515 40.8789Z" fill="#444444"/>
<path fill-rule="evenodd" clip-rule="evenodd" d="M113.665 39.6484C113.209 39.766 112.616 39.8119 111.889 39.6365L111.693 39.5901L111.635 39.3945C110.756 40.128 109.713 40.2488 109.354 40.9087C109.354 40.9087 109.792 41.7399 110.932 41.6005C112.07 41.4619 112.927 40.9174 113.537 40.1357C113.56 40.0157 113.609 39.7984 113.665 39.6484Z" fill="#444444"/>
<path fill-rule="evenodd" clip-rule="evenodd" d="M111.692 38.6174C111.855 38.3726 111.967 37.992 112.307 37.6073C111.555 37.4753 110.874 37.4647 109.99 37.6359C108.939 37.8394 107.867 38.0925 107.33 39.7264C107.33 39.7264 108.006 40.3138 109.23 40.0587C110.269 39.8411 111.175 39.3832 111.692 38.6174Z" fill="#444444"/>
<path fill-rule="evenodd" clip-rule="evenodd" d="M111.247 36.8458C110.981 36.6124 110.741 36.3082 110.565 35.9128L110.475 35.7099C109.566 35.3293 108.616 35.1348 107.689 35.4886C106.76 35.8442 106.514 36.2544 106.279 36.6082C106.279 36.6082 107.308 37.4884 108.493 37.5226C109.678 37.5571 110.771 37.2091 111.247 36.8458Z" fill="#444444"/>
<path fill-rule="evenodd" clip-rule="evenodd" d="M111.521 34.935C111.678 34.8736 111.855 34.8182 112.054 34.7766C111.65 34.4138 111.253 33.8621 111.06 33.034C110.639 33.1358 109.644 33.1358 109.207 32.9641C108.772 32.7934 107.911 32.7823 107.241 33.2383C107.241 33.2383 107.465 34.4379 108.984 34.8495C110.411 35.2355 110.943 35.1359 111.521 34.935Z" fill="#444444"/>
<path fill-rule="evenodd" clip-rule="evenodd" d="M110.975 32.5898L111.175 32.4597C111.202 32.4414 111.542 32.2292 112.123 32.1833C111.634 31.81 110.471 30.8134 109.644 30.3353C108.746 29.8191 107.251 29.1358 106.492 29.0332C106.492 29.0332 107.204 30.9472 108.035 31.7172C108.895 32.5178 109.499 32.8148 110.975 32.5898Z" fill="#444444"/>
<path fill-rule="evenodd" clip-rule="evenodd" d="M112.51 31.7111C112.147 31.2268 111.86 30.5619 111.649 29.7757C111.475 29.1355 111.085 27.5485 110.85 27.137C110.616 26.7247 109.778 25.2848 108.136 24.8398C108.136 24.8398 107.7 26.7133 108.525 28.1985C109.238 29.4763 110.696 30.8258 112.51 31.7111Z" fill="#444444"/>
<path fill-rule="evenodd" clip-rule="evenodd" d="M121.613 40.431C121.819 40.6382 121.973 40.7558 122.34 40.9432C122.34 40.9432 122.864 41.965 122.23 43.1982C121.596 44.4325 121.06 45.6928 120.804 46.3905C120.804 46.3905 120.462 46.3406 120.084 44.4081C119.828 43.0988 119.505 42.7721 119.167 42.3251C119.534 42.5161 119.834 42.5749 119.858 42.5781L120.112 42.6221L120.229 42.3903C120.454 41.9459 120.521 41.5166 120.521 41.161C120.521 41.0433 120.513 40.9339 120.502 40.8356C121.091 40.8496 121.405 40.5457 121.525 40.3894C121.534 40.3745 121.545 40.3623 121.552 40.3496L121.613 40.431Z" fill="#444444"/>
<path fill-rule="evenodd" clip-rule="evenodd" d="M107.675 25.6263C107.67 25.8044 107.665 26.0047 107.672 26.2162L107.705 26.6759C106.738 25.4128 105.578 23.8873 104.471 22.4847C103.711 21.5217 103.073 20.9396 102.359 20.47C102.959 22.2534 104.033 23.6758 104.796 24.3852C105.555 25.094 106.656 26.2938 107.729 27.0247L107.833 27.3858C107.917 27.7181 108.043 28.0557 108.221 28.3769C108.472 28.8271 108.801 29.272 109.191 29.6992C108.879 29.5431 108.52 29.3724 108.161 29.2164L107.828 29.0754C104.875 27.4749 101.945 24.1594 100.76 21.8482C99.5739 19.5399 100.067 16.8623 100.382 15.4258C101.721 16.5877 103.653 18.8764 104.494 20.1218C105.529 21.6489 106.853 23.8136 107.675 25.5734V25.6263Z" fill="#444444"/>
<path fill-rule="evenodd" clip-rule="evenodd" d="M149.095 35.4697C148.915 35.3608 148.7 35.2545 148.435 35.1528C150.235 34.595 152.71 33.706 156.429 33.4556C159.159 33.2722 161.128 33.4323 162.147 33.7023C162.147 33.7023 159.664 35.493 156.82 36.1253C153.98 36.7578 151.672 36.3558 149.985 36.3701C149.873 36.2005 149.749 36.0108 149.552 35.8192C151.523 35.8317 154.806 35.3091 155.979 34.9103C155.979 34.9103 153.118 34.299 149.095 35.4697Z" fill="#444444"/>
<path fill-rule="evenodd" clip-rule="evenodd" d="M149.103 33.3048C149.095 33.3557 148.885 34.3936 147.708 34.9694C150.235 33.8366 155.218 33.1845 157.896 32.0472C161.517 30.5103 162.175 28.5902 162.175 28.5902C159.046 28.5062 156.509 29.289 154.56 29.8995C152.274 30.6165 148.793 31.9428 147.575 32.4985C148.032 32.5175 148.531 32.6514 148.952 32.9391C150.656 32.2722 151.447 31.9915 152.991 31.5488C154.209 31.2006 155.112 31.1314 155.872 31.0564C155.872 31.0564 154.799 31.7814 153.033 32.3607C151.282 32.932 150.526 33.0274 149.103 33.3048Z" fill="#444444"/>
<path fill-rule="evenodd" clip-rule="evenodd" d="M149.295 30.4815C149.193 30.6654 148.894 31.1039 148.777 31.2786C152.778 30.5936 157.175 27.5012 158.535 25.5859C159.894 23.669 159.506 20.8066 159.506 20.8066C158.188 21.0804 155.322 23.6067 154.581 24.3646C153.839 25.1227 151.595 27.3533 150.045 28.6004L149.558 30.0382C150.888 28.9456 152.468 27.7235 153.45 26.9673C154.207 26.383 155.338 25.5591 156.467 25.1646C156.467 25.1646 155.428 26.5473 154.591 27.2185C153.624 27.9991 152.643 28.6775 151.834 29.1314C151.117 29.5339 150.748 29.7631 149.295 30.4815Z" fill="#444444"/>
<path fill-rule="evenodd" clip-rule="evenodd" d="M148.325 25.6263C148.329 25.8044 148.334 26.0047 148.328 26.2162L148.294 26.6759C149.262 25.4128 150.423 23.8873 151.53 22.4847C152.289 21.5217 152.927 20.9396 153.639 20.47C153.041 22.2534 151.967 23.6758 151.205 24.3852C150.445 25.094 149.345 26.2938 148.272 27.0247L148.167 27.3858C148.083 27.7181 147.957 28.0557 147.779 28.3769C147.526 28.8271 147.197 29.272 146.809 29.6992C147.121 29.5431 147.48 29.3724 147.84 29.2164L148.172 29.0754C151.124 27.4749 154.055 24.1594 155.241 21.8482C156.425 19.5399 155.935 16.8623 155.618 15.4258C154.277 16.5877 152.347 18.8764 151.505 20.1218C150.47 21.6489 149.147 23.8136 148.325 25.5734V25.6263Z" fill="#444444"/>
<path fill-rule="evenodd" clip-rule="evenodd" d="M111.45 43.8549C110.232 45.0998 107.665 47.8909 107.908 50.921C107.908 50.921 110.291 50.1586 111.273 48.3716C112.253 46.5845 112.861 45.4652 113.274 45.0614C113.007 45.0987 112.743 45.0977 112.486 45.0563L112.27 45.02C111.665 46.1446 110.467 47.9902 109.388 48.6331C109.388 48.6331 109.112 47.1394 112.283 44.1117C112.329 43.9885 112.393 43.8477 112.481 43.6914C112.191 43.7966 111.86 43.8602 111.488 43.8509" fill="#444444"/>
<path fill-rule="evenodd" clip-rule="evenodd" d="M144.126 27.084C143.519 28.454 142.523 29.857 139.816 31.7498C139.21 32.1741 138.54 33.0559 139.051 34.2958C139.562 35.5362 140.519 37.2981 139.943 37.9825C139.369 38.6694 137.325 39.0274 135.666 38.3426C135.666 38.3426 135.317 39.419 134.709 40.1037C134.709 40.1037 134.997 40.692 135.955 40.3987C135.955 40.3987 135.603 41.2789 136.082 42.2252C136.082 42.2252 137.198 42.0302 137.677 40.984C137.677 40.984 138.124 41.8017 139.018 42.0935C139.018 42.0935 139.752 41.7034 139.594 40.2026C139.594 40.2026 140.136 41.5407 141.795 41.7678C141.795 41.7678 142.753 40.5288 141.508 38.8631C141.508 38.8631 142.402 39.6808 144.03 39.2889C144.03 39.2889 144.285 38.4407 142.817 37.2639C142.817 37.2639 144.476 37.2006 145.115 35.7641C145.115 35.7641 144.413 34.8827 142.69 35.0796C142.69 35.0796 144.285 34.7195 144.636 32.7618C144.636 32.7618 143.488 32.0114 141.669 33.2178C141.669 33.2178 141.987 32.5983 142.752 31.9788C143.519 31.3584 144.444 29.6278 144.126 27.084Z" fill="#444444"/>
<path fill-rule="evenodd" clip-rule="evenodd" d="M137.445 46.7664C137.686 46.4386 137.867 46.1126 138.001 45.7949C137.717 48.1694 137.612 49.7707 136.358 51.3082C136.358 51.3082 135.602 50.2779 136.092 47.7781C136.302 47.7155 136.537 47.6151 136.767 47.4566C136.767 47.4566 136.48 48.471 136.658 49.4949C136.658 49.4949 137.112 49.1578 137.445 46.7664Z" fill="#444444"/>
<path fill-rule="evenodd" clip-rule="evenodd" d="M139.614 46.5197C139.765 46.3265 140.053 45.9187 140.205 45.627C140.309 47.0057 140.663 50.6351 139.476 51.7701C139.476 51.7701 138.659 51.1606 138.373 45.8686C138.546 46.1646 138.847 46.4789 138.994 46.6506C138.994 46.6506 138.797 48.3306 139.386 49.5143C139.386 49.5143 139.977 49.0566 139.614 46.5197Z" fill="#444444"/>
<path fill-rule="evenodd" clip-rule="evenodd" d="M142.449 49.2957C141.448 48.0717 141.149 44.4062 141.149 44.4062C141.01 44.3116 140.872 44.208 140.733 44.0949C140.676 44.0472 140.62 43.9984 140.568 43.9473C140.569 44.0808 140.564 44.2183 140.551 44.3567C140.696 46.5624 140.866 48.8365 141.541 49.9685C142.2 51.0769 143.412 51.653 143.412 51.653C144.551 49.584 143.175 46.8056 142.026 44.8763C141.882 44.8204 141.738 44.7536 141.594 44.6776C141.998 46.1633 142.763 47.9297 142.449 49.2957Z" fill="#444444"/>
<path fill-rule="evenodd" clip-rule="evenodd" d="M145.269 42.9315C145.277 43.1697 145.233 43.3605 145.202 43.462C145.19 43.5012 145.176 43.5553 145.15 43.6101C146.1 44.5686 146.809 45.4804 148.222 47.4879C149.636 49.4962 151.874 49.5757 151.874 49.5757C151.657 47.9511 151.225 46.6657 150.029 45.2806C148.831 43.8953 147.298 42.6313 146.172 41.791C145.882 41.9288 145.505 42.0149 145.028 41.9569C144.991 41.9524 144.953 41.9479 144.916 41.9421C145.067 42.1421 145.158 42.3435 145.209 42.5324C146.062 43.0319 148.537 44.316 149.539 46.384C149.539 46.384 147.972 45.8821 145.269 42.9315Z" fill="#444444"/>
<path fill-rule="evenodd" clip-rule="evenodd" d="M147.045 40.907L146.951 40.7358C146.921 40.6801 146.887 40.6285 146.852 40.5781C147.769 40.9446 151.05 42.2091 152.11 42.7698C153.169 43.3329 154.704 44.6112 155.538 47.2025C155.538 47.2025 153.327 47.4065 151.5 45.8622C149.674 44.3152 147.548 42.1596 146.638 41.473C146.731 41.3858 146.8 41.3026 146.852 41.2348C146.852 41.2348 149.322 43.4726 151.932 44.4374C151.932 44.4374 151.373 43.4015 150.341 42.6492C149.085 41.7345 148.146 41.4277 147.045 40.907Z" fill="#444444"/>
<path fill-rule="evenodd" clip-rule="evenodd" d="M148.919 39.3806C148.883 39.2908 148.846 39.206 148.808 39.123C149.89 39.3493 152.595 39.679 153.802 40.0574C155.009 40.4358 157.194 41.3404 158.49 43.8665C158.49 43.8665 156.588 44.468 152.996 42.7393C149.407 41.0121 148.285 40.656 147.598 40.4718C148.144 40.4302 148.531 40.2413 148.733 40.1154C150.166 40.7654 152.079 41.5392 153.98 41.5879C153.98 41.5879 153.041 40.9096 152.057 40.4875C150.989 40.0285 149.813 39.6133 148.919 39.3806Z" fill="#444444"/>
<path fill-rule="evenodd" clip-rule="evenodd" d="M148.829 37.5601C148.477 37.7294 148.206 37.8137 147.748 37.8638C147.999 38.027 148.237 38.2393 148.45 38.5207C149.715 38.8935 151.87 39.3011 155.428 39.5639C158.986 39.8263 160.883 39.1564 160.883 39.1564C159.644 38.3826 157.666 37.5951 156.331 37.332C154.993 37.068 151.482 37.0956 149.944 36.8828C149.926 36.899 149.739 37.0561 149.438 37.2429C150.732 37.3616 153.49 37.4939 154.913 38.23C154.913 38.23 152.288 38.5893 148.829 37.5601Z" fill="#444444"/>
<path fill-rule="evenodd" clip-rule="evenodd" d="M138.017 41.9234C137.894 41.8174 137.791 41.7093 137.702 41.6094C137.516 41.8479 136.902 42.6383 136.599 43.4227C136.367 44.0947 136.122 45.0065 136 45.5309C135.878 46.0524 135.513 47.1367 135.293 47.5108C135.293 47.5108 136.269 47.6356 136.988 46.776C137.696 45.9291 137.939 45.0809 138.048 44.2067C138.133 43.5231 138.108 42.5776 138.017 41.9234Z" fill="#444444"/>
<path fill-rule="evenodd" clip-rule="evenodd" d="M139.55 42.0547C139.371 42.3022 139.197 42.4037 139.18 42.4124L139.051 42.4818L138.912 42.4368C138.79 42.3963 138.68 42.3504 138.575 42.2964C138.436 42.6991 138.377 42.8947 138.342 43.2368C138.294 43.6912 138.205 44.408 138.373 44.9939C138.577 45.7072 138.994 46.1418 139.224 46.4182C139.224 46.4182 139.862 45.7009 140.045 45.1089C140.235 44.4899 140.304 43.7694 140.068 43.0325C139.942 42.6339 139.734 42.2648 139.55 42.0547Z" fill="#444444"/>
<path fill-rule="evenodd" clip-rule="evenodd" d="M141.749 42.1231C141.098 42.0336 140.602 41.7922 140.231 41.5137C140.148 41.7482 140.021 42.064 140.117 42.5116C140.212 42.9597 140.515 43.456 140.952 43.8143C141.607 44.3495 142.489 44.8556 143.459 44.7004C143.459 44.7004 143.683 43.956 141.749 42.1231Z" fill="#444444"/>
<path fill-rule="evenodd" clip-rule="evenodd" d="M142.485 40.8789C142.408 41.5422 142.095 41.9579 142.071 41.99C142.298 42.2677 143.118 43.7087 144.829 43.4649C144.829 43.4649 145.291 42.4855 144.152 41.7057C143.379 41.1778 143.015 41.0705 142.485 40.8789Z" fill="#444444"/>
<path fill-rule="evenodd" clip-rule="evenodd" d="M142.334 39.6484C142.791 39.766 143.385 39.8119 144.111 39.6365L144.306 39.5901L144.365 39.3945C145.243 40.128 146.286 40.2488 146.644 40.9087C146.644 40.9087 146.207 41.7399 145.069 41.6005C143.929 41.4619 143.071 40.9174 142.463 40.1357C142.44 40.0157 142.389 39.7984 142.334 39.6484Z" fill="#444444"/>
<path fill-rule="evenodd" clip-rule="evenodd" d="M144.309 38.6174C144.144 38.3726 144.033 37.992 143.691 37.6073C144.445 37.4753 145.128 37.4647 146.009 37.6359C147.061 37.8394 148.133 38.0925 148.669 39.7264C148.669 39.7264 147.993 40.3138 146.768 40.0587C145.73 39.8411 144.824 39.3832 144.309 38.6174Z" fill="#444444"/>
<path fill-rule="evenodd" clip-rule="evenodd" d="M144.753 36.8458C145.017 36.6124 145.258 36.3082 145.434 35.9128L145.524 35.7099C146.435 35.3293 147.384 35.1348 148.31 35.4886C149.24 35.8442 149.485 36.2544 149.72 36.6082C149.72 36.6082 148.692 37.4884 147.506 37.5226C146.322 37.5571 145.227 37.2091 144.753 36.8458Z" fill="#444444"/>
<path fill-rule="evenodd" clip-rule="evenodd" d="M144.476 34.935C144.321 34.8736 144.145 34.8182 143.946 34.7766C144.35 34.4138 144.746 33.8621 144.938 33.034C145.362 33.1358 146.356 33.1358 146.792 32.9641C147.228 32.7934 148.089 32.7823 148.758 33.2383C148.758 33.2383 148.537 34.4379 147.015 34.8495C145.586 35.2355 145.057 35.1359 144.476 34.935Z" fill="#444444"/>
<path fill-rule="evenodd" clip-rule="evenodd" d="M145.024 32.5898L144.824 32.4597C144.797 32.4414 144.457 32.2292 143.875 32.1833C144.366 31.81 145.528 30.8134 146.356 30.3353C147.254 29.8191 148.747 29.1358 149.508 29.0332C149.508 29.0332 148.796 30.9472 147.965 31.7172C147.105 32.5178 146.502 32.8148 145.024 32.5898Z" fill="#444444"/>
<path fill-rule="evenodd" clip-rule="evenodd" d="M143.488 31.7111C143.852 31.2268 144.14 30.5619 144.351 29.7757C144.523 29.1355 144.916 27.5485 145.15 27.137C145.384 26.7247 146.222 25.2848 147.864 24.8398C147.864 24.8398 148.3 26.7133 147.474 28.1985C146.76 29.4763 145.303 30.8258 143.488 31.7111Z" fill="#444444"/>
<path fill-rule="evenodd" clip-rule="evenodd" d="M134.387 40.431C134.178 40.6382 134.026 40.7558 133.661 40.9432C133.661 40.9432 133.136 41.965 133.77 43.1982C134.403 44.4325 134.941 45.6928 135.196 46.3905C135.196 46.3905 135.537 46.3406 135.914 44.4081C136.172 43.0988 136.495 42.7721 136.833 42.3251C136.466 42.5161 136.166 42.5749 136.141 42.5781L135.888 42.6221L135.77 42.3903C135.545 41.9459 135.479 41.5166 135.479 41.161C135.479 41.0433 135.487 40.9339 135.498 40.8356C134.908 40.8496 134.595 40.5457 134.474 40.3894C134.463 40.3745 134.455 40.3623 134.446 40.3496L134.387 40.431Z" fill="#444444"/>
<path fill-rule="evenodd" clip-rule="evenodd" d="M144.551 43.8549C145.767 45.0998 148.334 47.8909 148.091 50.921C148.091 50.921 145.708 50.1586 144.727 48.3716C143.746 46.5845 143.139 45.4652 142.726 45.0614C142.991 45.0987 143.254 45.0977 143.514 45.0563L143.731 45.02C144.335 46.1446 145.533 47.9902 146.612 48.6331C146.612 48.6331 146.886 47.1394 143.716 44.1117C143.671 43.9885 143.606 43.8477 143.519 43.6914C143.808 43.7966 144.138 43.8602 144.511 43.8509" fill="#444444"/>
<path fill-rule="evenodd" clip-rule="evenodd" d="M126.138 19.6959C126.138 19.4731 126.972 19.291 128 19.291C129.028 19.291 129.861 19.4731 129.861 19.6959C129.861 19.9201 129.028 20.1005 128 20.1005C126.972 20.1005 126.138 19.9201 126.138 19.6959Z" fill="#444444"/>
<path fill-rule="evenodd" clip-rule="evenodd" d="M119.819 21.8873C119.819 21.7643 120.356 21.666 121.02 21.666C121.681 21.666 122.218 21.7643 122.218 21.8873C122.218 22.0097 121.681 22.1088 121.02 22.1088C120.356 22.1088 119.819 22.0097 119.819 21.8873Z" fill="#444444"/>
<path fill-rule="evenodd" clip-rule="evenodd" d="M128.365 20.589C128.365 20.7962 128.202 20.9632 128 20.9632C127.797 20.9632 127.632 20.7962 127.632 20.589C127.632 20.3826 127.797 20.2148 128 20.2148C128.202 20.2148 128.365 20.3826 128.365 20.589Z" fill="#444444"/>
<path fill-rule="evenodd" clip-rule="evenodd" d="M126.004 19.3042C125.384 17.7928 124.97 16.6806 124.986 16.3065C124.998 16.0786 125.26 15.9125 125.507 15.8353C125.753 15.7569 125.973 15.7429 126.138 15.8701C126.46 16.1226 126.76 18.1608 126.871 19.008C126.556 19.0711 126.368 19.1105 126.004 19.3042Z" fill="#444444"/>
<path fill-rule="evenodd" clip-rule="evenodd" d="M127.135 18.9736C127.292 18.9572 127.454 18.9466 127.617 18.9413C127.518 18.1325 127.245 16.7832 127.083 16.2509C126.922 15.7196 126.716 15.337 126.376 15.2402C126.376 15.2402 126.64 15.9806 126.784 16.7475C126.929 17.5138 127.041 18.2467 127.135 18.9736Z" fill="#444444"/>
<path fill-rule="evenodd" clip-rule="evenodd" d="M125.175 21.6787C125.857 21.5123 126.556 20.7655 126.556 20.7655C125.455 20.929 125.175 21.6787 125.175 21.6787ZM126.197 21.6095C125.247 22.1779 124.178 22.0886 124.178 22.0886C124.383 21.7049 124.578 21.3482 125.175 20.9118C125.771 20.4762 126.742 20.3667 127.124 20.4211C127.038 20.7131 126.648 21.3392 126.197 21.6095Z" fill="#444444"/>
<path fill-rule="evenodd" clip-rule="evenodd" d="M122.644 23.212V23.1327C121.706 23.2551 120.599 23.2027 120.599 23.2027C120.658 23.5599 120.804 23.8307 121.05 23.9963C121.111 23.2207 122.644 23.212 122.644 23.212ZM119.535 22.1836C119.535 22.1836 120.718 22.6364 121.903 22.576C123.087 22.5148 125.268 22.4891 125.974 22.1406C125.974 22.1406 125.857 22.5935 125.294 22.8556C125.294 22.8556 125.593 22.8556 125.882 23.1166C125.882 23.1166 125.711 23.4905 125.209 23.6908C125.209 23.6908 126.111 24.649 127.075 24.5798C127.075 24.5798 126.63 25.1455 125.643 24.9269C124.656 24.7104 124.339 24.1442 124.169 23.9264C124.169 23.9264 124.297 24.4659 124.237 24.6845C124.237 24.6845 123.802 24.6574 123.462 24.2218C123.462 24.2218 123.71 24.6574 123.759 25.0239C123.759 25.0239 123.488 25.0586 123.001 24.7629C123.001 24.7629 123.103 25.0324 123.121 25.3456C123.121 25.3456 121.979 24.9709 121.425 24.4404C121.425 24.4404 121.417 24.8048 121.443 25.0154C121.443 25.0154 119.671 24.8321 119.535 22.1836Z" fill="#444444"/>
<path fill-rule="evenodd" clip-rule="evenodd" d="M119.263 22.3674C119.304 22.9417 119.45 23.5082 119.646 23.9086C119.646 23.9086 118.947 23.3699 118.777 22.917C118.605 22.4623 118.564 22.1504 119.263 22.3674Z" fill="#444444"/>
<path fill-rule="evenodd" clip-rule="evenodd" d="M117.864 24.5446C118.025 24.5446 118.154 24.4132 118.154 24.2499C118.154 24.0856 118.025 23.9526 117.864 23.9526C117.705 23.9526 117.575 24.0856 117.575 24.2499C117.575 24.4132 117.705 24.5446 117.864 24.5446ZM119.57 24.1975C120.037 24.4147 120.454 24.928 120.454 24.928C119.747 25.0944 119.431 25.303 119.431 25.303C118.077 24.3276 116.962 25.312 116.962 25.312C116.23 24.8851 116.085 23.8487 116.451 23.3002C116.818 22.7512 117.644 22.8479 118.035 22.942C118.283 23.7449 119.151 24.0038 119.57 24.1975Z" fill="#444444"/>
<path fill-rule="evenodd" clip-rule="evenodd" d="M120.607 25.1113C120.607 25.1113 121.103 25.7823 121.46 26.0777C121.46 26.0777 119.636 26.061 119.177 27.6729C119.177 27.6729 118.546 26.6875 119.007 26.0433C119.504 25.3474 119.96 25.2602 120.607 25.1113Z" fill="#444444"/>
<path fill-rule="evenodd" clip-rule="evenodd" d="M122.609 25.5096C122.609 25.5096 123.198 25.6845 123.393 25.7362C123.393 25.7362 123.402 25.388 123.386 25.2227C123.565 25.2656 123.784 25.3273 123.973 25.3435C123.973 25.3435 124.561 26.6851 125.021 27.2246C125.021 27.2246 125.046 27.5211 124.791 27.9737C124.791 27.9737 124.458 27.1817 123.862 26.5468C123.524 26.1867 123.308 26.0054 122.609 25.5096Z" fill="#444444"/>
<path fill-rule="evenodd" clip-rule="evenodd" d="M121.059 25.2227C121.248 25.2749 122.187 25.5761 122.644 25.9108C123.214 26.3282 123.607 26.8067 123.546 27.6335C123.546 27.6335 123.087 26.9816 122.576 26.6851C122.172 26.4509 121.443 25.7969 121.059 25.2227Z" fill="#444444"/>
<path fill-rule="evenodd" clip-rule="evenodd" d="M121.072 19.1582C121.247 19.1582 121.583 19.2422 121.583 19.5263C121.583 19.8135 121.147 20.5033 121.03 20.8114H121.02C120.902 20.5033 120.465 19.8135 120.465 19.5263C120.465 19.2422 120.804 19.1582 120.977 19.1582H121.072Z" fill="#444444"/>
<path fill-rule="evenodd" clip-rule="evenodd" d="M120.692 21.3852C120.609 20.9827 120.454 19.9378 120.211 19.7068C119.979 19.4868 119.64 19.4656 119.471 19.477C119.301 19.4868 119.121 19.667 119.192 19.9018C119.263 20.1374 120.018 21.2951 120.116 21.44C120.292 21.4104 120.257 21.4204 120.692 21.3852Z" fill="#444444"/>
<path fill-rule="evenodd" clip-rule="evenodd" d="M121.359 21.3852C121.443 20.9827 121.598 19.9378 121.841 19.7068C122.07 19.4868 122.412 19.4656 122.579 19.477C122.75 19.4868 122.931 19.667 122.858 19.9018C122.788 20.1374 122.033 21.2951 121.934 21.44C121.757 21.4104 121.793 21.4204 121.359 21.3852Z" fill="#444444"/>
<path fill-rule="evenodd" clip-rule="evenodd" d="M121.845 17.7533H121.256V17.0879H120.781V17.7533H120.191V18.1725H120.781V18.9563H121.256V18.1725H121.845V17.7533Z" fill="#444444"/>
<path fill-rule="evenodd" clip-rule="evenodd" d="M114.712 22.0455C114.713 21.9183 114.722 21.79 114.738 21.6629C114.784 21.3398 114.787 21.0624 114.752 20.834C114.33 20.9988 114.042 21.1048 113.46 22.067C113.46 22.067 114.389 21.4805 114.712 22.0455Z" fill="#444444"/>
<path fill-rule="evenodd" clip-rule="evenodd" d="M115.525 23.5711C115.537 23.3315 115.69 22.5774 115.883 22.0442C116.122 21.3929 115.986 20.4437 115.7 19.8695C115.423 19.3144 115.271 18.7923 115.32 18.2168C115.32 18.2168 114.769 18.4055 114.452 18.605C114.401 19.2728 114.781 19.9387 114.964 20.3192C115.178 20.7683 115.134 21.3516 115.086 21.7098C115.005 22.3158 115.127 22.9645 115.525 23.5711Z" fill="#444444"/>
<path fill-rule="evenodd" clip-rule="evenodd" d="M115.588 18.4679C115.567 18.3943 115.567 18.1836 115.607 18.0993C115.607 18.0993 116.473 17.236 117.204 17.0882C117.664 16.9941 117.95 17.2026 118.084 17.3187C118.084 17.3187 117.826 17.2869 117.439 17.6107C117.05 17.9345 116.567 18.3243 116.2 18.4226C115.839 18.5193 115.762 18.4897 115.588 18.4679Z" fill="#444444"/>
<path fill-rule="evenodd" clip-rule="evenodd" d="M118.154 17.3848C118.483 17.7192 118.756 18.0711 118.751 18.3763C118.745 18.6941 118.385 19.4874 118.197 19.7916C118.008 20.0963 117.732 20.4904 117.764 20.9734C117.781 21.2143 117.944 21.4621 118.138 21.6651C118.138 21.6651 117.077 21.4075 116.947 20.7371C116.832 20.1374 117.082 19.7166 117.252 19.3843C117.411 19.073 117.901 18.3445 118.025 18.0406C118.136 17.7661 118.196 17.5363 118.154 17.3848Z" fill="#444444"/>
<path fill-rule="evenodd" clip-rule="evenodd" d="M124.361 24.9395C124.574 25.7055 124.934 26.426 125.29 26.9939C125.609 27.5074 125.813 28.349 125.782 28.6339C125.782 28.6339 126.262 27.5514 126.016 26.7861C125.826 26.1947 125.31 25.3123 124.361 24.9395Z" fill="#444444"/>
<path fill-rule="evenodd" clip-rule="evenodd" d="M125.557 25.1914C125.557 25.1914 126.283 25.2015 126.625 25.4312C127.064 25.7277 127.48 26.3719 127.639 27.1465C127.639 27.1465 126.903 27.0164 126.539 26.6451C126.177 26.2731 125.728 25.7166 125.557 25.1914Z" fill="#444444"/>
<path fill-rule="evenodd" clip-rule="evenodd" d="M121.785 26.5352C121.645 26.5473 121.271 26.6343 121.089 26.6894C121.089 26.6894 121.711 26.8746 122.02 27.1364C122.283 27.3582 122.511 27.7035 122.618 28.2835C122.769 29.0917 123.235 29.9662 123.375 30.2282L123.431 30.2163C123.344 29.6596 123.686 28.5027 123.772 28.3381C123.772 28.3381 123.282 28.0212 123.056 27.6929C122.89 27.4517 122.597 27.0495 121.785 26.5352Z" fill="#444444"/>
<path fill-rule="evenodd" clip-rule="evenodd" d="M125.013 28.2734C125.193 28.699 125.675 29.4524 125.45 30.2388C125.224 31.0261 124.724 31.3639 124.412 32.0301C124.412 32.0301 124.166 30.8284 124.221 29.8999C124.274 28.9719 124.606 28.6121 125.013 28.2734Z" fill="#444444"/>
<path fill-rule="evenodd" clip-rule="evenodd" d="M126.411 28.3066C126.411 28.3066 127.135 29.7418 127.267 30.3062C127.394 30.8619 127.277 31.2339 127.03 31.572C126.784 31.9107 126.368 32.2729 125.984 32.982C125.984 32.982 125.537 32.3813 125.481 32.0644C125.428 31.7475 125.513 30.9936 125.611 30.6767C125.706 30.3605 126.09 29.3443 126.411 28.3066Z" fill="#444444"/>
<path fill-rule="evenodd" clip-rule="evenodd" d="M126.784 32.8906C126.623 33.066 125.778 34.105 125.663 34.409C125.55 34.7132 125.354 35.2861 125.617 35.6828C125.882 36.0797 126.483 36.7175 127.01 36.987C127.01 36.987 126.439 36.0741 126.498 35.3256C126.535 34.8475 126.896 34.4212 126.965 34.1284C127.034 33.8377 126.989 33.3461 126.784 32.8906Z" fill="#444444"/>
<path fill-rule="evenodd" clip-rule="evenodd" d="M125.126 32.3145C125.256 32.4989 125.484 32.9459 125.513 33.3829C125.544 33.8108 125.477 34.1574 125.247 34.7881C124.958 35.5817 124.508 36.4665 124.301 36.8632C124.301 36.8632 123.902 36.2826 123.683 35.7643C123.683 35.7643 124.305 34.8957 124.569 34.279C124.876 33.5556 125.006 32.8844 125.126 32.3145Z" fill="#444444"/>
<path fill-rule="evenodd" clip-rule="evenodd" d="M124.837 31.9785C124.837 31.9785 124.57 34.0215 123.394 35.5402C122.598 36.5678 121.951 36.9244 121.523 36.9244C120.877 36.9244 120.229 36.3741 120.009 35.7447C119.791 35.1143 119.86 34.1371 120.278 33.7905C120.278 33.7905 120.667 35.0168 121.493 35.0613C122.428 35.1143 123.634 34.0446 124.837 31.9785Z" fill="#444444"/>
<path fill-rule="evenodd" clip-rule="evenodd" d="M123.873 31.125C123.972 31.4907 124.002 32.0514 123.873 32.5806C123.774 32.9809 123.535 33.5077 123.076 33.8013C122.679 34.0547 121.742 34.1167 121.383 33.2107C121.383 33.2107 123.095 33.3429 123.873 31.125Z" fill="#444444"/>
<path fill-rule="evenodd" clip-rule="evenodd" d="M126.674 39.3652C126.909 39.9792 127.747 40.7561 127.742 41.2358C127.727 42.5074 127.185 43.2865 127.056 43.7057C127.056 43.7057 126.059 42.8972 125.882 41.9687C125.793 41.4954 125.897 40.0688 126.674 39.3652Z" fill="#444444"/>
<path fill-rule="evenodd" clip-rule="evenodd" d="M125.561 40.2627C125.678 39.9339 126.043 39.0356 126.467 38.7216C126.467 38.7216 127.011 37.0893 125.267 36.0879C125.267 36.0879 124.551 37.0604 124.361 37.9733C124.169 38.8864 125.121 39.4397 125.561 40.2627Z" fill="#444444"/>
<path fill-rule="evenodd" clip-rule="evenodd" d="M123.381 36.1484C123.101 36.4913 122.705 36.9709 122.398 37.1201C122.398 37.1201 122.295 37.8491 122.353 38.3324C122.442 39.0508 122.895 39.7848 123.087 40.3241C123.087 40.3241 123.848 39.3063 123.937 38.7071C124.023 38.108 124.008 37.6146 124.039 37.3303C124.039 37.3303 123.614 36.6257 123.381 36.1484Z" fill="#444444"/>
<path fill-rule="evenodd" clip-rule="evenodd" d="M121.372 39.6386C121.157 39.3042 120.457 38.0686 120.447 37.1719C120.447 37.1719 121.308 37.6382 122.027 37.2969C122.027 37.2969 122.122 38.4626 121.983 38.8577C121.871 39.1781 121.721 39.3697 121.372 39.6386Z" fill="#444444"/>
<path fill-rule="evenodd" clip-rule="evenodd" d="M121.571 39.8892C121.711 39.7652 122.053 39.4419 122.193 39.2715C122.193 39.2715 122.763 40.3394 122.86 40.6526C122.86 40.6526 122.575 40.727 122.262 40.4944C121.949 40.2607 121.877 40.2021 121.571 39.8892Z" fill="#444444"/>
<path fill-rule="evenodd" clip-rule="evenodd" d="M124.212 39.2637C124.142 39.534 123.22 40.8424 123.061 41.0038C123.061 41.0038 123.133 41.4787 123.474 42.1605C123.816 42.842 124.29 43.3182 124.543 43.5604C124.543 43.5604 125.112 42.5455 125.282 42.0982C125.473 41.5871 125.452 41.0833 125.368 40.8968C125.176 40.4569 124.508 39.8201 124.212 39.2637Z" fill="#444444"/>
<path fill-rule="evenodd" clip-rule="evenodd" d="M125.597 42.6895C125.798 43.1113 126.415 43.8016 126.51 44.3472C126.584 44.7773 126.518 45.1276 126.404 45.4241C126.29 45.7195 125.922 46.2946 125.675 46.7342C125.675 46.7342 124.834 45.9236 124.649 45.343C124.508 44.905 124.562 44.2844 124.764 43.8994C124.965 43.5138 125.405 43.0914 125.597 42.6895Z" fill="#444444"/>
<path fill-rule="evenodd" clip-rule="evenodd" d="M123.211 42.5723C123.431 43.0572 123.95 43.5437 124.071 43.9711C124.21 44.4735 124.254 44.7955 124.02 45.3798C123.808 45.8962 123.552 46.1954 123.465 46.5091C123.465 46.5091 122.78 45.605 122.668 45.2277C122.553 44.8503 122.517 44.2313 122.658 43.8376C122.799 43.4422 123.044 42.9297 123.211 42.5723Z" fill="#444444"/>
<path fill-rule="evenodd" clip-rule="evenodd" d="M126.579 46.0176C126.579 46.0176 125.403 47.4707 125.43 48.2408C125.465 49.2014 126.088 49.8381 126.177 50.4306C126.177 50.4306 126.792 49.717 127.027 49.2382C127.29 48.6989 127.492 48.2419 127.423 47.6321C127.352 47.0227 127.193 46.6286 126.579 46.0176Z" fill="#444444"/>
<path fill-rule="evenodd" clip-rule="evenodd" d="M124.412 45.873C124.598 46.1513 125.124 47.101 124.974 47.6667C124.826 48.2319 124.246 49.029 124.054 49.3706C124.054 49.3706 123.588 48.3928 123.482 47.9447C123.379 47.4966 123.474 46.7703 124.412 45.873Z" fill="#444444"/>
<path fill-rule="evenodd" clip-rule="evenodd" d="M136.178 21.8873C136.178 21.7643 135.643 21.666 134.98 21.666C134.319 21.666 133.782 21.7643 133.782 21.8873C133.782 22.0097 134.319 22.1088 134.98 22.1088C135.643 22.1088 136.178 22.0097 136.178 21.8873Z" fill="#444444"/>
<path fill-rule="evenodd" clip-rule="evenodd" d="M128.011 18.1255C128.088 17.5767 128.711 16.4086 128.711 15.8964C128.711 15.4947 128.393 15.168 128 15.168C127.606 15.168 127.287 15.4947 127.287 15.8964C127.287 16.4086 127.911 17.5767 127.987 18.1255H128.011Z" fill="#444444"/>
<path fill-rule="evenodd" clip-rule="evenodd" d="M129.995 19.3042C130.617 17.7928 131.029 16.6806 131.012 16.3065C131.001 16.0786 130.74 15.9125 130.492 15.8353C130.244 15.7569 130.024 15.7429 129.862 15.8701C129.539 16.1226 129.239 18.1608 129.128 19.008C129.443 19.0711 129.633 19.1105 129.995 19.3042Z" fill="#444444"/>
<path fill-rule="evenodd" clip-rule="evenodd" d="M128.865 18.9736C128.707 18.9572 128.546 18.9466 128.385 18.9413C128.482 18.1325 128.754 16.7832 128.916 16.2509C129.078 15.7196 129.283 15.337 129.623 15.2402C129.623 15.2402 129.359 15.9806 129.214 16.7475C129.07 17.5138 128.959 18.2467 128.865 18.9736Z" fill="#444444"/>
<path fill-rule="evenodd" clip-rule="evenodd" d="M129.445 20.7655C129.445 20.7655 130.142 21.5123 130.826 21.6787C130.826 21.6787 130.543 20.929 129.445 20.7655ZM128.874 20.4211C129.256 20.3667 130.229 20.4762 130.826 20.9118C131.422 21.3482 131.616 21.7049 131.821 22.0886C131.821 22.0886 130.752 22.1779 129.801 21.6095C129.352 21.3392 128.962 20.7131 128.874 20.4211Z" fill="#444444"/>
<path fill-rule="evenodd" clip-rule="evenodd" d="M134.949 23.9963C135.196 23.8307 135.34 23.5599 135.398 23.2027C135.398 23.2027 134.293 23.2551 133.356 23.1327V23.212C133.356 23.212 134.889 23.2207 134.949 23.9963ZM134.556 25.0154C134.583 24.8048 134.574 24.4404 134.574 24.4404C134.02 24.9709 132.878 25.3456 132.878 25.3456C132.895 25.0324 132.998 24.7629 132.998 24.7629C132.512 25.0586 132.238 25.0239 132.238 25.0239C132.289 24.6574 132.537 24.2218 132.537 24.2218C132.197 24.6574 131.762 24.6845 131.762 24.6845C131.702 24.4659 131.83 23.9264 131.83 23.9264C131.66 24.1442 131.344 24.7104 130.356 24.9269C129.367 25.1455 128.924 24.5798 128.924 24.5798C129.888 24.649 130.791 23.6908 130.791 23.6908C130.288 23.4905 130.117 23.1166 130.117 23.1166C130.407 22.8556 130.705 22.8556 130.705 22.8556C130.142 22.5935 130.024 22.1406 130.024 22.1406C130.731 22.4891 132.912 22.5148 134.097 22.576C135.281 22.6364 136.465 22.1836 136.465 22.1836C136.328 24.8321 134.556 25.0154 134.556 25.0154Z" fill="#444444"/>
<path fill-rule="evenodd" clip-rule="evenodd" d="M136.737 22.3674C136.695 22.9417 136.55 23.5082 136.354 23.9086C136.354 23.9086 137.051 23.3699 137.222 22.917C137.393 22.4623 137.436 22.1504 136.737 22.3674Z" fill="#444444"/>
<path fill-rule="evenodd" clip-rule="evenodd" d="M138.424 24.2499C138.424 24.0856 138.294 23.9526 138.133 23.9526C137.976 23.9526 137.844 24.0856 137.844 24.2499C137.844 24.4132 137.976 24.5446 138.133 24.5446C138.294 24.5446 138.424 24.4132 138.424 24.2499ZM137.963 22.942C138.356 22.8479 139.182 22.7512 139.547 23.3002C139.914 23.8487 139.77 24.8851 139.039 25.312C139.039 25.312 137.92 24.3276 136.568 25.303C136.568 25.303 136.251 25.0944 135.544 24.928C135.544 24.928 135.961 24.4147 136.43 24.1975C136.848 24.0038 137.715 23.7449 137.963 22.942Z" fill="#444444"/>
<path fill-rule="evenodd" clip-rule="evenodd" d="M135.392 25.1113C135.392 25.1113 134.897 25.7823 134.54 26.0777C134.54 26.0777 136.362 26.061 136.823 27.6729C136.823 27.6729 137.453 26.6875 136.992 26.0433C136.497 25.3474 136.038 25.2602 135.392 25.1113Z" fill="#444444"/>
<path fill-rule="evenodd" clip-rule="evenodd" d="M133.389 25.5096C133.389 25.5096 132.801 25.6845 132.606 25.7362C132.606 25.7362 132.597 25.388 132.614 25.2227C132.435 25.2656 132.213 25.3273 132.026 25.3435C132.026 25.3435 131.439 26.6851 130.979 27.2246C130.979 27.2246 130.953 27.5211 131.209 27.9737C131.209 27.9737 131.54 27.1817 132.137 26.5468C132.475 26.1867 132.691 26.0054 133.389 25.5096Z" fill="#444444"/>
<path fill-rule="evenodd" clip-rule="evenodd" d="M134.941 25.2227C134.752 25.2749 133.811 25.5761 133.356 25.9108C132.784 26.3282 132.392 26.8067 132.451 27.6335C132.451 27.6335 132.913 26.9816 133.422 26.6851C133.828 26.4509 134.556 25.7969 134.941 25.2227Z" fill="#444444"/>
<path fill-rule="evenodd" clip-rule="evenodd" d="M134.928 19.1582C134.753 19.1582 134.415 19.2422 134.415 19.5263C134.415 19.8135 134.853 20.5033 134.969 20.8114H134.98C135.096 20.5033 135.534 19.8135 135.534 19.5263C135.534 19.2422 135.196 19.1582 135.02 19.1582H134.928Z" fill="#444444"/>
<path fill-rule="evenodd" clip-rule="evenodd" d="M135.308 21.3852C135.39 20.9827 135.545 19.9378 135.789 19.7068C136.019 19.4868 136.358 19.4656 136.529 19.477C136.699 19.4868 136.879 19.667 136.808 19.9018C136.737 20.1374 135.98 21.2951 135.882 21.44C135.707 21.4104 135.742 21.4204 135.308 21.3852Z" fill="#444444"/>
<path fill-rule="evenodd" clip-rule="evenodd" d="M134.639 21.3852C134.557 20.9827 134.402 19.9378 134.158 19.7068C133.927 19.4868 133.588 19.4656 133.418 19.477C133.249 19.4868 133.068 19.667 133.14 19.9018C133.211 20.1374 133.965 21.2951 134.065 21.44C134.241 21.4104 134.206 21.4204 134.639 21.3852Z" fill="#444444"/>
<path fill-rule="evenodd" clip-rule="evenodd" d="M134.155 17.7533H134.742V17.0879H135.217V17.7533H135.808V18.1725H135.217V18.9563H134.742V18.1725H134.155V17.7533Z" fill="#444444"/>
<path fill-rule="evenodd" clip-rule="evenodd" d="M127.087 13.8174H127.674V13.1504H128.149V13.8174H128.74V14.2368H128.149V15.0191H127.674V14.2368H127.087V13.8174Z" fill="#444444"/>
<path fill-rule="evenodd" clip-rule="evenodd" d="M141.287 22.0455C141.287 21.9183 141.277 21.79 141.26 21.6629C141.217 21.3398 141.212 21.0624 141.247 20.834C141.67 20.9988 141.957 21.1048 142.539 22.067C142.539 22.067 141.61 21.4805 141.287 22.0455Z" fill="#444444"/>
<path fill-rule="evenodd" clip-rule="evenodd" d="M140.473 23.5711C140.462 23.3315 140.309 22.5774 140.116 22.0442C139.878 21.3929 140.013 20.4437 140.299 19.8695C140.576 19.3144 140.73 18.7923 140.678 18.2168C140.678 18.2168 141.23 18.4055 141.547 18.605C141.599 19.2728 141.217 19.9387 141.036 20.3192C140.821 20.7683 140.865 21.3516 140.913 21.7098C140.995 22.3158 140.872 22.9645 140.473 23.5711Z" fill="#444444"/>
<path fill-rule="evenodd" clip-rule="evenodd" d="M140.412 18.4679C140.433 18.3943 140.432 18.1836 140.392 18.0993C140.392 18.0993 139.526 17.236 138.797 17.0882C138.335 16.9941 138.049 17.2026 137.916 17.3187C137.916 17.3187 138.172 17.2869 138.56 17.6107C138.949 17.9345 139.43 18.3243 139.798 18.4226C140.159 18.5193 140.239 18.4897 140.412 18.4679Z" fill="#444444"/>
<path fill-rule="evenodd" clip-rule="evenodd" d="M137.843 17.3848C137.516 17.7192 137.242 18.0711 137.248 18.3763C137.255 18.6941 137.612 19.4874 137.803 19.7916C137.993 20.0963 138.268 20.4904 138.235 20.9734C138.216 21.2143 138.055 21.4621 137.862 21.6651C137.862 21.6651 138.924 21.4075 139.054 20.7371C139.168 20.1374 138.918 19.7166 138.748 19.3843C138.588 19.073 138.099 18.3445 137.976 18.0406C137.864 17.7661 137.804 17.5363 137.843 17.3848Z" fill="#444444"/>
<path fill-rule="evenodd" clip-rule="evenodd" d="M131.64 24.9395C131.427 25.7055 131.065 26.426 130.711 26.9939C130.389 27.5074 130.186 28.349 130.219 28.6339C130.219 28.6339 129.738 27.5514 129.984 26.7861C130.174 26.1947 130.687 25.3123 131.64 24.9395Z" fill="#444444"/>
<path fill-rule="evenodd" clip-rule="evenodd" d="M130.442 25.1914C130.442 25.1914 129.715 25.2015 129.374 25.4312C128.937 25.7277 128.519 26.3719 128.36 27.1465C128.36 27.1465 129.097 27.0164 129.46 26.6451C129.822 26.2731 130.272 25.7166 130.442 25.1914Z" fill="#444444"/>
<path fill-rule="evenodd" clip-rule="evenodd" d="M134.215 26.5352C134.354 26.5473 134.727 26.6343 134.908 26.6894C134.908 26.6894 134.288 26.8746 133.98 27.1364C133.716 27.3582 133.488 27.7035 133.383 28.2835C133.231 29.0917 132.764 29.9662 132.624 30.2282L132.569 30.2163C132.655 29.6596 132.312 28.5027 132.227 28.3381C132.227 28.3381 132.719 28.0212 132.944 27.6929C133.108 27.4517 133.403 27.0495 134.215 26.5352Z" fill="#444444"/>
<path fill-rule="evenodd" clip-rule="evenodd" d="M130.988 28.2734C130.806 28.699 130.326 29.4524 130.549 30.2388C130.773 31.0261 131.276 31.3639 131.586 32.0301C131.586 32.0301 131.832 30.8284 131.778 29.8999C131.725 28.9719 131.394 28.6121 130.988 28.2734Z" fill="#444444"/>
<path fill-rule="evenodd" clip-rule="evenodd" d="M128.01 30.4743C128.04 30.0161 129.085 28.9056 129.032 28.3051C128.978 27.7044 128.197 27.2783 128.004 27.1914H127.995C127.802 27.2783 127.021 27.7044 126.967 28.3051C126.914 28.9056 127.957 30.0161 127.989 30.4743H128.01Z" fill="#444444"/>
<path fill-rule="evenodd" clip-rule="evenodd" d="M129.587 28.3066C129.587 28.3066 128.863 29.7418 128.732 30.3062C128.606 30.8619 128.722 31.2339 128.969 31.572C129.214 31.9107 129.63 32.2729 130.016 32.982C130.016 32.982 130.464 32.3813 130.518 32.0644C130.57 31.7475 130.486 30.9936 130.389 30.6767C130.293 30.3605 129.908 29.3443 129.587 28.3066Z" fill="#444444"/>
<path fill-rule="evenodd" clip-rule="evenodd" d="M128.007 33.8597C128.339 33.5669 128.633 33.1347 128.725 32.8772C128.816 32.6207 128.843 32.2431 128.622 31.9563C128.36 31.6121 128.029 31.2295 128.007 30.916H127.991C127.967 31.2295 127.639 31.6121 127.376 31.9563C127.156 32.2431 127.183 32.6207 127.275 32.8772C127.366 33.1347 127.664 33.5669 127.995 33.8597H128.007Z" fill="#444444"/>
<path fill-rule="evenodd" clip-rule="evenodd" d="M129.216 32.8906C129.376 33.066 130.221 34.105 130.336 34.409C130.449 34.7132 130.644 35.2861 130.38 35.6828C130.118 36.0797 129.516 36.7175 128.99 36.987C128.99 36.987 129.559 36.0741 129.503 35.3256C129.465 34.8475 129.103 34.4212 129.034 34.1284C128.965 33.8377 129.012 33.3461 129.216 32.8906Z" fill="#444444"/>
<path fill-rule="evenodd" clip-rule="evenodd" d="M130.873 32.3145C130.742 32.4989 130.515 32.9459 130.485 33.3829C130.454 33.8108 130.523 34.1574 130.755 34.7881C131.043 35.5817 131.49 36.4665 131.7 36.8632C131.7 36.8632 132.097 36.2826 132.316 35.7643C132.316 35.7643 131.693 34.8957 131.43 34.279C131.121 33.5556 130.993 32.8844 130.873 32.3145Z" fill="#444444"/>
<path fill-rule="evenodd" clip-rule="evenodd" d="M131.162 31.9785C131.162 31.9785 131.429 34.0215 132.605 35.5402C133.401 36.5678 134.047 36.9244 134.476 36.9244C135.123 36.9244 135.77 36.3741 135.989 35.7447C136.208 35.1143 136.138 34.1371 135.72 33.7905C135.72 33.7905 135.332 35.0168 134.506 35.0613C133.569 35.1143 132.365 34.0446 131.162 31.9785Z" fill="#444444"/>
<path fill-rule="evenodd" clip-rule="evenodd" d="M132.127 31.125C132.028 31.4907 131.998 32.0514 132.127 32.5806C132.225 32.9809 132.465 33.5077 132.923 33.8013C133.321 34.0547 134.256 34.1167 134.615 33.2107C134.615 33.2107 132.904 33.3429 132.127 31.125Z" fill="#444444"/>
<path fill-rule="evenodd" clip-rule="evenodd" d="M128 37.192C128.242 37.0741 128.447 36.9848 128.726 36.5513C128.945 36.2097 129.152 35.5788 129.034 35.1305C128.889 34.5753 128.593 34.3517 128.418 34.0059C128.272 34.1423 128.184 34.2494 128.007 34.3554H127.997C127.821 34.2494 127.727 34.1423 127.58 34.0059C127.405 34.3517 127.11 34.5753 126.965 35.1305C126.851 35.5788 127.056 36.2097 127.274 36.5513C127.552 36.9848 127.757 37.0741 127.999 37.192H128Z" fill="#444444"/>
<path fill-rule="evenodd" clip-rule="evenodd" d="M128 40.6378C128.118 40.0983 129.224 39.0508 129.121 38.4821C128.969 37.6294 128.431 37.8096 128.007 37.4492H127.999C127.572 37.8096 127.03 37.6294 126.878 38.4821C126.777 39.0508 127.876 40.0983 127.995 40.6378H128Z" fill="#444444"/>
<path fill-rule="evenodd" clip-rule="evenodd" d="M129.327 39.3652C129.092 39.9792 128.252 40.7561 128.257 41.2358C128.272 42.5074 128.814 43.2865 128.945 43.7057C128.945 43.7057 129.94 42.8972 130.116 41.9687C130.205 41.4954 130.102 40.0688 129.327 39.3652Z" fill="#444444"/>
<path fill-rule="evenodd" clip-rule="evenodd" d="M130.438 40.2627C130.32 39.9339 129.955 39.0356 129.532 38.7216C129.532 38.7216 128.99 37.0893 130.731 36.0879C130.731 36.0879 131.448 37.0604 131.64 37.9733C131.83 38.8864 130.88 39.4397 130.438 40.2627Z" fill="#444444"/>
<path fill-rule="evenodd" clip-rule="evenodd" d="M132.62 36.1484C132.898 36.4913 133.294 36.9709 133.601 37.1201C133.601 37.1201 133.703 37.8491 133.645 38.3324C133.556 39.0508 133.104 39.7848 132.913 40.3241C132.913 40.3241 132.151 39.3063 132.062 38.7071C131.975 38.108 131.991 37.6146 131.96 37.3303C131.96 37.3303 132.385 36.6257 132.62 36.1484Z" fill="#444444"/>
<path fill-rule="evenodd" clip-rule="evenodd" d="M134.628 39.6386C134.842 39.3042 135.544 38.0686 135.552 37.1719C135.552 37.1719 134.691 37.6382 133.972 37.2969C133.972 37.2969 133.876 38.4626 134.018 38.8577C134.129 39.1781 134.278 39.3697 134.628 39.6386Z" fill="#444444"/>
<path fill-rule="evenodd" clip-rule="evenodd" d="M134.43 39.8892C134.288 39.7652 133.945 39.4419 133.805 39.2715C133.805 39.2715 133.236 40.3394 133.139 40.6526C133.139 40.6526 133.424 40.727 133.737 40.4944C134.049 40.2607 134.121 40.2021 134.43 39.8892Z" fill="#444444"/>
<path fill-rule="evenodd" clip-rule="evenodd" d="M131.788 39.2637C131.858 39.534 132.781 40.8424 132.937 41.0038C132.937 41.0038 132.867 41.4787 132.525 42.1605C132.182 42.842 131.71 43.3182 131.455 43.5604C131.455 43.5604 130.886 42.5455 130.717 42.0982C130.525 41.5871 130.549 41.0833 130.63 40.8968C130.823 40.4569 131.49 39.8201 131.788 39.2637Z" fill="#444444"/>
<path fill-rule="evenodd" clip-rule="evenodd" d="M128.85 45.6056C128.981 45.2359 128.976 44.8043 128.831 44.5093C128.666 44.1688 128.069 43.3272 128 43.084C127.925 43.3272 127.335 44.1688 127.167 44.5093C127.023 44.8043 127.018 45.2359 127.15 45.6056C127.372 46.228 127.903 46.6525 127.991 47.0118H128.007C128.095 46.6525 128.627 46.228 128.85 45.6056Z" fill="#444444"/>
<path fill-rule="evenodd" clip-rule="evenodd" d="M130.402 42.6895C130.2 43.1113 129.585 43.8016 129.49 44.3472C129.414 44.7773 129.482 45.1276 129.594 45.4241C129.707 45.7195 130.078 46.2946 130.323 46.7342C130.323 46.7342 131.164 45.9236 131.349 45.343C131.49 44.905 131.439 44.2844 131.236 43.8994C131.033 43.5138 130.596 43.0914 130.402 42.6895Z" fill="#444444"/>
<path fill-rule="evenodd" clip-rule="evenodd" d="M132.789 42.5723C132.569 43.0572 132.047 43.5437 131.928 43.9711C131.788 44.4735 131.744 44.7955 131.981 45.3798C132.191 45.8962 132.446 46.1954 132.534 46.5091C132.534 46.5091 133.218 45.605 133.332 45.2277C133.448 44.8503 133.482 44.2313 133.342 43.8376C133.2 43.4422 132.955 42.9297 132.789 42.5723Z" fill="#444444"/>
<path fill-rule="evenodd" clip-rule="evenodd" d="M128 53.9538C128.043 53.5113 128.938 52.1424 128.981 50.6884C129.003 49.9623 128.367 48.8237 128.007 48.3926H127.989C127.628 48.8237 126.997 49.9623 127.018 50.6884C127.062 52.1424 127.953 53.5113 127.997 53.9538H128Z" fill="#444444"/>
<path fill-rule="evenodd" clip-rule="evenodd" d="M129.419 46.0176C129.419 46.0176 130.597 47.4707 130.569 48.2408C130.535 49.2014 129.911 49.8381 129.822 50.4306C129.822 50.4306 129.207 49.717 128.971 49.2382C128.709 48.6989 128.506 48.2419 128.578 47.6321C128.648 47.0227 128.805 46.6286 129.419 46.0176Z" fill="#444444"/>
<path fill-rule="evenodd" clip-rule="evenodd" d="M131.586 45.873C131.401 46.1513 130.877 47.101 131.025 47.6667C131.174 48.2319 131.754 49.029 131.946 49.3706C131.946 49.3706 132.411 48.3928 132.516 47.9447C132.621 47.4966 132.525 46.7703 131.586 45.873Z" fill="#444444"/>
<path fill-rule="evenodd" clip-rule="evenodd" d="M128.805 56.2853C128.876 55.1559 129.503 54.4794 129.612 53.8914C129.735 53.2462 129.692 52.6277 129.201 51.8828C128.805 53.2724 128.367 54.287 128.025 54.9855C128.016 55.0027 128.008 55.0223 128 55.043C127.991 55.0223 127.984 55.0027 127.976 54.9855C127.632 54.287 127.193 53.2724 126.798 51.8828C126.308 52.6277 126.265 53.2462 126.386 53.8914C126.499 54.4794 127.124 55.1559 127.193 56.2853C127.264 57.4159 126.019 57.8481 126.019 57.8481C126.439 58.0008 126.917 58.0697 127.676 57.3346C127.816 57.2002 127.921 57.0537 128 56.8995C128.079 57.0537 128.184 57.2002 128.324 57.3346C129.082 58.0697 129.559 58.0008 129.98 57.8481C129.98 57.8481 128.735 57.4159 128.805 56.2853Z" fill="#444444"/>
<path fill-rule="evenodd" clip-rule="evenodd" d="M124.886 48.7715C125.017 49.1939 125.405 49.9732 125.454 50.2127C125.548 50.6606 125.422 51.203 124.623 51.7796C124.623 51.7796 124.105 51.411 123.901 50.9229C123.71 50.4668 123.822 50.147 124.021 49.9112C124.219 49.674 124.688 49.126 124.886 48.7715Z" fill="#444444"/>
<path fill-rule="evenodd" clip-rule="evenodd" d="M126.566 50.4434C126.566 50.6705 126.4 51.9493 126.045 52.5839C125.548 53.475 124.812 54.1386 124.171 54.1386C123.576 54.1386 123.451 53.7769 123.155 53.6282C123.155 53.6282 123.306 52.8545 123.973 52.6502C124.796 52.4011 126.056 51.3925 126.566 50.4434Z" fill="#444444"/>
<path fill-rule="evenodd" clip-rule="evenodd" d="M124.423 52.0742C124.285 51.9661 124.165 51.8917 123.999 51.6953C123.999 51.6953 123.365 51.9359 122.844 52.2947C122.322 52.653 121.81 53.263 121.534 53.5828C121.534 53.5828 122.317 53.7895 122.812 53.5595C122.812 53.5595 122.993 52.7963 123.549 52.4556C123.672 52.3811 124.061 52.2653 124.423 52.0742Z" fill="#444444"/>
<path fill-rule="evenodd" clip-rule="evenodd" d="M123.772 51.4196C123.651 51.2283 123.404 50.8738 123.458 50.3184C123.458 50.3184 122.36 51.0269 122.03 51.2996C121.699 51.5733 121.015 52.2965 120.862 52.5344C120.862 52.5344 121.692 52.3503 122.33 52.1324C123.03 51.8932 123.514 51.5733 123.772 51.4196Z" fill="#444444"/>
<path fill-rule="evenodd" clip-rule="evenodd" d="M121.912 52.6348C121.321 52.8497 119.989 53.0707 119.434 53.2387C118.875 53.4069 118.472 53.7011 117.94 54.2962C117.94 54.2962 118.757 54.5281 119.193 54.6709C119.193 54.6709 119.889 54.1849 120.65 53.8873C121.144 53.6936 121.387 53.161 121.912 52.6348Z" fill="#444444"/>
<path fill-rule="evenodd" clip-rule="evenodd" d="M120.675 56.6468C120.803 56.505 120.963 56.3378 120.84 55.9997C120.751 55.7524 120.27 55.4811 119.978 55.3377C119.502 55.1059 118.178 54.7437 117.747 54.6133C117.747 54.6133 117.532 54.8711 117.417 55.1438C117.366 55.2487 117.434 55.3576 117.62 55.3907C117.988 55.4554 118.875 55.2866 119.091 55.4289C119.325 55.5847 119.243 55.7933 119.243 55.9997C119.243 55.9997 119.648 55.7487 119.902 55.8052C120.257 55.8834 120.472 56.0521 120.675 56.6468Z" fill="#444444"/>
<path fill-rule="evenodd" clip-rule="evenodd" d="M119.497 54.7669C119.592 54.7995 120.108 54.9612 120.611 55.2871C120.611 55.2871 120.835 55.1981 120.944 54.9885C121.05 54.7876 121.504 54.104 121.918 54.012C121.918 54.012 121.565 53.9773 121.363 53.9121C121.363 53.9121 120.932 54.0258 120.627 54.1517C120.321 54.2788 119.94 54.471 119.497 54.7669Z" fill="#444444"/>
<path fill-rule="evenodd" clip-rule="evenodd" d="M122.911 53.9023C122.83 53.9408 122.697 54.0049 122.388 54.0179C122.388 54.0179 121.222 54.8444 121.086 55.6658C120.97 56.3712 121.333 56.708 121.507 56.7976C121.684 56.8877 122.496 57.2287 123.025 56.1155C123.025 56.1155 122.123 56.4181 121.879 55.9743C121.634 55.5312 122.03 54.8862 122.276 54.7005C122.597 54.4546 123.177 54.2879 123.527 54.3531C123.527 54.3531 123.245 54.0767 122.911 53.9023Z" fill="#444444"/>
<path fill-rule="evenodd" clip-rule="evenodd" d="M115.285 63.3485C115.427 62.7441 115.584 62.1063 115.855 61.5204C116.381 60.3828 117.672 57.3501 120.361 56.814C120.616 56.7642 120.072 56.1251 119.83 56.1566C119.589 56.1871 119.109 56.504 118.896 56.6473C118.896 56.6473 118.896 56.0002 118.89 55.8855C118.882 55.7689 118.784 55.7265 118.678 55.7308C118.576 55.7329 117.924 55.7265 117.719 55.9682C117.106 56.6929 116.07 58.6466 115.485 60.0998C114.897 61.5522 114.496 61.995 113.878 61.7727C113.259 61.5522 112.89 60.8264 111.809 61.0479C111.437 61.1219 111.022 61.3802 110.696 61.7591C110.786 61.9362 110.9 62.1524 111.406 62.1524C111.91 62.1524 112.871 62.3691 113.409 62.7523C113.945 63.1347 114.509 63.2627 115.285 63.3485Z" fill="#444444"/>
<path fill-rule="evenodd" clip-rule="evenodd" d="M126.027 53.9492C126.086 54.4161 126.308 54.8576 126.554 55.3136C126.554 55.3136 125.735 59.1781 122.773 59.4765C122.773 59.4765 122.832 58.676 123.71 58.0652C124.589 57.4552 125.9 56.509 125.804 55.0728C125.804 55.0728 125.57 55.122 125.15 55.6602C124.728 56.1979 123.804 57.7539 122.376 57.7661C122.376 57.7661 122.586 57.0363 123.218 56.6158C123.852 56.1979 124.659 55.6602 125.023 55.0129C125.384 54.3668 125.771 54.0687 126.027 53.9492Z" fill="#444444"/>
<path fill-rule="evenodd" clip-rule="evenodd" d="M124.629 68.0206L126.431 70.6004L127.797 68.1146L127.313 67.2285C126.957 67.8838 126.575 68.5892 126.356 68.9732C126.19 68.7336 125.735 68.082 125.14 67.2285L124.629 68.0206Z" fill="#444444"/>
<path fill-rule="evenodd" clip-rule="evenodd" d="M124.168 65.8375C122.413 63.3239 120.242 60.2098 120.022 59.8955L120.704 59.3942L118.553 58.5547L118.594 60.9456L119.321 60.4122L123.66 66.6301L124.168 65.8375Z" fill="#444444"/>
<path fill-rule="evenodd" clip-rule="evenodd" d="M109.348 51.7143C109.879 51.1231 110.778 51.6324 111.686 52.4873C112.595 53.3397 113.168 54.2139 112.636 54.8051C112.147 55.3499 111.206 54.8862 110.297 54.0332C109.389 53.1794 108.816 52.3042 109.348 51.7143Z" fill="#444444"/>
<path fill-rule="evenodd" clip-rule="evenodd" d="M110.813 62.2153C110.783 62.192 110.756 62.1663 110.728 62.1409C110.246 61.7082 109.971 61.0436 109.971 60.3175C109.971 58.9203 111.082 57.7843 112.448 57.7843C113.814 57.7843 114.924 58.9203 114.924 60.3175C114.924 60.507 114.888 60.8149 114.888 60.8149C115.001 60.5981 115.408 59.6328 115.491 59.4574C115.122 58.0932 113.897 57.0903 112.448 57.0903C111.202 57.0903 110.121 57.8317 109.609 58.9068C109.804 57.6295 110.426 56.4806 110.867 56.0545C111.394 55.5462 112.291 55.3838 112.291 55.3838C111.704 55.48 110.928 55.1101 110.06 54.296C109.237 53.5223 108.812 52.8479 108.787 52.2832C108.841 53.0808 108.815 53.5273 108.596 54.1739C108.295 55.0584 107.477 56.6849 107.768 58.5217C107.931 59.5313 108.644 61.0332 109.842 62.2599C110.095 62.5368 110.193 62.943 110.222 63.1563C110.222 63.1563 111.989 63.1563 112.407 63.1937C112.407 63.1937 112.826 63.1563 112.819 62.8876C112.812 62.6208 112.58 62.5524 112.37 62.5524C112.161 62.5524 111.283 62.5731 110.813 62.2153Z" fill="#444444"/>
<path fill-rule="evenodd" clip-rule="evenodd" d="M120.573 62.8281C119.438 63.2489 118.306 63.4699 117.231 63.6385C116.532 63.7482 115.849 63.7855 115.193 63.7524C115.205 63.8632 115.203 64.0113 115.139 64.1194C115.139 64.1194 115.271 64.2757 115.271 64.4506C115.938 64.4779 116.63 64.4371 117.337 64.3253C118.51 64.1417 119.745 63.8968 120.987 63.418L120.573 62.8281Z" fill="#444444"/>
<path fill-rule="evenodd" clip-rule="evenodd" d="M122.434 62.7401C123.939 61.898 125.41 60.6017 126.734 58.5298L126.972 58.123C126.611 58.2865 126.145 58.1742 126.145 58.1742C126.124 58.2094 126.064 58.3006 126.035 58.3517C124.798 60.2191 123.431 61.3951 122.031 62.1635L122.434 62.7401Z" fill="#444444"/>
<path fill-rule="evenodd" clip-rule="evenodd" d="M112.505 63.4004C112.297 63.3657 111.637 63.383 111.24 63.446C110.807 63.516 110.312 63.6069 110.261 63.8512C110.211 64.0836 110.369 64.3311 110.588 64.6824C110.724 64.8997 111.045 64.776 111.225 64.7073C111.405 64.6385 112.422 64.0809 112.587 63.8968C112.751 63.7131 112.819 63.4537 112.505 63.4004Z" fill="#444444"/>
<path fill-rule="evenodd" clip-rule="evenodd" d="M113.544 64.089C113.435 64.0174 113.169 63.9136 112.893 64.0206C112.617 64.1271 111.614 64.7318 111.547 65.0154C111.48 65.2973 111.616 65.4423 111.772 65.5048C111.927 65.5676 112.118 65.6275 112.255 65.641C112.505 65.6617 112.751 65.5122 112.878 65.3516C113.007 65.1902 113.476 64.6091 113.544 64.479C113.611 64.3497 113.649 64.1576 113.544 64.089Z" fill="#444444"/>
<path fill-rule="evenodd" clip-rule="evenodd" d="M113.666 64.7265C113.522 64.8931 113.115 65.3966 113.067 65.479C113.02 65.5612 113.091 65.6913 113.219 65.6778C113.345 65.6642 114.034 65.5914 114.432 65.3134C114.828 65.0365 115.094 64.5039 114.821 64.3088C114.549 64.1128 114.126 64.2007 113.666 64.7265Z" fill="#444444"/>
<path fill-rule="evenodd" clip-rule="evenodd" d="M113.887 63.1881C113.757 63.1555 113.237 63.0196 113.122 63.1961C112.981 63.416 113.082 63.6519 113.487 63.8517C113.891 64.0504 114.656 64.2088 114.806 63.9945C114.957 63.7783 114.748 63.415 113.887 63.1881Z" fill="#444444"/>
<path fill-rule="evenodd" clip-rule="evenodd" d="M131.111 48.7715C130.979 49.1939 130.593 49.9732 130.542 50.2127C130.449 50.6606 130.575 51.203 131.373 51.7796C131.373 51.7796 131.891 51.411 132.097 50.9229C132.288 50.4668 132.174 50.147 131.977 49.9112C131.777 49.674 131.31 49.126 131.111 48.7715Z" fill="#444444"/>
<path fill-rule="evenodd" clip-rule="evenodd" d="M129.429 50.4434C129.429 50.6705 129.596 51.9493 129.952 52.5839C130.449 53.475 131.183 54.1386 131.826 54.1386C132.422 54.1386 132.546 53.7769 132.841 53.6282C132.841 53.6282 132.691 52.8545 132.021 52.6502C131.202 52.4011 129.941 51.3925 129.429 50.4434Z" fill="#444444"/>
<path fill-rule="evenodd" clip-rule="evenodd" d="M131.574 52.0742C131.713 51.9661 131.831 51.8917 131.998 51.6953C131.998 51.6953 132.632 51.9359 133.152 52.2947C133.674 52.653 134.186 53.263 134.462 53.5828C134.462 53.5828 133.681 53.7895 133.185 53.5595C133.185 53.5595 133.003 52.7963 132.447 52.4556C132.325 52.3811 131.935 52.2653 131.574 52.0742Z" fill="#444444"/>
<path fill-rule="evenodd" clip-rule="evenodd" d="M132.225 51.4196C132.346 51.2283 132.594 50.8738 132.54 50.3184C132.54 50.3184 133.638 51.0269 133.967 51.2996C134.298 51.5733 134.983 52.2965 135.137 52.5344C135.137 52.5344 134.305 52.3503 133.667 52.1324C132.966 51.8932 132.485 51.5733 132.225 51.4196Z" fill="#444444"/>
<path fill-rule="evenodd" clip-rule="evenodd" d="M134.085 52.6348C134.676 52.8497 136.006 53.0707 136.563 53.2387C137.12 53.4069 137.524 53.7011 138.057 54.2962C138.057 54.2962 137.24 54.5281 136.804 54.6709C136.804 54.6709 136.108 54.1849 135.347 53.8873C134.851 53.6936 134.612 53.161 134.085 52.6348Z" fill="#444444"/>
<path fill-rule="evenodd" clip-rule="evenodd" d="M135.321 56.6468C135.195 56.505 135.035 56.3378 135.157 55.9997C135.246 55.7524 135.728 55.4811 136.019 55.3377C136.497 55.1059 137.821 54.7437 138.25 54.6133C138.25 54.6133 138.466 54.8711 138.579 55.1438C138.631 55.2487 138.564 55.3576 138.377 55.3907C138.009 55.4554 137.12 55.2866 136.906 55.4289C136.673 55.5847 136.754 55.7933 136.754 55.9997C136.754 55.9997 136.35 55.7487 136.094 55.8052C135.74 55.8834 135.524 56.0521 135.321 56.6468Z" fill="#444444"/>
<path fill-rule="evenodd" clip-rule="evenodd" d="M136.501 54.7669C136.406 54.7995 135.89 54.9612 135.385 55.2871C135.385 55.2871 135.163 55.1981 135.053 54.9885C134.947 54.7876 134.493 54.104 134.08 54.012C134.08 54.012 134.431 53.9773 134.633 53.9121C134.633 53.9121 135.064 54.0258 135.37 54.1517C135.676 54.2788 136.057 54.471 136.501 54.7669Z" fill="#444444"/>
<path fill-rule="evenodd" clip-rule="evenodd" d="M133.086 53.9023C133.167 53.9408 133.299 54.0049 133.607 54.0179C133.607 54.0179 134.774 54.8444 134.911 55.6658C135.029 56.3712 134.667 56.708 134.49 56.7976C134.312 56.8877 133.501 57.2287 132.973 56.1155C132.973 56.1155 133.872 56.4181 134.118 55.9743C134.364 55.5312 133.967 54.8862 133.721 54.7005C133.4 54.4546 132.822 54.2879 132.467 54.3531C132.467 54.3531 132.751 54.0767 133.086 53.9023Z" fill="#444444"/>
<path fill-rule="evenodd" clip-rule="evenodd" d="M140.711 63.3485C140.569 62.7441 140.412 62.1063 140.141 61.5204C139.617 60.3828 138.326 57.3501 135.636 56.814C135.381 56.7642 135.927 56.1251 136.166 56.1566C136.41 56.1871 136.888 56.504 137.101 56.6473C137.101 56.6473 137.101 56.0002 137.107 55.8855C137.114 55.7689 137.213 55.7265 137.319 55.7308C137.421 55.7329 138.074 55.7265 138.279 55.9682C138.892 56.6929 139.927 58.6466 140.512 60.0998C141.1 61.5522 141.501 61.995 142.119 61.7727C142.738 61.5522 143.109 60.8264 144.188 61.0479C144.561 61.1219 144.974 61.3802 145.301 61.7591C145.211 61.9362 145.096 62.1524 144.592 62.1524C144.086 62.1524 143.126 62.3691 142.588 62.7523C142.05 63.1347 141.487 63.2627 140.711 63.3485Z" fill="#444444"/>
<path fill-rule="evenodd" clip-rule="evenodd" d="M129.969 53.9492C129.912 54.4161 129.688 54.8576 129.443 55.3136C129.443 55.3136 130.262 59.1781 133.223 59.4765C133.223 59.4765 133.165 58.676 132.288 58.0652C131.409 57.4552 130.099 56.509 130.192 55.0728C130.192 55.0728 130.426 55.122 130.847 55.6602C131.27 56.1979 132.192 57.7539 133.62 57.7661C133.62 57.7661 133.41 57.0363 132.779 56.6158C132.147 56.1979 131.338 55.6602 130.976 55.0129C130.612 54.3668 130.226 54.0687 129.969 53.9492Z" fill="#444444"/>
<path fill-rule="evenodd" clip-rule="evenodd" d="M128.004 57.6934C128.176 58.2093 129.298 59.8246 129.788 60.2852C130.279 60.7468 131.474 61.9678 132.111 62.5794C132.111 62.5794 130.293 62.1178 129.272 61.1686C129.272 61.1686 128.542 61.6029 128.012 61.6029H127.984C127.454 61.6029 126.726 61.1686 126.726 61.1686C125.703 62.1178 123.885 62.5794 123.885 62.5794C124.523 61.9678 125.717 60.7468 126.209 60.2852C126.7 59.8246 127.822 58.2093 127.995 57.6934H128.004Z" fill="#444444"/>
<path fill-rule="evenodd" clip-rule="evenodd" d="M128.01 61.9827C128.411 61.9827 128.795 61.8187 129.006 61.7246C128.795 62.1862 128.386 62.9046 128.002 63.2032H127.993C127.607 62.9046 127.203 62.1862 126.99 61.7246C127.203 61.8187 127.58 61.9827 127.984 61.9827H128.01Z" fill="#444444"/>
<path fill-rule="evenodd" clip-rule="evenodd" d="M129.564 70.6006L136.678 60.4122L137.403 60.9456L137.445 58.5547L135.293 59.3942L135.974 59.8955C135.625 60.3966 130.308 68.0154 129.639 68.9733L126.417 63.0083L126.02 63.6267L123.153 68.0544L122.438 67.5652L122.427 69.9214L124.601 69.0385L123.873 68.5449C124.267 67.9346 125.822 65.5338 126.343 64.7307L129.564 70.6006Z" fill="#444444"/>
<path fill-rule="evenodd" clip-rule="evenodd" d="M130.864 66.5992C130.384 65.8591 129.901 65.1151 129.655 64.7322C129.475 65.0742 129.108 65.7444 128.702 66.4866L128.193 65.5571L129.579 63.0098L129.977 63.6282L131.402 65.8292L130.864 66.5992Z" fill="#444444"/>
<path fill-rule="evenodd" clip-rule="evenodd" d="M132.329 67.2617L132.843 68.0553L133.559 67.5662L133.572 69.9224L131.395 69.0395L132.122 68.5458C132.049 68.4306 131.934 68.2504 131.791 68.032L132.329 67.2617Z" fill="#444444"/>
<path fill-rule="evenodd" clip-rule="evenodd" d="M146.651 51.7143C146.118 51.1231 145.219 51.6324 144.31 52.4873C143.401 53.3397 142.829 54.2139 143.359 54.8051C143.851 55.3499 144.792 54.8862 145.7 54.0332C146.609 53.1794 147.181 52.3042 146.651 51.7143Z" fill="#444444"/>
<path fill-rule="evenodd" clip-rule="evenodd" d="M145.184 62.2153C145.215 62.192 145.241 62.1663 145.267 62.1409C145.751 61.7082 146.027 61.0436 146.027 60.3175C146.027 58.9203 144.916 57.7843 143.549 57.7843C142.183 57.7843 141.074 58.9203 141.074 60.3175C141.074 60.507 141.11 60.8149 141.11 60.8149C140.999 60.5981 140.59 59.6328 140.508 59.4574C140.876 58.0932 142.099 57.0903 143.549 57.0903C144.797 57.0903 145.877 57.8317 146.388 58.9068C146.193 57.6295 145.57 56.4806 145.131 56.0545C144.605 55.5462 143.705 55.3838 143.705 55.3838C144.295 55.48 145.07 55.1101 145.937 54.296C146.76 53.5223 147.185 52.8479 147.21 52.2832C147.157 53.0808 147.182 53.5273 147.402 54.1739C147.703 55.0584 148.52 56.6849 148.229 58.5217C148.068 59.5313 147.352 61.0332 146.157 62.2599C145.901 62.5368 145.805 62.943 145.775 63.1563C145.775 63.1563 144.01 63.1563 143.591 63.1937C143.591 63.1937 143.172 63.1563 143.178 62.8876C143.187 62.6208 143.419 62.5524 143.627 62.5524C143.837 62.5524 144.714 62.5731 145.184 62.2153Z" fill="#444444"/>
<path fill-rule="evenodd" clip-rule="evenodd" d="M133.559 62.738C132.056 61.8948 130.588 60.5996 129.262 58.5298L129.025 58.123C129.385 58.2865 129.853 58.1742 129.853 58.1742C129.875 58.2094 129.931 58.3006 129.962 58.3517C131.196 60.2164 132.564 61.3935 133.963 62.1625L133.559 62.738Z" fill="#444444"/>
<path fill-rule="evenodd" clip-rule="evenodd" d="M135.419 62.8262C136.556 63.2491 137.689 63.4701 138.765 63.6386C139.463 63.7483 140.148 63.7857 140.804 63.7526C140.793 63.8633 140.795 64.0115 140.858 64.1196C140.858 64.1196 140.726 64.2759 140.726 64.4508C140.058 64.4781 139.368 64.4373 138.661 64.3255C137.489 64.1418 136.251 63.897 135.011 63.4176L135.419 62.8262Z" fill="#444444"/>
<path fill-rule="evenodd" clip-rule="evenodd" d="M143.493 63.4004C143.701 63.3657 144.361 63.383 144.757 63.446C145.19 63.516 145.686 63.6069 145.737 63.8512C145.788 64.0836 145.63 64.3311 145.409 64.6824C145.272 64.8997 144.951 64.776 144.77 64.7073C144.592 64.6385 143.575 64.0809 143.409 63.8968C143.246 63.7131 143.178 63.4537 143.493 63.4004Z" fill="#444444"/>
<path fill-rule="evenodd" clip-rule="evenodd" d="M142.452 64.089C142.563 64.0174 142.828 63.9136 143.105 64.0206C143.379 64.1271 144.383 64.7318 144.45 65.0154C144.516 65.2973 144.381 65.4423 144.226 65.5048C144.07 65.5676 143.878 65.6275 143.743 65.641C143.494 65.6617 143.246 65.5122 143.118 65.3516C142.991 65.1902 142.521 64.6091 142.452 64.479C142.385 64.3497 142.35 64.1576 142.452 64.089Z" fill="#444444"/>
<path fill-rule="evenodd" clip-rule="evenodd" d="M142.331 64.7265C142.476 64.8931 142.882 65.3966 142.931 65.479C142.977 65.5612 142.907 65.6913 142.78 65.6778C142.652 65.6642 141.962 65.5914 141.566 65.3134C141.169 65.0365 140.904 64.5039 141.177 64.3088C141.448 64.1128 141.872 64.2007 142.331 64.7265Z" fill="#444444"/>
<path fill-rule="evenodd" clip-rule="evenodd" d="M142.109 63.1881C142.239 63.1555 142.761 63.0196 142.875 63.1961C143.018 63.416 142.916 63.6519 142.512 63.8517C142.106 64.0504 141.343 64.2088 141.19 63.9945C141.041 63.7783 141.251 63.415 142.109 63.1881Z" fill="#444444"/>
</g>
<defs>
<clipPath id="clip0">
<rect width="169" height="84" fill="white"/>
</clipPath>
</defs>
</svg>
