<svg width="390" height="196" viewBox="0 0 390 196" fill="none" xmlns="http://www.w3.org/2000/svg">
<path d="M377.32 89.2901C377.32 89.7601 377.11 90.4301 376.71 91.3101C376.3 92.1901 376.1 92.7501 376.1 92.9801C376.1 94.1501 377.44 94.7401 380.14 94.7401C383.77 94.7401 385.58 92.9801 385.58 89.4701C385.58 86.1901 383.18 84.5501 378.38 84.5501C373.35 84.5501 367.14 87.3001 359.77 92.8001C356.96 94.9101 343.08 107.05 343.08 107.05C349.4 98.5101 356.88 87.9501 357.27 87.3901C357.67 86.8301 357.67 86.4801 357.67 86.4801C357.67 85.0801 356.56 84.3701 354.33 84.3701C352.93 84.3701 349.38 86.7101 343.71 91.3901C339.8 94.6101 338.4 96.0701 335.9 98.4301C327.1 107.31 320.71 111.76 316.76 111.76C316.29 111.76 315.94 111.61 315.71 111.32C315.47 111.02 315.36 110.64 315.36 110.16C315.36 108.38 318.32 103.93 324.23 96.8201C330.14 89.7101 333.1 85.8501 333.1 85.2601C333.1 84.6701 331.87 84.3701 329.41 84.3701C327.54 84.3701 325.84 85.0201 324.32 86.3301C303.84 103.29 292.19 111.76 289.38 111.76C288.79 111.76 287.79 111.69 287.62 110.5C287.46 109.3 290.25 104.56 295.52 97.7101C301.84 89.4201 305.06 85.1601 305.18 84.9101C304.94 84.5501 304.24 84.3701 303.07 84.3701C299.56 84.3701 294.76 86.4801 288.67 90.7101C284.79 93.3801 282.5 95.6201 280.3 97.9701C272.62 106.35 265.32 111.76 263.21 111.76C262.74 111.76 262.33 111.56 261.98 111.14C261.63 110.73 261.45 110.12 261.45 109.3C261.45 107.54 264.11 103.36 269.44 96.7501C274.76 90.1401 277.43 86.7201 277.43 86.4801C277.43 85.7801 276.2 85.4301 273.74 85.4301C271.16 85.4301 268.24 87.1301 264.96 90.5201C259.11 96.6101 256.06 99.7101 255.83 99.8301C251.85 103.11 247.58 104.75 243.01 104.75C241.49 104.75 240.73 104.22 240.73 103.17C240.73 102.94 240.99 102.5 241.52 101.85C242.05 101.21 242.31 100.59 242.31 100.01C242.31 99.0701 241.84 98.3101 240.91 97.7301C246.41 90.5901 249.16 86.7901 249.16 86.3201C249.16 85.7401 248.05 85.4401 245.82 85.4401C243.24 85.4401 238.88 86.4201 234.06 90.2701C230.85 92.8301 228.15 95.3601 225.53 97.7501C224.65 98.4701 223.3 99.6301 221.42 101.24C217.44 104.52 213.75 107.15 210.36 109.14C205.44 111.95 201.17 113.35 197.54 113.35C194.85 113.35 193.5 112.29 193.5 110.17C193.5 109.35 193.85 107.76 194.55 105.4C212.22 99.7501 221.06 94.2701 221.06 88.9701C221.06 85.9101 219.34 84.3801 215.92 84.3801C211.55 84.3801 205.93 86.2101 199.08 89.8801C192.79 93.3801 187.85 97.8901 185.08 100.21C183.47 101.56 181.94 102.79 180.16 104.23C174.07 109.15 169.32 111.07 168.52 111.34C167.91 111.54 167.33 111.56 166.99 111.43C166.65 111.3 166.46 110.73 166.46 110.38C166.46 108.27 168.92 104.5 173.83 99.0601C178.75 93.6201 181.2 90.3701 181.2 89.3201C181.2 87.3301 179.21 86.1901 175.23 85.9001C171.25 85.6101 169.26 85.0501 169.26 84.2301C169.26 83.4101 169.84 82.4701 171.02 81.4201C171.84 80.7201 172.72 80.0201 173.65 79.3101C173.18 78.1401 172.13 77.5501 170.49 77.5501C168.62 77.5501 166.83 78.1401 165.13 79.3101C163.43 80.4801 162.58 81.9401 162.58 83.7001C162.58 84.8701 162.99 85.6901 163.81 86.1601C160.28 89.6901 157.37 92.5501 155.08 94.7701C154.18 95.5401 152.91 96.7001 151.27 98.2801C144.18 104.58 136 114.09 125.48 126.46C115.76 137.86 107.51 148.17 100.72 157.41C86.6603 176.58 79.0602 186.85 77.9202 188.2C74.8303 192.07 72.7603 193.99 71.7203 193.97C71.0703 193.96 70.7503 193.46 70.7702 192.48C70.8302 189.53 74.5003 182.3 81.8003 170.79C95.7903 148.6 115.54 122.6 141.07 92.7801C170.35 58.6501 196.48 33.1301 219.47 16.2301C223.39 13.3601 226.81 10.8701 229.73 8.77006C232.39 6.86006 233.72 5.44006 233.74 4.53006C233.76 3.35006 232.86 2.74006 231.03 2.71006C228.09 2.65006 223.5 4.59006 217.26 8.53006C206.39 15.4501 193.92 25.2001 179.86 37.7601C173.47 43.4701 164.8 51.7201 153.86 62.5201C139.14 76.9901 130.91 85.0301 129.18 86.6401C115.15 99.4201 105.87 105.76 101.35 105.68C98.5303 105.62 97.1502 104.19 97.2002 101.37C97.2803 97.4401 101.01 91.0601 108.39 82.2201C111.01 79.1901 116.3 73.5301 124.26 65.2301L142.23 46.5101C155.15 33.0701 161.69 22.3101 161.84 14.2601C161.94 9.28006 159.42 5.53006 154.3 3.00006C150.41 1.15006 145.61 0.18006 139.92 0.0600596C131.41 -0.10994 122.41 1.65006 112.91 5.33006C104 8.69006 95.9303 13.2201 88.6803 18.9001C80.8303 24.9701 75.1302 30.4201 71.5703 35.2601C59.9403 41.6001 49.8403 49.0001 41.3003 57.4101C30.6203 67.8701 24.1603 78.3201 21.9303 88.7501C15.8703 93.6701 10.9303 99.0101 7.08025 104.76C2.49025 111.68 0.130254 118.44 0.0102537 125.05C-0.0497463 128.13 0.680254 130.92 2.20025 133.44C3.91025 136.35 6.21025 137.84 9.09025 137.9C11.1803 137.94 12.1003 137.7 11.8503 137.17L11.6603 137.07C10.6103 137.31 9.53025 137.19 8.43025 136.71C4.27025 134.93 2.26025 130.99 2.37025 124.9C2.48025 119.01 4.55025 112.73 8.57025 106.07C11.9803 100.51 16.2603 95.3801 21.4103 90.7001C21.4003 91.0301 21.3903 91.5201 21.3803 92.1701C21.3703 92.8201 21.3603 93.3201 21.3503 93.6401C21.2803 97.1101 22.2703 99.9801 24.3303 102.24C26.3803 104.51 29.1403 105.67 32.6103 105.74C37.1903 105.83 41.1702 104.32 44.5303 101.21C47.9002 98.1001 49.6302 94.2501 49.7103 89.6701C49.8203 84.2401 46.6603 81.4601 40.2503 81.3301C35.3403 81.2301 29.8303 83.3201 23.7303 87.5901C26.1303 78.8001 32.3703 69.3901 42.4503 59.3701C50.6003 51.2801 59.7002 44.1601 69.7803 38.0001V38.1001C65.8702 43.9801 63.8602 49.4401 63.7603 54.4801C63.6702 59.2601 65.2603 62.9901 68.5503 65.6701C71.5803 68.0901 75.5502 69.3401 80.4603 69.4401C88.3802 69.5901 96.0703 67.8501 103.54 64.1901C111.01 60.5401 117.07 55.5501 121.71 49.2201C125 44.7701 126.69 40.5801 126.77 36.6501C126.85 32.5901 125.17 29.5101 121.74 27.4201C118.95 25.7301 115.36 24.8401 110.97 24.7501C99.6203 24.5301 87.2602 27.7201 73.8802 34.3401V34.2401C81.9303 24.6101 91.7903 16.7301 103.45 10.5901C115.97 4.07006 128.12 0.93006 139.92 1.16006C144.51 1.25006 148.39 2.01006 151.58 3.45006C155.93 5.37006 158.07 8.33006 158 12.3301C157.88 18.6801 152.36 27.9201 141.45 40.0201C131.29 50.5701 121.16 61.1201 111.07 71.6701C100.16 83.7101 94.6503 92.7801 94.5303 98.8701C94.4902 101.16 95.0403 103.04 96.1903 104.51C97.3403 105.97 99.0303 106.73 101.25 106.77C106.36 106.87 116.68 99.8001 132.21 85.5701C134.74 83.2001 144.42 73.6601 161.25 56.9701C168.59 49.7101 175.13 43.5201 180.86 38.4001C198.1 23.0501 211.66 12.5701 221.53 7.00006C225.3 4.85006 228.01 3.79006 229.65 3.82006C230.57 3.84006 231.02 3.98006 231.02 4.24006C231.01 4.83006 229.05 6.33006 225.14 8.74006C222.69 10.2601 220.23 11.7901 217.78 13.3101C201.12 24.8401 184.04 39.6001 166.53 57.5901C154.97 69.5401 140.04 86.5001 121.73 108.48C104.9 128.78 90.2002 148.95 77.6302 169C70.8702 179.8 67.4503 187.23 67.3703 191.29C67.3203 194.04 68.5303 195.44 71.0202 195.49C72.9802 195.53 78.1302 190 86.4703 178.9C110.81 146.44 130.15 123.16 143.86 108.04C147.94 104 151.06 100.63 154.2 97.7401C155.59 96.4401 156.56 95.4901 157.12 94.8701C161.83 90.5501 164.55 87.8601 165.24 86.8201C166.32 87.1401 166.99 87.3101 167.7 87.3501C168.25 87.3801 168.87 87.2901 169.81 87.1701C170.75 87.0601 171.45 86.9901 171.92 86.9901C174.96 86.9901 176.48 87.4001 176.48 88.2201C176.48 88.3401 173.14 91.3501 166.47 97.2601C159.8 103.17 156.46 107.88 156.46 111.39C156.46 114.2 158.27 115.6 161.9 115.6C166 115.6 171.21 113.26 177.53 108.58C183.23 104.37 186.9 101.27 188.58 99.2701H188.59C185.78 103.02 184.38 106.47 184.38 109.63C184.38 113.96 187.6 116.13 194.04 116.13C199.31 116.13 205.04 114.32 211.25 110.69C216.26 107.8 225.01 100.1 225.01 100.1C226.09 99.1401 230.21 95.7701 237.93 89.4501C237.93 89.4501 231.84 96.1201 227.4 101.74C222.13 108.18 219.5 112.22 219.5 113.85C219.5 114.78 220.79 115.26 223.36 115.26C225.23 115.26 228.6 114.43 229.33 113.85C230.06 113.27 235.77 105.54 237.41 102.96C238.7 104.95 240.86 105.94 243.91 105.94C248.01 105.94 251.87 104.65 255.5 102.08C253.16 105.24 251.99 108.11 251.99 110.68C251.99 114.08 253.98 115.77 257.96 115.77C261 115.77 265.18 114.69 269.55 111.21C275.39 106.55 278.48 103.48 282.11 99.2301L282.1 99.2201C283.49 97.6601 284.69 96.3201 285.52 95.5801C289.79 91.7901 293.95 89.4301 293.95 89.4301C283.42 99.5601 278.15 106.93 278.15 111.53C278.15 114.36 280.08 115.77 283.94 115.77C289.09 115.77 300.98 108.03 316.66 94.9201C316.66 94.9201 305.94 106.26 305.88 111.52C305.85 114.36 307.69 115.77 311.32 115.77C315.18 115.77 320.21 113.41 326.42 108.68C331.81 104.52 335.7 100.76 337.03 99.5301C338.36 98.3001 343.1 94.0001 343.1 94.0001C334.79 104.3 330.63 110.97 330.63 114.02C330.63 115.25 332.43 115.42 333.44 115.25C335.86 114.84 342.31 110.51 352.66 101.03C363.02 91.5501 370.36 86.8101 374.69 86.8101C376.44 86.8301 377.32 87.6501 377.32 89.2901ZM203.16 93.2901C207.26 88.7501 210.47 86.4801 212.82 86.4801C214.22 86.4801 214.93 87.0201 214.93 88.0901C214.93 94.3001 208.18 99.5101 195.31 103.69C195.3 103.7 200 96.7601 203.16 93.2901ZM40.2903 82.3401C45.6803 82.4501 48.3203 84.8801 48.2303 89.6301C48.1502 93.4701 46.4403 96.9501 43.1003 100.04C39.7503 103.13 36.1403 104.65 32.2703 104.57C29.2503 104.51 26.8703 103.45 25.1303 101.4C23.4003 99.3501 22.5603 96.7901 22.6203 93.7201C22.6503 92.3501 22.8003 90.9501 23.1003 89.5301C29.2303 84.6301 34.9703 82.2301 40.2903 82.3401ZM110.67 25.6601C114.73 25.7401 118.02 26.5601 120.54 28.1101C123.78 30.0101 125.36 32.8201 125.29 36.5501C125.2 41.2601 122.08 46.4701 115.95 52.1801C111.15 56.6001 105.94 60.2701 100.32 63.1701C93.1803 66.8301 86.5902 68.6001 80.5703 68.4801C75.9902 68.3901 72.2803 67.2401 69.4403 65.0201C66.2803 62.5401 64.7403 59.0701 64.8303 54.6201C64.9303 49.2501 67.2702 43.4101 71.8503 37.0801C86.2103 29.2501 99.1503 25.4401 110.67 25.6601Z" fill="white"/>
<path d="M379.741 104.39C374.181 109.07 370.111 111.41 367.541 111.41C366.141 111.41 365.051 109.45 364.291 105.53C363.531 101.61 361.571 99.6499 358.411 99.6499C356.071 99.6499 354.311 100.18 353.141 101.23C355.011 100.53 355.951 102.34 355.951 106.67C355.951 109.6 356.181 111.65 356.651 112.82C357.591 114.69 359.341 115.63 361.921 115.63C365.901 115.63 370.931 113.35 377.021 108.78C378.541 107.61 380.761 105.74 383.691 103.16C387.321 99.8799 389.131 97.9499 389.131 97.3699V97.1899C388.431 97.3099 385.301 99.7099 379.741 104.39Z" fill="white"/>
</svg>
