<svg width="390" height="219" viewBox="0 0 390 219" fill="none" xmlns="http://www.w3.org/2000/svg">
<g clip-path="url(#clip0)">
<path d="M377.32 89.2901C377.32 89.7601 377.11 90.4301 376.71 91.3101C376.3 92.1901 376.1 92.7501 376.1 92.9801C376.1 94.1501 377.44 94.7401 380.14 94.7401C383.77 94.7401 385.58 92.9801 385.58 89.4701C385.58 86.1901 383.18 84.5501 378.38 84.5501C373.35 84.5501 367.14 87.3001 359.77 92.8001C356.96 94.9101 343.08 107.05 343.08 107.05C349.4 98.5101 356.88 87.9501 357.27 87.3901C357.67 86.8301 357.67 86.4801 357.67 86.4801C357.67 85.0801 356.56 84.3701 354.33 84.3701C352.93 84.3701 349.38 86.7101 343.71 91.3901C339.8 94.6101 338.4 96.0701 335.9 98.4301C327.1 107.31 320.71 111.76 316.76 111.76C316.29 111.76 315.94 111.61 315.71 111.32C315.47 111.02 315.36 110.64 315.36 110.16C315.36 108.38 318.32 103.93 324.23 96.8201C330.14 89.7101 333.1 85.8501 333.1 85.2601C333.1 84.6701 331.87 84.3701 329.41 84.3701C327.54 84.3701 325.84 85.0201 324.32 86.3301C303.84 103.29 292.19 111.76 289.38 111.76C288.79 111.76 287.79 111.69 287.62 110.5C287.46 109.3 290.25 104.56 295.52 97.7101C301.84 89.4201 305.06 85.1601 305.18 84.9101C304.94 84.5501 304.24 84.3701 303.07 84.3701C299.56 84.3701 294.76 86.4801 288.67 90.7101C284.79 93.3801 282.5 95.6201 280.3 97.9701C272.62 106.35 265.32 111.76 263.21 111.76C262.74 111.76 262.33 111.56 261.98 111.14C261.63 110.73 261.45 110.12 261.45 109.3C261.45 107.54 264.11 103.36 269.44 96.7501C274.76 90.1401 277.43 86.7201 277.43 86.4801C277.43 85.7801 276.2 85.4301 273.74 85.4301C271.16 85.4301 268.24 87.1301 264.96 90.5201C259.11 96.6101 256.06 99.7101 255.83 99.8301C251.85 103.11 247.58 104.75 243.01 104.75C241.49 104.75 240.73 104.22 240.73 103.17C240.73 102.94 240.99 102.5 241.52 101.85C242.05 101.21 242.31 100.59 242.31 100.01C242.31 99.0701 241.84 98.3101 240.91 97.7301C246.41 90.5901 249.16 86.7901 249.16 86.3201C249.16 85.7401 248.05 85.4401 245.82 85.4401C243.24 85.4401 238.88 86.4201 234.06 90.2701C230.85 92.8301 228.15 95.3601 225.53 97.7501C224.65 98.4701 223.3 99.6301 221.42 101.24C217.44 104.52 213.75 107.15 210.36 109.14C205.44 111.95 201.17 113.35 197.54 113.35C194.85 113.35 193.5 112.29 193.5 110.17C193.5 109.35 193.85 107.76 194.55 105.4C212.22 99.7501 221.06 94.2701 221.06 88.9701C221.06 85.9101 219.34 84.3801 215.92 84.3801C211.55 84.3801 205.93 86.2101 199.08 89.8801C192.79 93.3801 187.85 97.8901 185.08 100.21C183.47 101.56 181.94 102.79 180.16 104.23C174.07 109.15 169.32 111.07 168.52 111.34C167.91 111.54 167.33 111.56 166.99 111.43C166.65 111.3 166.46 110.73 166.46 110.38C166.46 108.27 168.92 104.5 173.83 99.0601C178.75 93.6201 181.2 90.3701 181.2 89.3201C181.2 87.3301 179.21 86.1901 175.23 85.9001C171.25 85.6101 169.26 85.0501 169.26 84.2301C169.26 83.4101 169.84 82.4701 171.02 81.4201C171.84 80.7201 172.72 80.0201 173.65 79.3101C173.18 78.1401 172.13 77.5501 170.49 77.5501C168.62 77.5501 166.83 78.1401 165.13 79.3101C163.43 80.4801 162.58 81.9401 162.58 83.7001C162.58 84.8701 162.99 85.6901 163.81 86.1601C160.28 89.6901 157.37 92.5501 155.08 94.7701C154.18 95.5401 152.91 96.7001 151.27 98.2801C144.18 104.58 136 114.09 125.48 126.46C115.76 137.86 107.51 148.17 100.72 157.41C86.6603 176.58 79.0602 186.85 77.9202 188.2C74.8303 192.07 72.7603 193.99 71.7203 193.97C71.0703 193.96 70.7503 193.46 70.7702 192.48C70.8302 189.53 74.5003 182.3 81.8003 170.79C95.7903 148.6 115.54 122.6 141.07 92.7801C170.35 58.6501 196.48 33.1301 219.47 16.2301C223.39 13.3601 226.81 10.8701 229.73 8.77006C232.39 6.86006 233.72 5.44006 233.74 4.53006C233.76 3.35006 232.86 2.74006 231.03 2.71006C228.09 2.65006 223.5 4.59006 217.26 8.53006C206.39 15.4501 193.92 25.2001 179.86 37.7601C173.47 43.4701 164.8 51.7201 153.86 62.5201C139.14 76.9901 130.91 85.0301 129.18 86.6401C115.15 99.4201 105.87 105.76 101.35 105.68C98.5303 105.62 97.1502 104.19 97.2002 101.37C97.2803 97.4401 101.01 91.0601 108.39 82.2201C111.01 79.1901 116.3 73.5301 124.26 65.2301L142.23 46.5101C155.15 33.0701 161.69 22.3101 161.84 14.2601C161.94 9.28006 159.42 5.53006 154.3 3.00006C150.41 1.15006 145.61 0.18006 139.92 0.0600596C131.41 -0.10994 122.41 1.65006 112.91 5.33006C104 8.69006 95.9303 13.2201 88.6803 18.9001C80.8303 24.9701 75.1302 30.4201 71.5703 35.2601C59.9403 41.6001 49.8403 49.0001 41.3003 57.4101C30.6203 67.8701 24.1603 78.3201 21.9303 88.7501C15.8703 93.6701 10.9303 99.0101 7.08025 104.76C2.49025 111.68 0.130254 118.44 0.0102537 125.05C-0.0497463 128.13 0.680254 130.92 2.20025 133.44C3.91025 136.35 6.21025 137.84 9.09025 137.9C11.1803 137.94 12.1003 137.7 11.8503 137.17L11.6603 137.07C10.6103 137.31 9.53025 137.19 8.43025 136.71C4.27025 134.93 2.26025 130.99 2.37025 124.9C2.48025 119.01 4.55025 112.73 8.57025 106.07C11.9803 100.51 16.2603 95.3801 21.4103 90.7001C21.4003 91.0301 21.3903 91.5201 21.3803 92.1701C21.3703 92.8201 21.3603 93.3201 21.3503 93.6401C21.2803 97.1101 22.2703 99.9801 24.3303 102.24C26.3803 104.51 29.1403 105.67 32.6103 105.74C37.1903 105.83 41.1702 104.32 44.5303 101.21C47.9002 98.1001 49.6302 94.2501 49.7103 89.6701C49.8203 84.2401 46.6603 81.4601 40.2503 81.3301C35.3403 81.2301 29.8303 83.3201 23.7303 87.5901C26.1303 78.8001 32.3703 69.3901 42.4503 59.3701C50.6003 51.2801 59.7002 44.1601 69.7803 38.0001V38.1001C65.8702 43.9801 63.8602 49.4401 63.7603 54.4801C63.6702 59.2601 65.2603 62.9901 68.5503 65.6701C71.5803 68.0901 75.5502 69.3401 80.4603 69.4401C88.3802 69.5901 96.0703 67.8501 103.54 64.1901C111.01 60.5401 117.07 55.5501 121.71 49.2201C125 44.7701 126.69 40.5801 126.77 36.6501C126.85 32.5901 125.17 29.5101 121.74 27.4201C118.95 25.7301 115.36 24.8401 110.97 24.7501C99.6203 24.5301 87.2602 27.7201 73.8802 34.3401V34.2401C81.9303 24.6101 91.7903 16.7301 103.45 10.5901C115.97 4.07006 128.12 0.93006 139.92 1.16006C144.51 1.25006 148.39 2.01006 151.58 3.45006C155.93 5.37006 158.07 8.33006 158 12.3301C157.88 18.6801 152.36 27.9201 141.45 40.0201C131.29 50.5701 121.16 61.1201 111.07 71.6701C100.16 83.7101 94.6503 92.7801 94.5303 98.8701C94.4902 101.16 95.0403 103.04 96.1903 104.51C97.3403 105.97 99.0303 106.73 101.25 106.77C106.36 106.87 116.68 99.8001 132.21 85.5701C134.74 83.2001 144.42 73.6601 161.25 56.9701C168.59 49.7101 175.13 43.5201 180.86 38.4001C198.1 23.0501 211.66 12.5701 221.53 7.00006C225.3 4.85006 228.01 3.79006 229.65 3.82006C230.57 3.84006 231.02 3.98006 231.02 4.24006C231.01 4.83006 229.05 6.33006 225.14 8.74006C222.69 10.2601 220.23 11.7901 217.78 13.3101C201.12 24.8401 184.04 39.6001 166.53 57.5901C154.97 69.5401 140.04 86.5001 121.73 108.48C104.9 128.78 90.2002 148.95 77.6302 169C70.8702 179.8 67.4503 187.23 67.3703 191.29C67.3203 194.04 68.5303 195.44 71.0202 195.49C72.9802 195.53 78.1302 190 86.4703 178.9C110.81 146.44 130.15 123.16 143.86 108.04C147.94 104 151.06 100.63 154.2 97.7401C155.59 96.4401 156.56 95.4901 157.12 94.8701C161.83 90.5501 164.55 87.8601 165.24 86.8201C166.32 87.1401 166.99 87.3101 167.7 87.3501C168.25 87.3801 168.87 87.2901 169.81 87.1701C170.75 87.0601 171.45 86.9901 171.92 86.9901C174.96 86.9901 176.48 87.4001 176.48 88.2201C176.48 88.3401 173.14 91.3501 166.47 97.2601C159.8 103.17 156.46 107.88 156.46 111.39C156.46 114.2 158.27 115.6 161.9 115.6C166 115.6 171.21 113.26 177.53 108.58C183.23 104.37 186.9 101.27 188.58 99.2701H188.59C185.78 103.02 184.38 106.47 184.38 109.63C184.38 113.96 187.6 116.13 194.04 116.13C199.31 116.13 205.04 114.32 211.25 110.69C216.26 107.8 225.01 100.1 225.01 100.1C226.09 99.1401 230.21 95.7701 237.93 89.4501C237.93 89.4501 231.84 96.1201 227.4 101.74C222.13 108.18 219.5 112.22 219.5 113.85C219.5 114.78 220.79 115.26 223.36 115.26C225.23 115.26 228.6 114.43 229.33 113.85C230.06 113.27 235.77 105.54 237.41 102.96C238.7 104.95 240.86 105.94 243.91 105.94C248.01 105.94 251.87 104.65 255.5 102.08C253.16 105.24 251.99 108.11 251.99 110.68C251.99 114.08 253.98 115.77 257.96 115.77C261 115.77 265.18 114.69 269.55 111.21C275.39 106.55 278.48 103.48 282.11 99.2301L282.1 99.2201C283.49 97.6601 284.69 96.3201 285.52 95.5801C289.79 91.7901 293.95 89.4301 293.95 89.4301C283.42 99.5601 278.15 106.93 278.15 111.53C278.15 114.36 280.08 115.77 283.94 115.77C289.09 115.77 300.98 108.03 316.66 94.9201C316.66 94.9201 305.94 106.26 305.88 111.52C305.85 114.36 307.69 115.77 311.32 115.77C315.18 115.77 320.21 113.41 326.42 108.68C331.81 104.52 335.7 100.76 337.03 99.5301C338.36 98.3001 343.1 94.0001 343.1 94.0001C334.79 104.3 330.63 110.97 330.63 114.02C330.63 115.25 332.43 115.42 333.44 115.25C335.86 114.84 342.31 110.51 352.66 101.03C363.02 91.5501 370.36 86.8101 374.69 86.8101C376.44 86.8301 377.32 87.6501 377.32 89.2901ZM203.16 93.2901C207.26 88.7501 210.47 86.4801 212.82 86.4801C214.22 86.4801 214.93 87.0201 214.93 88.0901C214.93 94.3001 208.18 99.5101 195.31 103.69C195.3 103.7 200 96.7601 203.16 93.2901ZM40.2903 82.3401C45.6803 82.4501 48.3203 84.8801 48.2303 89.6301C48.1502 93.4701 46.4403 96.9501 43.1003 100.04C39.7503 103.13 36.1403 104.65 32.2703 104.57C29.2503 104.51 26.8703 103.45 25.1303 101.4C23.4003 99.3501 22.5603 96.7901 22.6203 93.7201C22.6503 92.3501 22.8003 90.9501 23.1003 89.5301C29.2303 84.6301 34.9703 82.2301 40.2903 82.3401ZM110.67 25.6601C114.73 25.7401 118.02 26.5601 120.54 28.1101C123.78 30.0101 125.36 32.8201 125.29 36.5501C125.2 41.2601 122.08 46.4701 115.95 52.1801C111.15 56.6001 105.94 60.2701 100.32 63.1701C93.1803 66.8301 86.5902 68.6001 80.5703 68.4801C75.9902 68.3901 72.2803 67.2401 69.4403 65.0201C66.2803 62.5401 64.7403 59.0701 64.8303 54.6201C64.9303 49.2501 67.2702 43.4101 71.8503 37.0801C86.2103 29.2501 99.1503 25.4401 110.67 25.6601Z" fill="white"/>
<path d="M379.741 104.39C374.181 109.07 370.111 111.41 367.541 111.41C366.141 111.41 365.051 109.45 364.291 105.53C363.531 101.61 361.571 99.6499 358.411 99.6499C356.071 99.6499 354.311 100.18 353.141 101.23C355.011 100.53 355.951 102.34 355.951 106.67C355.951 109.6 356.181 111.65 356.651 112.82C357.591 114.69 359.341 115.63 361.921 115.63C365.901 115.63 370.931 113.35 377.021 108.78C378.541 107.61 380.761 105.74 383.691 103.16C387.321 99.8799 389.131 97.9499 389.131 97.3699V97.1899C388.431 97.3099 385.301 99.7099 379.741 104.39Z" fill="white"/>
<path fill-rule="evenodd" clip-rule="evenodd" d="M142.56 129.94C143.98 129.08 149.18 134.97 151.61 138.51C156.22 145.23 156.32 152.26 153.9 159.46C153.52 160.59 153.02 161.66 152.61 162.77C152.55 162.94 152.37 163.32 152.37 163.32C152.37 163.32 152.52 163.54 152.55 163.6C154.22 166.16 155.93 168.69 157.56 171.14C159.01 170.7 160.32 170.08 161.71 169.92C165.57 169.45 168.93 170.79 171.38 174.3C173.85 177.85 173.79 181.6 172.23 185.3C171.62 186.74 170.82 188.12 169.97 189.41C169.97 189.41 170.29 189.86 170.45 190.09C171.69 191.96 172.82 193.91 174.07 195.78C177.21 200.49 175.77 205.08 173.29 207.7C170.97 210.14 168.24 211.65 164.74 211.03C161.72 210.5 159.22 207.66 158.89 204.51C158.61 201.82 159.94 199.63 162.28 198.91C164.27 198.3 166.83 199.56 168.03 201.74C169.36 204.15 169.02 206.62 167.08 208.51C166.68 208.9 166.23 209.24 165.68 209.71C167.37 209.95 168.78 209.52 170.13 208.82C173.38 207.13 175.34 203.07 174.52 199.53C174.3 198.59 173.83 197.67 173.33 196.83C171.99 194.58 170.58 192.37 169.17 190.11C168.4 190.72 167.75 191.4 166.97 191.82C160.79 195.21 154.52 195.15 148.32 190.91C144.13 188.05 142.5 183.68 142.22 178.7C141.95 173.97 142.98 169.52 144.47 165.22C145.23 163.01 146.12 160.84 147.06 158.71C147.24 158.3 147.51 157.41 147.51 157.41C147.51 157.41 147.14 156.9 146.85 156.45C142.91 150.48 140.77 143.95 140.95 136.78C141 134.38 141.47 132.1 142.56 129.94ZM161.37 187.65C157.43 188.65 154.1 186.7 152.88 182.69C151.91 179.52 152.69 176.73 154.45 174.26C155.08 173.38 155.88 172.65 156.65 171.79C155.06 169.36 153.44 166.9 151.73 164.3C149.04 169.58 146.7 174.8 147 180.99C147.17 184.5 148.32 187.65 151.06 189.92C155.29 193.42 159.83 193.84 164.5 191.84C165.98 191.21 167.29 190.3 168.25 188.88C165.31 184.55 162.42 180.28 159.47 175.95C157.42 177.3 155.8 178.93 155.89 181.6C156 185.14 158.32 186.76 161.37 187.65ZM148.17 156.17C150.15 151.51 151.97 146.82 150.91 141.4C150.48 139.2 149.38 137.4 147.56 136.13C146.29 135.24 145.21 135.38 144.57 136.77C144.12 137.75 143.8 138.91 143.76 140.02C143.56 145.79 145.13 151.15 148.17 156.17ZM170.33 184.26C171.17 179.38 167.85 174.65 163.36 174.5C162.34 174.47 161.4 174.58 160.42 175.32C163.25 179.46 166.24 183.86 169.03 187.94C169.03 187.95 169.95 186.44 170.33 184.26Z" fill="white"/>
<path fill-rule="evenodd" clip-rule="evenodd" d="M187.24 146.54C189.28 150.42 191.36 154.43 193.4 158.3C194.84 161.03 194.25 163.59 191.69 165.3C190.76 165.92 189.72 166.38 188.66 165.64C187.59 164.9 187.63 163.78 187.95 162.69C188.62 160.44 190.05 158.94 192.52 158.46C190.97 155.55 189.45 152.7 187.87 149.73C183.81 152.4 179.8 155.03 175.76 157.68C177.7 161.33 179.58 164.84 181.44 168.35C182.87 171.05 181.65 174.35 178.79 175.51C177 176.23 175.61 175.25 175.69 173.32C175.79 171.05 177.58 169.06 180.41 168.17C178.18 163.98 175.96 159.81 173.69 155.56L187.24 146.54Z" fill="white"/>
<path fill-rule="evenodd" clip-rule="evenodd" d="M305.88 156.09C306.3 159.07 306.72 162.15 307.14 165.13C307.44 167.23 306.46 168.75 304.41 169.26C303.67 169.45 302.89 169.5 302.37 168.78C301.85 168.05 302.13 167.34 302.59 166.71C303.54 165.41 304.82 164.77 306.53 165.03C306.2 162.79 305.88 160.59 305.54 158.3C302.29 159.08 299.09 159.86 295.86 160.64C296.27 163.45 296.67 166.16 297.06 168.86C297.36 170.94 295.8 172.79 293.69 172.88C292.37 172.93 291.69 171.97 292.19 170.75C292.78 169.31 294.4 168.43 296.44 168.51C295.97 165.28 295.5 162.07 295.02 158.79L305.88 156.09Z" fill="white"/>
<path fill-rule="evenodd" clip-rule="evenodd" d="M325.76 166.79C325.44 168.38 325.1 170.01 324.79 171.6C324.57 172.72 323.8 173.31 322.67 173.21C322.26 173.17 321.86 173.06 321.72 172.6C321.59 172.14 321.86 171.83 322.2 171.59C322.92 171.1 323.67 171 324.5 171.44C324.73 170.25 324.96 169.08 325.2 167.85C323.42 167.67 321.65 167.49 319.88 167.31C319.59 168.81 319.31 170.25 319.02 171.69C318.8 172.8 317.68 173.46 316.6 173.12C315.92 172.91 315.75 172.3 316.22 171.77C316.78 171.14 317.76 170.99 318.77 171.39C319.11 169.67 319.44 167.96 319.78 166.21L325.76 166.79Z" fill="white"/>
<path fill-rule="evenodd" clip-rule="evenodd" d="M228.36 151.78C223.96 144.62 219.56 137.59 215.22 130.52C215.44 130.38 215.67 130.23 215.89 130.09C216.18 130.48 216.51 130.86 216.77 131.27C221.18 138.38 225.39 145.63 230.08 152.55C232.24 155.75 229.23 162.23 225.06 162.93C223.12 163.25 221.69 161.82 221.69 159.61C221.7 156.42 224.22 153.03 227.28 152.1C227.59 152.01 227.89 151.92 228.36 151.78Z" fill="white"/>
<path fill-rule="evenodd" clip-rule="evenodd" d="M266.73 164.12C265.86 157.75 264.95 151.46 264.09 145.18C264.29 145.15 264.49 145.12 264.69 145.09C264.77 145.46 264.89 145.82 264.94 146.19C265.83 152.53 266.55 158.91 267.69 165.2C268.22 168.11 264.11 171.71 260.97 170.92C259.51 170.55 258.95 169.1 259.64 167.56C260.63 165.33 263.44 163.73 265.88 164.02C266.12 164.05 266.35 164.08 266.73 164.12Z" fill="white"/>
<path fill-rule="evenodd" clip-rule="evenodd" d="M321.45 155.58C320.94 151.83 320.4 148.13 319.9 144.43C320.02 144.41 320.14 144.39 320.26 144.38C320.31 144.6 320.38 144.81 320.41 145.03C320.94 148.76 321.36 152.52 322.03 156.22C322.34 157.93 319.92 160.05 318.08 159.59C317.22 159.37 316.89 158.52 317.3 157.61C317.88 156.29 319.54 155.36 320.97 155.53C321.09 155.53 321.22 155.55 321.45 155.58Z" fill="white"/>
<path fill-rule="evenodd" clip-rule="evenodd" d="M332.52 164.08C332.48 163.95 332.46 163.85 332.43 163.75C331.85 161.66 331.27 159.56 330.69 157.47C330.65 157.31 330.59 157.17 330.87 157.17C331.27 157.98 332.05 158.41 332.72 158.95C333.05 159.22 333.39 159.47 333.68 159.77C334.45 160.57 334.52 161.53 334.23 162.54C334.22 162.57 334.2 162.6 334.18 162.63C334.17 162.64 334.15 162.65 334.09 162.68C334.28 160.77 333.65 159.51 331.5 159.41C331.54 159.54 331.56 159.64 331.59 159.73C332.02 161.29 332.45 162.85 332.89 164.41C333 164.79 332.98 165.14 332.78 165.48C332.4 166.15 331.86 166.63 331.07 166.76C330.31 166.89 329.85 166.34 330.08 165.6C330.39 164.63 331.44 163.95 332.52 164.08Z" fill="white"/>
<path fill-rule="evenodd" clip-rule="evenodd" d="M211.68 180.4C211.53 180.1 211.42 179.88 211.3 179.65C208.91 174.86 206.53 170.07 204.13 165.28C203.95 164.92 203.76 164.59 204.42 164.48C205.77 166.24 207.86 166.91 209.73 167.92C210.64 168.41 211.59 168.86 212.44 169.45C214.68 171.02 215.3 173.3 215.09 175.9C215.08 175.98 215.05 176.07 215.01 176.15C214.99 176.18 214.95 176.2 214.82 176.3C214.38 171.59 212.26 168.83 207.01 169.62C207.16 169.91 207.27 170.14 207.38 170.36C209.16 173.93 210.93 177.5 212.72 181.06C213.16 181.92 213.28 182.79 212.97 183.7C212.36 185.51 211.27 186.92 209.44 187.61C207.66 188.28 206.29 187.16 206.5 185.27C206.8 182.72 209.01 180.58 211.68 180.4Z" fill="white"/>
<path fill-rule="evenodd" clip-rule="evenodd" d="M154.604 141.597C167.644 133.037 188.033 124.49 217.45 124.49C244.118 124.49 261.451 129.562 276.464 135.817C281.217 137.797 285.726 139.89 290.22 141.976C299.935 146.486 309.574 150.96 321.432 154.182C330.062 156.53 336.782 156.252 342.332 154.515C347.887 152.777 352.303 149.568 356.313 145.998C357.945 144.546 359.505 143.039 361.049 141.547C361.404 141.205 361.757 140.863 362.111 140.523C364.001 138.705 365.883 136.937 367.844 135.372C371.769 132.238 376.031 129.894 381.357 129.55C381.551 129.538 381.717 129.684 381.73 129.878C381.742 130.071 381.596 130.237 381.403 130.25C376.274 130.581 372.146 132.834 368.281 135.919C366.347 137.463 364.485 139.211 362.597 141.028C362.246 141.366 361.893 141.706 361.539 142.048C359.995 143.54 358.423 145.059 356.779 146.522C352.736 150.12 348.233 153.403 342.541 155.184C336.845 156.967 329.987 157.236 321.248 154.858C309.332 151.62 299.604 147.106 289.862 142.584C285.381 140.504 280.896 138.423 276.194 136.464C261.254 130.239 244.012 125.191 217.45 125.191C188.177 125.191 167.921 133.693 154.989 142.183C148.521 146.429 143.882 150.673 140.862 153.853C139.353 155.443 138.248 156.767 137.521 157.691C137.158 158.154 136.89 158.516 136.712 158.762C136.624 158.885 136.558 158.979 136.515 159.041C136.493 159.073 136.477 159.096 136.467 159.112L136.455 159.129L136.453 159.133C136.453 159.133 136.452 159.134 136.444 159.129L136.452 159.134C136.345 159.295 136.128 159.339 135.966 159.232C135.805 159.125 135.761 158.908 135.868 158.747L136.16 158.94C135.868 158.747 135.868 158.747 135.868 158.747L135.869 158.744L135.873 158.739L135.886 158.719C135.898 158.702 135.915 158.676 135.938 158.643C135.984 158.577 136.052 158.479 136.144 158.352C136.326 158.099 136.601 157.729 136.97 157.258C137.709 156.318 138.828 154.978 140.354 153.371C143.406 150.157 148.086 145.876 154.604 141.597Z" fill="white"/>
<path fill-rule="evenodd" clip-rule="evenodd" d="M381.723 129.83C381.761 130.02 381.639 130.205 381.449 130.244C372.245 132.117 365.992 138.242 359.573 144.529C358.814 145.272 358.053 146.017 357.285 146.758C350.036 153.747 342.159 160.281 329.39 160.281C322.846 160.281 316.031 158.864 308.75 156.75C303.704 155.285 298.419 153.48 292.838 151.574C290.37 150.731 287.845 149.869 285.258 149.008C268.363 143.384 248.718 137.771 224.66 137.771C196.907 137.771 175.354 147.681 160.736 157.595C153.427 162.552 147.854 167.509 144.109 171.225C142.236 173.083 140.821 174.63 139.875 175.712C139.402 176.253 139.047 176.677 138.81 176.966C138.691 177.11 138.603 177.221 138.544 177.295C138.514 177.332 138.492 177.359 138.478 177.378L138.461 177.399L138.458 177.403L138.457 177.405C138.457 177.405 138.457 177.405 138.18 177.19C137.902 176.976 137.903 176.975 137.903 176.975L137.904 176.973L137.909 176.968L137.927 176.945C137.942 176.925 137.965 176.896 137.996 176.858C138.057 176.781 138.148 176.668 138.268 176.521C138.51 176.227 138.87 175.797 139.348 175.251C140.304 174.158 141.73 172.598 143.615 170.727C147.385 166.987 152.992 162.001 160.343 157.015C175.045 147.044 196.732 137.07 224.66 137.07C248.831 137.07 268.561 142.711 285.479 148.343C288.08 149.208 290.612 150.073 293.083 150.917C298.655 152.82 303.916 154.616 308.945 156.077C316.201 158.183 322.943 159.58 329.39 159.58C341.87 159.58 349.573 153.219 356.799 146.253C357.564 145.515 358.324 144.77 359.084 144.025C365.484 137.753 371.89 131.474 381.31 129.557C381.499 129.518 381.684 129.641 381.723 129.83ZM137.965 177.467C137.812 177.349 137.784 177.129 137.902 176.976L138.18 177.19L138.457 177.405C138.338 177.558 138.118 177.586 137.965 177.467Z" fill="white"/>
<path fill-rule="evenodd" clip-rule="evenodd" d="M381.723 129.839C381.763 130.028 381.641 130.214 381.452 130.253C370.933 132.435 364.494 139.65 357.936 146.997C357.424 147.571 356.911 148.145 356.396 148.718C349.298 156.608 341.706 164.167 328.418 164.85C317.538 165.409 308.464 162.839 297.515 159.737C296.251 159.379 294.963 159.014 293.644 158.646C280.887 155.087 265.197 151.214 241.381 150.57C212.057 149.778 187.072 161.109 169.407 172.652C160.576 178.423 153.58 184.243 148.792 188.62C146.398 190.809 144.557 192.636 143.315 193.915C142.694 194.555 142.223 195.057 141.907 195.399C141.749 195.571 141.63 195.702 141.551 195.789C141.512 195.833 141.482 195.867 141.462 195.889L141.44 195.914L141.434 195.921C141.434 195.921 141.434 195.921 141.17 195.69C140.907 195.459 140.907 195.458 140.908 195.458L140.909 195.456L140.915 195.449L140.939 195.423C140.959 195.4 140.99 195.366 141.03 195.321C141.111 195.231 141.232 195.098 141.392 194.924C141.711 194.578 142.187 194.071 142.812 193.427C144.063 192.139 145.914 190.302 148.319 188.103C153.129 183.706 160.155 177.861 169.024 172.065C186.758 160.477 211.884 149.072 241.4 149.87C265.294 150.516 281.044 154.403 293.832 157.971C295.151 158.339 296.438 158.704 297.699 159.061C308.663 162.165 317.624 164.703 328.382 164.15C341.365 163.483 348.788 156.127 355.875 148.249C356.396 147.67 356.915 147.088 357.435 146.506C363.965 139.185 370.555 131.798 381.309 129.567C381.499 129.528 381.684 129.649 381.723 129.839ZM140.939 195.953C140.794 195.825 140.78 195.603 140.908 195.458L141.17 195.69L141.434 195.921C141.306 196.066 141.084 196.081 140.939 195.953Z" fill="white"/>
<path fill-rule="evenodd" clip-rule="evenodd" d="M381.712 129.828C381.752 130.017 381.631 130.203 381.442 130.243C370.339 132.58 364.756 139.194 359.101 146.564C358.762 147.005 358.423 147.449 358.083 147.895C352.742 154.893 347.044 162.358 336.353 167.14C324.813 172.302 313.183 170.217 298.568 167.597C297.955 167.487 297.337 167.376 296.713 167.265C281.197 164.497 262.19 161.421 236.244 165.476C208.085 169.879 185.522 183.045 169.993 195.118C162.23 201.154 156.228 206.914 152.168 211.164C150.138 213.289 148.593 215.036 147.557 216.251C147.039 216.859 146.648 217.333 146.387 217.655C146.257 217.816 146.159 217.939 146.094 218.021C146.061 218.063 146.037 218.094 146.02 218.114L146.002 218.137L145.998 218.143L145.997 218.144C145.997 218.145 145.997 218.145 145.72 217.93C145.442 217.716 145.443 217.716 145.443 217.715L145.444 217.714L145.449 217.707L145.468 217.682C145.485 217.661 145.511 217.629 145.544 217.586C145.611 217.502 145.711 217.377 145.843 217.214C146.108 216.887 146.502 216.408 147.024 215.796C148.068 214.572 149.621 212.815 151.661 210.68C155.741 206.41 161.768 200.625 169.563 194.565C185.152 182.445 207.824 169.211 236.135 164.784L236.19 165.13L236.135 164.784C262.199 160.71 281.297 163.803 296.836 166.575C297.429 166.681 298.017 166.786 298.599 166.891C313.302 169.525 324.729 171.572 336.066 166.5C346.591 161.793 352.191 154.458 357.538 147.454C357.875 147.013 358.21 146.574 358.545 146.137C364.213 138.751 369.93 131.95 381.297 129.557C381.487 129.518 381.673 129.639 381.712 129.828ZM145.505 218.207C145.352 218.089 145.324 217.869 145.442 217.716L145.72 217.93L145.997 218.145C145.878 218.298 145.658 218.326 145.505 218.207Z" fill="white"/>
</g>
<defs>
<clipPath id="clip0">
<rect width="389.13" height="218.28" fill="white"/>
</clipPath>
</defs>
</svg>
