<svg width="299" height="73" viewBox="0 0 299 73" fill="none" xmlns="http://www.w3.org/2000/svg">
<g clip-path="url(#clip0)">
<path d="M101.24 35.9999H93V30.9199H115.48V35.9999H107.24V49.9999H101.24V35.9999Z" fill="#222220"/>
<path d="M138.52 30.9199V49.9999H132.72V38.8799L122.72 49.9999H117.6V30.9999H123.4V41.9999L133.4 30.9199H138.52Z" fill="#222220"/>
<path d="M148.51 50H142.71V31H148.51V38H157.83V31H163.63V50H157.83V42.88H148.51V50Z" fill="#222220"/>
<path d="M167.82 50V31H173.62V36H179.62C181.053 35.9259 182.487 36.1019 183.86 36.52C185.177 36.9649 186.315 37.8256 187.101 38.9725C187.887 40.1195 188.28 41.4907 188.22 42.88C188.27 44.3868 187.801 45.8651 186.89 47.0668C185.98 48.2685 184.684 49.1206 183.22 49.48C182.033 49.7959 180.808 49.944 179.58 49.92L167.82 50ZM173.62 45.4H178.62C179.391 45.4694 180.168 45.374 180.9 45.12C181.342 44.9378 181.72 44.6268 181.984 44.2275C182.248 43.8281 182.386 43.3586 182.38 42.88C182.388 42.4149 182.244 41.9598 181.97 41.5842C181.695 41.2086 181.306 40.9331 180.86 40.8C180.132 40.5953 179.375 40.5141 178.62 40.56H173.62V45.4Z" fill="#222220"/>
<path d="M196.64 50H190.84V31H196.64V38.16H198.24L205.24 31H212.52L203.24 40L212.88 50H205.16L198.24 42.8H196.64V50Z" fill="#222220"/>
<path d="M237.4 40.4804C237.4 46.1604 232.72 50.5604 224.96 50.5604C217.2 50.5604 212.48 46.1604 212.48 40.4804C212.48 34.8004 217.16 30.4004 225 30.4004C232.84 30.4004 237.4 34.8004 237.4 40.4804ZM231.32 40.4804C231.32 37.3604 228.8 35.0804 224.96 35.0804C221.12 35.0804 218.6 37.3604 218.6 40.4804C218.6 43.6004 221.08 45.9204 224.96 45.9204C228.84 45.9204 231.32 43.6004 231.32 40.4804Z" fill="#222220"/>
<path d="M268.19 40.4398C268.19 45.8798 263.83 48.7198 256.51 48.8798V50.7998H250.71V48.8798C243.43 48.7198 239.07 45.8798 239.07 40.4398C239.07 34.9998 243.43 31.9198 250.71 31.7598V29.8398H256.51V31.7598C263.84 31.9198 268.19 34.9998 268.19 40.4398ZM250.71 35.8798C246.71 36.0398 244.95 37.8798 244.95 40.4398C244.95 42.9998 246.71 44.6398 250.71 44.7998V35.8798ZM262.27 40.4398C262.27 37.8798 260.55 36.0398 256.51 35.8798V44.7998C260.56 44.6398 262.28 42.9998 262.28 40.4398H262.27Z" fill="#222220"/>
<path d="M299 40.4398C299 45.8798 294.64 48.7198 287.32 48.8798V50.7998H281.52V48.8798C274.24 48.7198 269.88 45.8798 269.88 40.4398C269.88 34.9998 274.24 31.9198 281.52 31.7598V29.8398H287.32V31.7598C294.64 31.9198 299 34.9998 299 40.4398ZM281.52 35.8798C277.52 36.0398 275.76 37.8798 275.76 40.4398C275.76 42.9998 277.52 44.6398 281.52 44.7998V35.8798ZM293.08 40.4398C293.08 37.8798 291.36 36.0398 287.32 35.8798V44.7998C291.36 44.6398 293.07 42.9998 293.07 40.4398H293.08Z" fill="#222220"/>
<path d="M79.93 33.83L81 30.47L77.52 30.58C75.8896 30.5154 74.3156 29.9652 73 29C73.16 29 73.31 29 73.47 29C74.5111 28.9961 75.5304 28.7021 76.4136 28.151C77.2969 27.5998 78.009 26.8134 78.47 25.88L80 22.61C78.8 22.62 77.6007 22.5499 76.41 22.4C75.2718 22.1322 74.2467 21.5129 73.48 20.63C72.9666 20.0826 72.3473 19.6452 71.6597 19.3443C70.9721 19.0435 70.2305 18.8855 69.48 18.88C68.8857 18.8828 68.2955 18.9773 67.73 19.16C67.8145 18.8913 67.8813 18.6174 67.93 18.34C68.1652 16.3875 67.6188 14.4212 66.41 12.87L63.77 9.62L62.15 13.42C61.8928 13.9638 61.496 14.4297 61 14.77C60.7246 13.4143 60.0569 12.1695 59.08 11.19C58.2684 10.359 57.2974 9.70036 56.2252 9.25359C55.1529 8.80683 54.0015 8.58113 52.84 8.59C52.4316 8.58801 52.0237 8.61811 51.62 8.68L48.46 9.3C48.7334 8.24131 49.1649 7.22993 49.74 6.3L51.48 3.59L47.1 4L45.7 1L43 2.47L40.5 0L38 2.47L35.3 1.07L33.9 4L29.52 3.5L31.26 6.22C31.837 7.14893 32.2687 8.16062 32.54 9.22L29.54 8.63H29.44C29.023 8.56684 28.6017 8.53674 28.18 8.54C27.0184 8.53055 25.8668 8.756 24.7945 9.20279C23.7222 9.64959 22.7512 10.3085 21.94 11.14C20.9476 12.1308 20.2724 13.3944 20 14.77C19.5151 14.4398 19.1255 13.9881 18.87 13.46L17.24 9.63L14.58 12.89C13.3919 14.443 12.8572 16.3986 13.09 18.34C13.1395 18.6172 13.2063 18.8911 13.29 19.16C12.7248 18.9762 12.1344 18.8817 11.54 18.88C10.7895 18.8855 10.0479 19.0435 9.36034 19.3443C8.67273 19.6452 8.05343 20.0826 7.54 20.63C6.7774 21.503 5.76511 22.1209 4.64 22.4C3.43535 22.5783 2.21717 22.6486 1 22.61L2.49 25.93C2.95196 26.8627 3.66428 27.6485 4.54729 28.1995C5.4303 28.7505 6.44919 29.045 7.49 29.05C7.65 29.05 7.8 29.05 7.96 29.05C6.65974 29.9999 5.10857 30.5459 3.5 30.62L0 30.47L1.07 33.83C1.46134 35.12 2.21684 36.2696 3.24572 37.1406C4.2746 38.0116 5.5331 38.567 6.87 38.74C6.73167 39.6126 6.38738 40.4397 5.86566 41.1527C5.34395 41.8657 4.65983 42.4441 3.87 42.84L1.19 43.93L2.63 46.44C3.21346 47.3477 4.01761 48.0926 4.96725 48.6051C5.91689 49.1175 6.98098 49.3807 8.06 49.37C8.63136 49.3687 9.20105 49.3084 9.76 49.19C9.90318 49.8016 10.0767 50.4057 10.28 51C10.7767 52.3159 10.8119 53.7614 10.38 55.1L9.08 57.83L11.99 58.6C12.6438 58.7654 13.3156 58.8493 13.99 58.85C14.468 58.8522 14.9445 58.7985 15.41 58.69C15.7511 58.6138 16.0856 58.5101 16.41 58.38C16.7849 59.0502 17.2454 59.6687 17.78 60.22C19.64 62.13 22.28 63.1 25.63 63.1H28.02L23.09 65.15L26.83 67C28.3351 67.7446 29.8771 68.4121 31.45 69L31 70.3L32.29 70.89C34.4315 71.7312 36.7006 72.2012 39 72.28C39 72.28 40 72.28 40.54 72.28C41.08 72.28 42.07 72.28 42.07 72.28C44.3599 72.1952 46.6187 71.7218 48.75 70.88L50 70.3L49.56 69C51.1509 68.39 52.7096 67.6991 54.23 66.93L57.9 65.15L52.98 63.15H55.38C58.73 63.15 61.38 62.15 63.23 60.27C63.7653 59.7193 64.2259 59.1007 64.6 58.43C64.9248 58.559 65.2592 58.6627 65.6 58.74C66.0656 58.8479 66.5421 58.9016 67.02 58.9C67.6943 58.8981 68.3659 58.8142 69.02 58.65L71.94 57.88L70.67 55.2C70.1941 53.8374 70.2118 52.3509 70.72 51C70.93 50.39 71.1 49.77 71.24 49.15C71.8023 49.2685 72.3753 49.3288 72.95 49.33C74.038 49.3388 75.1099 49.0674 76.0626 48.542C77.0154 48.0166 77.8169 47.2548 78.39 46.33L79.81 43.85L77.17 42.77C76.3792 42.3754 75.6942 41.7974 75.1723 41.0842C74.6504 40.3709 74.3068 39.5431 74.17 38.67C75.5081 38.4962 76.7675 37.9393 77.7965 37.0664C78.8255 36.1936 79.5803 35.0419 79.97 33.75L79.93 33.83Z" fill="white"/>
<path d="M40.5002 10.3008C37.7102 10.3008 35.6102 11.2208 35.1602 12.3008L40.5002 14.4108L45.8402 12.3008C45.3902 11.2208 43.2902 10.3008 40.5002 10.3008Z" fill="white"/>
<path d="M40.56 66.1209H40.45C38.7132 66.1062 36.9844 65.8847 35.3 65.4609L34 69.1109C36.1331 69.7067 38.3353 70.0194 40.55 70.0409C42.7647 70.0197 44.9669 69.707 47.1 69.1109L45.7 65.4609C44.0155 65.8841 42.2867 66.1057 40.55 66.1209" fill="white"/>
<path d="M50.7802 62.4902C49.3131 63.2218 47.7879 63.8305 46.2202 64.3102L47.3202 67.3102C49.0651 66.8488 50.7601 66.2157 52.3802 65.4202L50.1102 64.6602L50.7802 62.4902Z" fill="white"/>
<path d="M30.2199 62.4902L30.8899 64.6902L28.6099 65.4502C30.2303 66.245 31.9252 66.878 33.6699 67.3402L34.7699 64.3402C33.2023 63.8602 31.6771 63.2515 30.2099 62.5202" fill="white"/>
<path d="M40.4999 6.81039C42.5055 6.78877 44.4849 7.26645 46.2599 8.20039C46.4302 7.62113 46.6373 7.05331 46.8799 6.50039L46.2799 6.57039L45.6499 6.64039L45.3799 6.07039L44.5799 4.37039L43.1199 5.13039L42.5499 5.42039L42.0899 5.00039L40.4999 3.40039L38.9099 5.00039L38.4599 5.45039L37.8899 5.16039L36.4199 4.40039L35.6299 6.10039L35.3599 6.67039L34.7299 6.60039L34.1299 6.53039C34.3714 7.08374 34.5784 7.65149 34.7499 8.23039C36.5195 7.28843 38.4952 6.8005 40.4999 6.81039Z" fill="white"/>
<path d="M72.6501 26.4109C72.9169 26.5041 73.1975 26.5514 73.4801 26.5509C74.0428 26.5466 74.5939 26.3911 75.0759 26.1009C75.558 25.8106 75.9531 25.3962 76.2201 24.9009C74.4645 24.6089 72.864 23.7185 71.6901 22.3809C71.4105 22.0683 71.0685 21.8178 70.6861 21.6455C70.3037 21.4733 69.8895 21.3831 69.4701 21.3809C68.8133 21.3912 68.1724 21.5852 67.6201 21.9409C70.4601 23.4509 71.0401 25.8709 72.6201 26.4209" fill="white"/>
<path d="M7.53004 26.5491C7.80935 26.5496 8.08668 26.5022 8.35004 26.4091C9.97004 25.8591 10.55 23.4091 13.35 21.9291C12.8006 21.5753 12.1635 21.3814 11.51 21.3691C11.0907 21.3714 10.6764 21.4615 10.294 21.6338C9.91164 21.806 9.56962 22.0565 9.29004 22.3691C8.12533 23.7045 6.5362 24.598 4.79004 24.8991C5.05619 25.3951 5.45116 25.8102 5.93337 26.1005C6.41557 26.3909 6.96716 26.5459 7.53004 26.5491Z" fill="white"/>
<path d="M73.4198 36.2604H73.5598C76.5598 36.2604 77.5598 33.0804 77.5598 33.0804H77.4998C75.9325 33.0317 74.3947 32.6414 72.9939 31.9367C71.5931 31.232 70.3631 30.2299 69.3898 29.0004C67.3298 26.3904 65.6498 24.0904 62.3198 23.1904L61.9998 23.1104L61.9298 22.7804C61.8398 22.2704 62.1898 21.7804 62.9298 21.2804C67.5198 18.2804 64.3998 14.4404 64.3998 14.4404C64.3998 14.4404 63.1298 17.5004 60.1998 17.5004H59.9998C59.6643 17.4942 59.3299 17.4608 58.9998 17.4004L58.4598 17.3004C58.682 16.5338 58.6894 15.7209 58.4813 14.9503C58.2733 14.1797 57.8577 13.481 57.2798 12.9304C56.7034 12.3377 56.0127 11.8681 55.2495 11.5501C54.4863 11.2321 53.6665 11.0723 52.8398 11.0804C52.545 11.0769 52.2504 11.1004 51.9598 11.1504C52.9598 12.4804 53.7098 14.6804 52.5398 16.0304C51.5398 17.2004 49.0498 17.2504 49.0498 19.0304C49.0498 19.7704 49.7398 20.6304 50.9698 21.4004C54.6898 23.7404 58.3798 26.8504 59.9098 31.0104C61.8298 36.2004 59.6698 39.6504 56.5798 41.6204C57.2506 42.1856 58.0769 42.5342 58.9498 42.6204C59.2398 42.6204 59.5098 42.6204 59.7698 42.6204C61.3819 42.6884 62.9681 42.1974 64.2598 41.2304C64.0042 42.6014 63.3861 43.879 62.4698 44.9304C61.7149 45.8068 60.771 46.5006 59.7092 46.9596C58.6475 47.4186 57.4954 47.6309 56.3398 47.5804C56.3478 48.0502 56.4564 48.5129 56.6582 48.9372C56.8601 49.3615 57.1504 49.7377 57.5098 50.0404C58.31 50.5766 59.2242 50.919 60.1798 51.0404C60.1798 51.0404 56.6898 51.7504 56.3098 56.9004C56.3201 58.2107 56.0039 59.5029 55.3898 60.6604H55.4498C63.5398 60.6604 63.3298 53.7204 63.3298 53.7204C63.5392 54.3572 63.9084 54.9297 64.4021 55.3831C64.8958 55.8366 65.4975 56.1558 66.1498 56.3104C66.4245 56.3789 66.7067 56.4125 66.9898 56.4104C67.4482 56.4073 67.9047 56.3503 68.3498 56.2404C67.6205 54.3069 67.6205 52.1739 68.3498 50.2404C68.9215 48.6366 69.1993 46.9428 69.1698 45.2404C69.6335 45.7954 70.2228 46.2318 70.8889 46.5136C71.555 46.7953 72.2786 46.9142 72.9998 46.8604C73.6385 46.8698 74.2693 46.7181 74.8339 46.4192C75.3984 46.1203 75.8785 45.684 76.2298 45.1504C70.8398 42.9104 71.3698 35.6804 71.3698 35.6804C71.9925 36.0613 72.7099 36.2589 73.4398 36.2504L73.4198 36.2604ZM71.8198 43.8004C69.6298 42.7204 68.2398 39.8004 67.8998 38.8004C67.5398 44.5004 64.7598 48.4504 61.5098 52.2504C60.5143 53.3939 59.7411 54.7131 59.2298 56.1404C59.4959 54.7134 60.1031 53.3719 60.9998 52.2304C63.9998 48.5904 66.9198 44.0504 67.1298 38.8104C67.2961 35.6295 66.5092 32.4714 64.8698 29.7404C65.3813 31.2196 65.4573 32.8145 65.0885 34.3356C64.7198 35.8566 63.9219 37.2397 62.7898 38.3204C62.7898 38.3204 68.3398 31.6604 60.5798 24.8404C57.4698 22.2404 54.0698 20.6404 52.3198 19.5004C58.6398 21.5604 61.7298 19.2904 61.7298 19.2904C60.8546 19.9733 59.8418 20.4583 58.7611 20.7121C57.6804 20.9659 56.5575 20.9824 55.4698 20.7604C55.9098 20.9704 56.3698 21.2004 56.8598 21.4604C62.1898 24.3604 66.9898 29.1204 67.7998 35.7204V35.6704C69.0398 42.1504 71.7998 43.8104 71.7998 43.8104" fill="white"/>
<path d="M20.8199 50.9992C21.7755 50.8778 22.6897 50.5354 23.4899 49.9992C23.8493 49.6965 24.1397 49.3203 24.3415 48.896C24.5433 48.4716 24.6519 48.009 24.6599 47.5392C23.5029 47.589 22.3496 47.3765 21.2864 46.9176C20.2231 46.4587 19.2774 45.7652 18.5199 44.8892C17.6093 43.8353 16.995 42.5584 16.7399 41.1892C18.0317 42.1562 19.6178 42.6472 21.2299 42.5792C21.4999 42.5792 21.7699 42.5792 22.0599 42.5792C22.9325 42.4918 23.7585 42.1433 24.4299 41.5792C21.3399 39.5792 19.1799 36.1592 21.0999 30.9692C22.6399 26.8092 26.3199 23.6992 30.0399 21.3592C31.2699 20.5992 31.9999 19.7392 31.9999 18.9992C31.9999 17.2592 29.5299 17.1992 28.5199 15.9992C27.3499 14.6392 28.0799 12.4392 29.0899 11.1192C28.7994 11.069 28.5048 11.0456 28.2099 11.0492C27.3832 11.0411 26.5634 11.2009 25.8002 11.5189C25.0371 11.8369 24.3463 12.3065 23.7699 12.8992C23.1921 13.4498 22.7765 14.1485 22.5684 14.9191C22.3603 15.6896 22.3678 16.5025 22.5899 17.2692L21.9999 17.3992C21.6697 17.4586 21.3354 17.492 20.9999 17.4992H20.7899C17.8499 17.4992 16.5399 14.4292 16.5399 14.4292C16.5399 14.4292 13.4499 18.2692 17.9999 21.2792C18.7899 21.7892 19.1399 22.2792 18.9999 22.7792L18.9299 23.1092L18.5999 23.1692C15.2799 24.0692 13.5999 26.3692 11.5299 28.9792C10.5612 30.2103 9.33537 31.215 7.93803 31.9232C6.54069 32.6314 5.00558 33.0259 3.43994 33.0792H3.45994C3.45994 33.0792 4.45994 36.2592 7.45994 36.2592H7.59994C8.32975 36.2671 9.04708 36.0696 9.66994 35.6892C9.66994 35.6892 10.1999 42.9192 4.80994 45.1592C5.15868 45.6852 5.63293 46.116 6.18986 46.4128C6.74679 46.7096 7.36887 46.863 7.99994 46.8592C8.71791 46.9017 9.43574 46.7735 10.0945 46.4849C10.7534 46.1964 11.3344 45.7557 11.7899 45.1992C11.7581 46.9009 12.0325 48.5945 12.5999 50.1992C13.3266 52.1332 13.3266 54.2652 12.5999 56.1992C13.0417 56.3084 13.4948 56.3655 13.9499 56.3692C14.2331 56.3718 14.5154 56.3382 14.7899 56.2692C15.4418 56.1137 16.0431 55.7942 16.5367 55.3408C17.0303 54.8875 17.3997 54.3155 17.6099 53.6792C17.6099 53.6792 17.3999 60.6192 25.4999 60.6192H25.5599C24.9474 59.4611 24.6313 58.1693 24.6399 56.8592C24.3099 51.7292 20.8199 50.9992 20.8199 50.9992ZM19.5199 52.2592C16.2699 48.4492 13.5199 44.4992 13.1199 38.8092C12.7799 39.8092 11.3999 42.7192 9.20994 43.8092C9.20994 43.8092 11.9699 42.1492 13.2099 35.6692V35.7192C14.0299 29.1192 18.8199 24.3492 24.1599 21.4592C24.6499 21.1892 25.1099 20.9692 25.5499 20.7592C24.4638 20.9796 23.3428 20.9624 22.264 20.7086C21.1851 20.4549 20.174 19.9707 19.2999 19.2892C19.2999 19.2892 22.3899 21.5592 28.7099 19.4992C26.9599 20.6392 23.5599 22.2392 20.4599 24.8392C12.6899 31.6592 18.2499 38.3192 18.2499 38.3192C17.1168 37.2392 16.3182 35.8561 15.9494 34.3348C15.5806 32.8135 15.6571 31.2182 16.1699 29.7392C14.5243 32.4676 13.7369 35.6276 13.9099 38.8092C14.0999 43.9992 16.9999 48.5792 19.9999 52.2292C20.9082 53.3774 21.5226 54.7298 21.7899 56.1692C21.2761 54.7431 20.5031 53.4243 19.5099 52.2792" fill="white"/>
<path d="M34.5202 25.65C34.6502 25.79 34.7802 25.95 34.9102 26.1L35.0002 26.21L35.3502 26.7L35.4302 26.81C35.5602 27.01 35.6902 27.23 35.8202 27.45C36.2664 28.3391 36.9306 29.1007 37.7507 29.6638C38.5708 30.2268 39.5202 30.573 40.5102 30.67C41.5 30.5721 42.449 30.2256 43.269 29.6626C44.0889 29.0996 44.7533 28.3385 45.2002 27.45C45.3302 27.23 45.4602 27.01 45.6002 26.81L45.6602 26.72C45.7802 26.55 45.9002 26.38 46.0202 26.21L46.1002 26.11C46.2302 25.95 46.3602 25.79 46.5002 25.65L46.5702 25.59C47.1786 24.9518 47.9496 24.492 48.8002 24.26L48.3702 24L46.7302 23L45.0402 22L40.5302 24.45L36.0002 22.09L34.3102 23.09L32.6602 24.09L32.2402 24.33C33.091 24.5615 33.8622 25.0214 34.4702 25.66L34.5402 25.73L34.5202 25.65ZM38.7002 25.53H42.5102V26.84C42.3371 26.6726 42.1287 26.5462 41.9002 26.47C41.6718 26.3939 41.4292 26.37 41.1902 26.4V28.29C41.2001 28.756 41.3236 29.2126 41.5502 29.62H39.6402C39.882 29.1898 40.0061 28.7035 40.0002 28.21V26.32C39.7613 26.29 39.5187 26.3139 39.2902 26.39C39.0618 26.4662 38.8533 26.5926 38.6802 26.76L38.7002 25.53Z" fill="white"/>
<path d="M40.11 22.9096V15.2496L35.23 13.5996L36.52 20.9996L40.11 22.9096ZM39.11 17.1296V18.3596L38.87 18.2496C38.503 18.1259 38.1634 17.9324 37.87 17.6796C37.6088 17.5145 37.3849 17.2967 37.2127 17.0401C37.0405 16.7836 36.9238 16.4939 36.87 16.1896L39.11 17.1296Z" fill="white"/>
<path d="M44.4801 21.0001L45.7601 13.5801L40.8901 15.2301V22.8901L44.4801 21.0001ZM41.9401 17.1101L44.1601 16.1801C44.1063 16.4844 43.9896 16.774 43.8174 17.0306C43.6452 17.2872 43.4213 17.505 43.1601 17.6701C42.8667 17.9228 42.5271 18.1164 42.1601 18.2401L41.9201 18.3501L41.9401 17.1101Z" fill="white"/>
<path d="M33.21 40.6698C33.6459 40.8113 34.1017 40.8822 34.56 40.8798V40.7398C34.588 40.6511 34.6113 40.5609 34.63 40.4698C34.7018 40.0702 34.742 39.6657 34.75 39.2598C34.4777 39.0969 34.2561 38.8614 34.11 38.5798C34.0493 38.4123 33.9374 38.2681 33.7903 38.1676C33.6431 38.0671 33.4681 38.0154 33.29 38.0198C32.8473 38.0573 32.4209 38.2051 32.05 38.4498C31.9912 38.8894 32.0679 39.3364 32.2698 39.7313C32.4717 40.1262 32.7892 40.4501 33.18 40.6598" fill="white"/>
<path d="M44.0001 36.6094C43.0901 37.6094 41.3201 39.3094 41.2401 39.3994L41.1301 39.5094L35.5301 39.4194C35.5253 39.8816 35.4649 40.3416 35.3501 40.7894V40.9694L42.0001 42.1594C42.6901 41.6794 44.6001 40.2794 45.3401 39.7394C44.8821 39.0364 44.7137 38.1836 44.8701 37.3594C44.5498 37.1586 44.2658 36.905 44.0301 36.6094" fill="white"/>
<path d="M44.7601 29.8691C43.8097 30.901 42.5227 31.5604 41.1301 31.7291C40.9269 31.7395 40.7233 31.7395 40.5201 31.7291C40.3169 31.7395 40.1133 31.7395 39.9101 31.7291C39.7083 31.7127 39.5078 31.6826 39.3101 31.6391C39.1813 32.1235 39.2165 32.6369 39.4101 33.0991C39.5533 33.3768 39.7511 33.6227 39.9917 33.822C40.2323 34.0213 40.5106 34.17 40.8101 34.2591L41.0401 34.3491V34.5991C41.0656 35.1102 41.2587 35.5986 41.5894 35.9889C41.9202 36.3793 42.3702 36.65 42.8701 36.7591C43.1601 36.4591 43.4201 36.1891 43.6201 35.9591C43.4456 35.6071 43.3883 35.2086 43.4567 34.8217C43.5251 34.4348 43.7155 34.08 44.0001 33.8091C43.9191 34.3976 44.0146 34.9968 44.2746 35.5308C44.5345 36.0649 44.9471 36.5098 45.4601 36.8091L45.7401 36.9391L45.6601 37.2391C45.4783 37.8241 45.531 38.4568 45.8072 39.0036C46.0834 39.5504 46.5614 39.9683 47.1401 40.1691L47.5101 40.3091L47.3501 40.6691C47.1119 41.2113 47.09 41.824 47.2889 42.3818C47.4879 42.9395 47.8925 43.4001 48.4201 43.6691H52.5801V40.3691C52.0135 40.2959 51.486 40.041 51.0767 39.6425C50.6674 39.244 50.3984 38.7235 50.3101 38.1591C49.6861 38.077 49.119 37.7539 48.7301 37.2591C48.4857 36.9376 48.3444 36.5496 48.3248 36.1462C48.3051 35.7428 48.4081 35.3429 48.6201 34.9991C48.6294 35.668 48.8736 36.3122 49.3101 36.8191C49.6701 37.1928 50.1532 37.4237 50.6701 37.4691H50.9701V37.7791C50.9997 38.213 51.17 38.6254 51.4551 38.9539C51.7402 39.2823 52.1246 39.5088 52.5501 39.5991V32.9391C52.5883 31.884 52.8152 30.8443 53.2201 29.8691H44.7601Z" fill="white"/>
<path d="M33.5702 32.9595L33.4502 37.2595L33.9402 37.3295L35.1402 33.2095L34.5302 31.9395L33.5702 32.9595Z" fill="white"/>
<path d="M46.73 52.6591H46.85C47.59 52.8691 47.78 55.5491 49.08 55.7891C49.1963 55.8011 49.3136 55.8011 49.43 55.7891C49.5964 55.7899 49.7603 55.7491 49.907 55.6706C50.0537 55.592 50.1785 55.478 50.27 55.3391C50.27 55.3391 49.61 54.3391 49.12 53.6091C48.47 52.6991 47.96 51.6091 46.75 51.6091H46.66C46.4267 51.6187 46.2011 51.6951 46.01 51.8291C45.6056 51.5643 45.1333 51.4219 44.65 51.4191C44.0907 51.4864 43.5385 51.6035 43 51.7691L40.29 51.4991C39.9259 51.4115 39.6102 51.1855 39.41 50.8691V50.7991C39.41 50.7291 39.41 50.6491 39.41 50.5791C39.4291 49.8526 39.1997 49.1414 38.7596 48.5632C38.3195 47.9849 37.6952 47.5742 36.99 47.3991C36.99 47.3991 37.06 46.9791 36.9 46.8191L36.3 47.5391L34.3 46.5391L35.7 48.1691L34.52 49.4991C34.4621 49.5548 34.424 49.628 34.4113 49.7073C34.3987 49.7867 34.4123 49.8681 34.45 49.9391L34.96 50.3891L35.61 49.9991C35.6623 49.9846 35.7176 49.9846 35.77 49.9991C35.95 49.9991 36.22 49.9991 36.46 49.9991C36.7 49.9991 36.95 49.9391 36.98 49.6991C36.9 50.5191 36.14 51.9491 36.64 53.0691L37 53.9991L34.61 53.6591L33.49 55.5491C33.3143 55.7911 33.214 56.0797 33.2015 56.3785C33.1891 56.6773 33.2651 56.9732 33.42 57.2291L33.84 57.7491C34.1302 57.4549 34.3731 57.1176 34.56 56.7491L34.37 56.5391C34.3007 56.4728 34.2575 56.3838 34.2484 56.2883C34.2392 56.1929 34.2646 56.0973 34.32 56.0191L35.02 54.8491L37.85 55.5191L38 55.2691C38.0776 55.136 38.1908 55.0272 38.3268 54.9547C38.4628 54.8823 38.6162 54.8492 38.77 54.8591C38.8998 54.8489 39.0302 54.8489 39.16 54.8591C39.9009 55.0086 40.6542 55.089 41.41 55.0991C41.8369 55.1428 42.2682 55.1007 42.6787 54.9754C43.0891 54.85 43.4703 54.6439 43.8 54.3691C44.8 55.8891 46.9 56.1291 46.73 56.8991L46.18 59.4991C46.54 59.4991 46.89 59.4991 47.18 59.4091L47.7 56.7091C47.76 56.4191 47.81 56.0191 47.81 56.0191C47.4198 55.6891 47.0826 55.3012 46.81 54.8691C46.44 54.1691 46.64 53.7991 46.3 52.8691C46.3333 52.8073 46.3822 52.7554 46.4419 52.7186C46.5015 52.6817 46.5699 52.6612 46.64 52.6591H46.73ZM36.06 48.8591C36.0275 48.8578 35.9957 48.85 35.9664 48.8361C35.9371 48.8222 35.9109 48.8026 35.8894 48.7783C35.8679 48.754 35.8515 48.7255 35.8413 48.6947C35.8311 48.6639 35.8272 48.6314 35.83 48.5991C35.8312 48.5666 35.839 48.5348 35.8529 48.5055C35.8668 48.4762 35.8865 48.4499 35.9108 48.4285C35.9351 48.407 35.9635 48.3906 35.9943 48.3804C36.0251 48.3702 36.0576 48.3663 36.09 48.3691C36.1549 48.3691 36.2173 48.3949 36.2632 48.4408C36.3092 48.4868 36.335 48.5491 36.335 48.6141C36.335 48.679 36.3092 48.7414 36.2632 48.7873C36.2173 48.8333 36.1549 48.8591 36.09 48.8591" fill="white"/>
<path d="M32.2899 55.12C32.2899 55.12 33.2299 54.73 33.2899 54.46L33.1699 54.15C33.119 54.063 33.1011 53.9605 33.1195 53.8614C33.1378 53.7622 33.1912 53.673 33.2699 53.61L34.2699 52.91L35.9599 53.23C35.7697 52.973 35.6711 52.6596 35.6799 52.34L34.0999 52L32.5799 52.93C32.3148 53.1276 32.1235 53.4083 32.0365 53.7272C31.9495 54.0462 31.9719 54.3852 32.0999 54.69L32.2899 55.12Z" fill="white"/>
<path d="M44.2402 59.5302H45.2402C45.2402 59.5302 46.1102 56.9902 46.1602 56.9102C45.5139 56.6087 44.8831 56.275 44.2702 55.9102C44.5302 56.3002 45.1602 56.7402 45.0302 57.0802L44.2402 59.5302Z" fill="white"/>
<path d="M52.52 44.4492H28.52V53.4492C28.52 57.1492 31.19 59.4492 35.14 59.4492C38.44 59.4492 39.31 59.5792 40.53 60.7992C40.9121 60.3871 41.3767 60.0601 41.8936 59.8396C42.4105 59.619 42.9681 59.5099 43.53 59.5192V59.3792L44.29 57.0392L43 55.6292C42.4818 55.7854 41.9404 55.8497 41.4 55.8192C40.594 55.8101 39.7906 55.7264 39 55.5692H38.75C38.64 55.5692 38.64 55.5692 38.61 55.6292L38.46 55.8792L38.19 56.3292L37.67 56.2092L35.36 55.6692L35.04 56.1892V56.2492L35.32 56.5592L35.2 56.9592C34.99 57.4488 34.6878 57.8936 34.31 58.2692L33.73 58.8892L33.2 58.2292L32.81 57.7392C32.6042 57.4692 32.4706 57.1513 32.4216 56.8154C32.3726 56.4796 32.4099 56.1367 32.53 55.8192L31.88 56.0892L31.59 55.4492L31.43 54.9992C31.2327 54.5403 31.1975 54.0278 31.3302 53.5462C31.4629 53.0646 31.7555 52.6424 32.16 52.3492L34.02 51.3492L35.79 51.6992C35.79 51.5292 35.9 50.9192 35.95 50.7692H35.85L34.85 51.1492L33.85 50.4692C33.801 50.4209 33.7621 50.3632 33.7356 50.2997C33.7091 50.2362 33.6954 50.1681 33.6954 50.0992C33.6954 50.0304 33.7091 49.9622 33.7356 49.8987C33.7621 49.8352 33.801 49.7776 33.85 49.7292L34.8 48.2892L32.39 45.2892L36 46.7092L36.25 46.4092L36.75 45.8092L37.32 46.3492C37.4705 46.4962 37.5747 46.6838 37.62 46.8892C38.62 47.2892 40.47 48.4592 40.62 50.3592L40.05 50.5892C40.1188 50.6878 40.2118 50.767 40.32 50.8192L42.96 51.0792L43.2 51.0092C43.6514 50.8403 44.1281 50.749 44.61 50.7392C45.088 50.7425 45.5594 50.8518 45.99 51.0592C46.183 50.9899 46.3852 50.9494 46.59 50.9392H46.72C48.13 50.9392 48.84 51.9992 49.4 52.8392L49.69 53.2592C50.18 53.9592 50.83 54.9792 50.86 55.0192L51.15 55.4692L50.79 55.8892C50.6254 56.1041 50.4135 56.2782 50.1707 56.3979C49.9279 56.5176 49.6607 56.5796 49.39 56.5792C49.2304 56.5942 49.0697 56.5942 48.91 56.5792C48.7658 56.5508 48.625 56.5073 48.49 56.4492C48.49 56.5892 48.49 56.7592 48.41 56.8992L48 59.2592C49.3182 58.9938 50.4985 58.267 51.3288 57.2094C52.1591 56.1518 52.585 54.8327 52.53 53.4892L52.52 44.4492Z" fill="#FCE527"/>
<path d="M28.4898 43.7191H47.1798C46.8062 43.327 46.5458 42.8411 46.4261 42.3129C46.3063 41.7847 46.3318 41.234 46.4998 40.7191C46.2468 40.5981 46.0113 40.4433 45.7998 40.2591C45.0698 40.7991 42.7998 42.4191 42.2598 42.8291L42.1398 42.9091L34.7998 41.6091H34.6498C34.41 41.6233 34.1696 41.6233 33.9298 41.6091C33.8957 41.7671 33.8087 41.9086 33.6833 42.0104C33.5578 42.1123 33.4014 42.1682 33.2398 42.1691H33.1198C32.9309 42.1372 32.7621 42.0323 32.6498 41.877C32.5376 41.7217 32.4909 41.5285 32.5198 41.3391V41.1791C32.0568 40.8454 31.7013 40.3838 31.497 39.8508C31.2927 39.3179 31.2485 38.7369 31.3698 38.1791V38.0491L31.4798 37.9691C31.4798 37.9691 31.6198 37.8691 31.8098 37.7591L31.2798 37.6791C31.185 37.662 31.1005 37.6085 31.0445 37.5301C30.9885 37.4516 30.9653 37.3544 30.9798 37.2591C30.9871 37.2116 31.0038 37.1659 31.029 37.1249C31.0542 37.0839 31.0873 37.0484 31.1265 37.0204C31.1656 36.9925 31.21 36.9726 31.2569 36.9621C31.3039 36.9516 31.3525 36.9506 31.3998 36.9591L32.6698 37.1591L32.7898 32.6891L34.6798 30.6891L35.8598 33.1691L34.6198 37.4691L35.7398 37.6491C35.8347 37.6663 35.9191 37.7198 35.9752 37.7982C36.0312 37.8766 36.0544 37.9738 36.0398 38.0691C36.0255 38.1539 35.9813 38.2307 35.9153 38.2857C35.8493 38.3408 35.7658 38.3703 35.6798 38.3691H35.6198L34.7098 38.2191V38.2891C34.8109 38.4677 34.9646 38.6109 35.1498 38.6991L40.7398 38.7891L42.1698 37.3791C41.6358 37.1946 41.1648 36.8629 40.8109 36.4224C40.4571 35.9819 40.2349 35.4504 40.1698 34.8891C39.4733 34.6226 38.9047 34.1004 38.5798 33.4291C38.3085 32.7971 38.2626 32.091 38.4498 31.4291C37.5694 31.084 36.7744 30.5517 36.1198 29.8691H27.8198C28.2215 30.8453 28.4482 31.8844 28.4898 32.9391V43.7191Z" fill="#FCE527"/>
<path d="M36.1798 48.37C36.1475 48.3673 36.1149 48.3711 36.0841 48.3813C36.0533 48.3915 36.0249 48.4079 36.0006 48.4294C35.9763 48.4509 35.9566 48.4771 35.9427 48.5064C35.9288 48.5357 35.921 48.5676 35.9198 48.6C35.9171 48.6323 35.9209 48.6649 35.9311 48.6957C35.9413 48.7265 35.9577 48.7549 35.9792 48.7792C36.0007 48.8035 36.0269 48.8232 36.0562 48.8371C36.0855 48.851 36.1174 48.8588 36.1498 48.86C36.2148 48.86 36.2771 48.8342 36.323 48.7882C36.369 48.7423 36.3948 48.68 36.3948 48.615C36.3948 48.55 36.369 48.4877 36.323 48.4417C36.2771 48.3958 36.2148 48.37 36.1498 48.37" fill="#222220"/>
<path d="M52.49 64.77L51.11 64.24L51.49 62.81L51.91 61.25C50.0203 62.2167 48.041 62.997 46 63.58C45 63.86 44.28 63.99 44.28 63.99V65C43.0498 65.1997 41.8063 65.3067 40.56 65.32H40.45C39.2037 65.3069 37.9602 65.1999 36.73 65V64C36.73 64 36 63.86 35 63.58C32.9589 62.9974 30.9795 62.217 29.09 61.25L29.5 62.81L29.89 64.24L28.5 64.77L27 65.34C29.0628 66.4101 31.2141 67.3001 33.43 68L32.9 69.44C35.3144 70.3637 37.8856 70.8087 40.47 70.75H40.53C43.1145 70.8092 45.6857 70.3642 48.1 69.44L47.58 68C49.7931 67.3013 51.9412 66.4112 54 65.34L52.49 64.77ZM28.63 65.44L30.91 64.68L30.24 62.48C31.7072 63.2114 33.2324 63.8201 34.8 64.3L33.7 67.3C31.9555 66.8371 30.2607 66.2041 28.64 65.41L28.63 65.44ZM40.51 70C38.3105 69.988 36.122 69.6888 34 69.11L35.35 65.45C37.0344 65.8734 38.7632 66.095 40.5 66.11H40.61C42.3467 66.0941 44.0754 65.8725 45.76 65.45L47.11 69.11C44.977 69.7061 42.7747 70.0188 40.56 70.04L40.51 70ZM47.38 67.33L46.28 64.33C47.8476 63.8503 49.3729 63.2415 50.84 62.51L50.17 64.71L52.44 65.47C50.8196 66.2649 49.1247 66.8979 47.38 67.36" fill="#222220"/>
<path d="M40.4998 7.69039C42.7604 7.6288 44.9793 8.30642 46.8198 9.62039C47.1065 8.13699 47.6587 6.71756 48.4498 5.43039L46.1798 5.69039L44.9998 3.16039L42.7098 4.34039L40.4998 2.15039L38.2898 4.34039L35.9998 3.16039L34.8198 5.69039L32.5498 5.43039C33.3415 6.71726 33.8937 8.13681 34.1798 9.62039C36.021 8.30774 38.2394 7.63026 40.4998 7.69039ZM34.7198 6.57039L35.3498 6.64039L35.6198 6.07039L36.4098 4.37039L37.8798 5.13039L38.4498 5.42039L38.9098 5.00039L40.4998 3.39039L42.0898 5.00039L42.5498 5.45039L43.1198 5.16039L44.5798 4.40039L45.3798 6.10039L45.6498 6.67039L46.2798 6.60039L46.8798 6.53039C46.6372 7.08331 46.4301 7.65113 46.2598 8.23039C44.4787 7.31775 42.5061 6.84179 40.5048 6.84179C38.5035 6.84179 36.5309 7.31775 34.7498 8.23039C34.5784 7.65149 34.3713 7.08374 34.1298 6.53039L34.7198 6.57039Z" fill="#222220"/>
<path d="M73.5599 37.2396C77.1999 37.2396 78.4199 33.5296 78.4699 33.3696L78.8799 32.0596H77.5099C76.0871 32.0103 74.6922 31.6509 73.4227 31.0067C72.1532 30.3624 71.0397 29.4488 70.1599 28.3296L69.8899 27.9996C68.0299 25.6296 66.2599 23.3796 63.0999 22.3496C63.2251 22.2392 63.3589 22.1389 63.4999 22.0496C64.242 21.63 64.8851 21.0556 65.3855 20.3654C65.8859 19.6752 66.2318 18.8853 66.3999 18.0496C66.571 16.5212 66.1406 14.9862 65.1999 13.7696L64.1999 12.5196L63.5699 14.0096C63.5699 14.0996 62.4599 16.4896 60.2199 16.4896H59.9999H59.5599C59.6208 15.7121 59.5129 14.9308 59.2436 14.1989C58.9744 13.4671 58.5501 12.8021 57.9999 12.2496C57.3308 11.5659 56.5308 11.024 55.6477 10.6563C54.7646 10.2886 53.8164 10.1027 52.8599 10.1096C52.5016 10.1081 52.1439 10.1348 51.7899 10.1896L50.2599 10.4896L51.2099 11.7396C51.9499 12.7396 52.6199 14.4696 51.8299 15.3996C51.4513 15.7288 51.0181 15.9893 50.5499 16.1696C49.5499 16.6396 48.1099 17.3096 48.1099 18.9896C48.1099 20.0796 48.9599 21.2196 50.4899 22.1896C54.9999 25.0496 57.7899 27.9996 58.9999 31.3196C60.8699 36.3796 58.4299 39.2596 56.0599 40.7796L54.9999 41.4596L55.9299 42.3096C56.7584 43.0195 57.7843 43.4592 58.8699 43.5696C59.1899 43.5696 59.4899 43.5696 59.7799 43.5696C60.708 43.573 61.6314 43.4381 62.5199 43.1696C62.2959 43.5605 62.0347 43.9289 61.7399 44.2696C61.0732 45.044 60.2382 45.6556 59.2988 46.0578C58.3593 46.4599 57.3404 46.6418 56.3199 46.5896H55.4299L55.3599 47.4796C55.356 48.0957 55.4874 48.7053 55.7449 49.2651C56.0023 49.825 56.3795 50.3215 56.8499 50.7196C57.0993 50.9383 57.3788 51.1202 57.6799 51.2596C56.9475 51.9739 56.363 52.8256 55.9598 53.7658C55.5566 54.7061 55.3425 55.7166 55.3299 56.7396C55.3283 57.872 55.0719 58.9896 54.5799 60.0096L53.5799 61.5096H55.3599C58.2999 61.5096 60.5499 60.7029 62.1099 59.0896C62.9191 58.238 63.5213 57.2114 63.8699 56.0896C64.4481 56.5763 65.1335 56.919 65.8699 57.0896C66.2207 57.1706 66.5798 57.2109 66.9399 57.2096C67.4787 57.208 68.0156 57.1443 68.5399 57.0196L69.6799 56.7196L69.1799 55.6596C68.5518 53.9659 68.5518 52.1032 69.1799 50.4096C69.5504 49.3051 69.8084 48.1659 69.9499 47.0096C70.8506 47.4682 71.8491 47.7015 72.8599 47.6896C73.6742 47.7015 74.4782 47.5068 75.1969 47.1239C75.9156 46.7409 76.5256 46.1821 76.9699 45.4996L77.5199 44.4996L76.5199 44.0796C73.1699 42.6896 72.4299 38.9496 72.2799 36.9296C72.6094 36.9964 72.9438 37.0365 73.2799 37.0496L73.5599 37.2396ZM76.2199 45.1596C75.8683 45.6898 75.3893 46.1233 74.8267 46.4203C74.2641 46.7174 73.636 46.8684 72.9999 46.8596C72.2819 46.9021 71.5641 46.7738 70.9053 46.4853C70.2465 46.1967 69.6654 45.7561 69.2099 45.1996C69.2391 46.902 68.9614 48.5957 68.3899 50.1996C67.6605 52.1331 67.6605 54.2661 68.3899 56.1996C67.9448 56.3095 67.4883 56.3666 67.0299 56.3696C66.7468 56.3716 66.4646 56.338 66.1899 56.2696C65.538 56.1141 64.9367 55.7945 64.4431 55.3412C63.9495 54.8879 63.5801 54.3159 63.3699 53.6796C63.3699 53.6796 63.5799 60.6196 55.4899 60.6196H55.4299C56.044 59.4621 56.3602 58.1698 56.3499 56.8596C56.6999 51.7296 60.1799 50.9996 60.1799 50.9996C59.2242 50.8785 58.3099 50.5361 57.5099 49.9996C57.1505 49.6968 56.8601 49.3207 56.6583 48.8963C56.4565 48.472 56.3479 48.0094 56.3399 47.5396C57.4955 47.59 58.6475 47.3778 59.7093 46.9188C60.7711 46.4598 61.7149 45.766 62.4699 44.8896C63.3862 43.8382 64.0043 42.5606 64.2599 41.1896C62.9681 42.1565 61.382 42.6476 59.7699 42.5796C59.5099 42.5796 59.2299 42.5796 58.9499 42.5796C58.077 42.4934 57.2507 42.1447 56.5799 41.5796C59.6599 39.5796 61.8199 36.1596 59.9099 30.9696C58.3699 26.8096 54.6799 23.6996 50.9699 21.3596C49.7399 20.5996 48.9999 19.7396 48.9999 18.9996C48.9999 17.2596 51.4699 17.2096 52.4899 15.9996C53.6599 14.6396 52.9299 12.4396 51.9099 11.1196C52.2005 11.0695 52.495 11.0461 52.7899 11.0496C53.6166 11.0415 54.4364 11.2013 55.1996 11.5193C55.9627 11.8373 56.6535 12.3068 57.2299 12.8996C57.8077 13.4502 58.2233 14.1489 58.4314 14.9194C58.6395 15.69 58.632 16.5029 58.4099 17.2696L58.9499 17.3796C59.28 17.4395 59.6144 17.4729 59.9499 17.4796H60.1699C63.0999 17.4796 64.4199 14.4096 64.4199 14.4096C64.4199 14.4096 67.5399 18.2496 62.9499 21.2496C62.1599 21.7596 61.8099 22.2496 61.9499 22.7496L62.0199 23.0796L62.3499 23.1396C65.6799 24.0396 67.3499 26.3396 69.4199 28.9496C70.389 30.1802 71.615 31.1845 73.0122 31.8927C74.4095 32.6008 75.9444 32.9956 77.5099 33.0496H77.5699C77.5699 33.0496 76.5699 36.2296 73.5699 36.2296H73.4299C72.7 36.2381 71.9825 36.0405 71.3599 35.6596C71.3599 35.6596 70.8299 42.8896 76.2199 45.1296" fill="#222220"/>
<path d="M67.15 22.8004C68.2717 23.4364 69.2436 24.306 70 25.3504C70.5677 26.2315 71.3812 26.9269 72.34 27.3504C72.7042 27.4723 73.086 27.5332 73.47 27.5304C74.2215 27.5281 74.9579 27.3187 75.5983 26.9253C76.2386 26.532 76.7582 25.9697 77.1 25.3004L77.68 24.0004L76.27 23.9204C74.7532 23.6449 73.3767 22.8579 72.37 21.6904C71.9991 21.2877 71.5494 20.9654 71.0488 20.7435C70.5483 20.5216 70.0075 20.4048 69.46 20.4004C68.6042 20.4138 67.7693 20.6667 67.05 21.1304L65.75 22.0404L67.15 22.8004ZM69.46 21.3804C69.8794 21.3826 70.2936 21.4728 70.676 21.645C71.0584 21.8173 71.4004 22.0678 71.68 22.3804C72.8544 23.7174 74.4547 24.6076 76.21 24.9004C75.943 25.3957 75.5479 25.8101 75.0658 26.1004C74.5838 26.3907 74.0327 26.5461 73.47 26.5504C73.1874 26.5508 72.9068 26.5034 72.64 26.4104C71.02 25.8604 70.45 23.4104 67.64 21.9304C68.1923 21.5748 68.8332 21.3808 69.49 21.3704" fill="#222220"/>
<path d="M67.7901 35.6702C66.9701 29.0702 62.1801 24.3002 56.8501 21.4102C56.3601 21.1402 55.9001 20.9202 55.4601 20.7102C56.5478 20.9315 57.6705 20.9147 58.7511 20.661C59.8317 20.4072 60.8445 19.9225 61.7201 19.2402C61.7201 19.2402 58.6301 21.5102 52.3101 19.4502C54.0601 20.5902 57.4601 22.1902 60.5701 24.7902C68.3301 31.6102 62.7801 38.2702 62.7801 38.2702C63.9139 37.1907 64.7136 35.808 65.0842 34.2869C65.4547 32.7658 65.3804 31.1703 64.8701 29.6902C66.5094 32.4212 67.2963 35.5793 67.1301 38.7602C66.9101 44.0002 64.0001 48.5802 61.0001 52.2302C60.0954 53.3794 59.4844 54.7318 59.2201 56.1702C59.7313 54.743 60.5046 53.4237 61.5001 52.2802C64.7501 48.4702 67.5001 44.5202 67.8901 38.8302C68.2301 39.8302 69.6101 42.7402 71.8101 43.8302C71.8101 43.8302 69.0501 42.1702 67.8101 35.6902" fill="#222220"/>
<path d="M26.4101 60.0805C25.9253 59.058 25.6693 57.9421 25.6601 56.8105C25.6461 55.7868 25.4305 54.7759 25.0256 53.8356C24.6206 52.8953 24.0343 52.044 23.3001 51.3305C23.6015 51.1917 23.8811 51.0098 24.1301 50.7905C24.601 50.3928 24.9786 49.8964 25.2361 49.3365C25.4936 48.7765 25.6247 48.1668 25.6201 47.5505L25.5601 46.6605H24.6601C23.6412 46.7112 22.6243 46.5285 21.6867 46.1264C20.7491 45.7244 19.9158 45.1135 19.2501 44.3405C18.9568 43.9986 18.6957 43.6304 18.4701 43.2405C19.3584 43.5097 20.282 43.6445 21.2101 43.6405C21.5001 43.6405 21.8001 43.6405 22.1201 43.6405C23.209 43.5315 24.2385 43.0918 25.0701 42.3805L26.0001 41.5305L24.9401 40.8505C22.5601 39.3305 20.1301 36.4505 22.0001 31.3905C23.2101 28.1005 26.0001 25.1305 30.5501 22.2705C32.0801 21.2705 32.9201 20.1605 32.9201 19.0705C32.9201 17.3905 31.5101 16.7205 30.4801 16.2505C30.0115 16.071 29.5782 15.8104 29.2001 15.4805C28.4001 14.5505 29.0701 12.7805 29.8201 11.8205L30.8201 10.5705L29.2801 10.2705C28.9261 10.2154 28.5683 10.1886 28.2101 10.1905C27.2474 10.1625 26.289 10.3307 25.3933 10.6849C24.4977 11.039 23.6834 11.5717 23.0001 12.2505C22.4401 12.8001 22.0061 13.4648 21.7281 14.1986C21.4502 14.9324 21.3348 15.7178 21.3901 16.5005H20.9501H20.7901C18.5401 16.5005 17.4801 14.1205 17.4401 14.0205L16.8101 12.5305L15.8101 13.7805C14.8805 15.0024 14.4546 16.5341 14.6201 18.0605C14.7858 18.8959 15.1297 19.6857 15.6285 20.376C16.1272 21.0663 16.769 21.6409 17.5101 22.0605C17.6516 22.1492 17.7854 22.2495 17.9101 22.3605C14.7501 23.3605 12.9801 25.6405 11.1201 28.0105L10.8501 28.3505C9.96923 29.471 8.85408 30.3854 7.58274 31.0297C6.3114 31.674 4.9146 32.0326 3.49012 32.0805H2.12012L2.54012 33.3905C2.54012 33.5505 3.80012 37.2605 7.45012 37.2605H7.63012C7.96609 37.2469 8.30046 37.2067 8.63012 37.1405C8.48012 39.1405 7.74012 42.9005 4.38012 44.2905L3.38012 44.7105L3.93012 45.7105C4.37439 46.393 4.98436 46.9518 5.70307 47.3348C6.42179 47.7178 7.22582 47.9124 8.04012 47.9005C9.04742 47.9105 10.0422 47.6772 10.9401 47.2205C11.0808 48.377 11.3388 49.5162 11.7101 50.6205C12.3382 52.3141 12.3382 54.1768 11.7101 55.8705L11.2101 56.9305L12.3501 57.2305C12.8744 57.3552 13.4112 57.419 13.9501 57.4205C14.3102 57.4221 14.6693 57.3819 15.0201 57.3005C15.7567 57.1307 16.4423 56.7879 17.0201 56.3005C17.3683 57.4225 17.9706 58.4491 18.7801 59.3005C20.3468 60.9072 22.5968 61.7138 25.5301 61.7205H27.3101L26.4101 60.0805ZM25.5501 60.6405C17.4601 60.6405 17.6601 53.7005 17.6601 53.7005C17.4499 54.3368 17.0804 54.9088 16.5869 55.3621C16.0933 55.8155 15.492 56.135 14.8401 56.2905C14.5655 56.3595 14.2832 56.3931 14.0001 56.3905C13.545 56.3871 13.0919 56.33 12.6501 56.2205C13.3767 54.2865 13.3767 52.1545 12.6501 50.2205C12.0826 48.6158 11.8083 46.9222 11.8401 45.2205C11.3845 45.777 10.8035 46.2177 10.1447 46.5062C9.48592 46.7948 8.76809 46.923 8.05012 46.8805H8.00012C7.36139 46.8899 6.7306 46.7382 6.16604 46.4393C5.60148 46.1404 5.12138 45.704 4.77012 45.1705C10.1601 42.9305 9.63012 35.7005 9.63012 35.7005C9.00725 36.0809 8.28993 36.2784 7.56012 36.2705H7.45012C4.45012 36.2705 3.45012 33.0905 3.45012 33.0905H3.51012C5.07666 33.0398 6.61323 32.6476 8.01234 31.9411C9.41146 31.2346 10.6393 30.231 11.6101 29.0005C13.6701 26.3905 15.3501 24.0905 18.6801 23.1905L19.0101 23.1305L19.0801 22.8005C19.1701 22.2905 18.8201 21.8005 18.0801 21.3005C13.4901 18.3005 16.6101 14.4605 16.6101 14.4605C16.6101 14.4605 17.9101 17.5305 20.8601 17.5305H21.0001C21.3356 17.5233 21.6699 17.4899 22.0001 17.4305L22.5401 17.3205C22.3168 16.5539 22.3088 15.7407 22.5169 14.9699C22.7251 14.1991 23.1413 13.5005 23.7201 12.9505C24.2965 12.3578 24.9872 11.8882 25.7504 11.5702C26.5136 11.2522 27.3334 11.0924 28.1601 11.1005C28.455 11.0968 28.7496 11.1202 29.0401 11.1705C28.0401 12.5005 27.3001 14.7005 28.4701 16.0505C29.4701 17.2205 31.9501 17.2705 31.9501 19.0505C31.9501 19.7905 31.2601 20.6505 30.0301 21.4205C26.3101 23.7605 22.6201 26.8705 21.0901 31.0305C19.1801 36.2205 21.3401 39.6705 24.4201 41.6405C23.7487 42.2046 22.9227 42.5531 22.0501 42.6405C21.7601 42.6405 21.4901 42.6405 21.2201 42.6405C19.608 42.7085 18.0218 42.2175 16.7301 41.2505C16.9851 42.6198 17.5994 43.8967 18.5101 44.9505C19.2675 45.8266 20.2133 46.52 21.2765 46.9789C22.3398 47.4378 23.4931 47.6503 24.6501 47.6005C24.6421 48.0703 24.5335 48.5329 24.3317 48.9573C24.1299 49.3816 23.8395 49.7578 23.4801 50.0605C22.6799 50.5967 21.7657 50.9391 20.8101 51.0605C20.8101 51.0605 24.3001 51.7705 24.6801 56.9205C24.6715 58.2306 24.9876 59.5224 25.6001 60.6805L25.5501 60.6405Z" fill="#222220"/>
<path d="M7.53008 27.5204C7.91408 27.523 8.29588 27.4622 8.66008 27.3404C9.61917 26.9174 10.4329 26.2219 11.0001 25.3404C11.7535 24.2971 12.722 23.4276 13.8401 22.7904L15.2401 22.0404L13.9401 21.1304C13.2241 20.6675 12.3926 20.4146 11.5401 20.4004C10.9918 20.4061 10.4506 20.5244 9.95001 20.748C9.44941 20.9717 9.00014 21.2958 8.63008 21.7004C7.62539 22.8653 6.25297 23.652 4.74008 23.9304L3.33008 24.0004L3.90008 25.3004C4.24244 25.9664 4.76105 26.5255 5.39939 26.917C6.03772 27.3085 6.77128 27.5172 7.52008 27.5204H7.53008ZM9.31008 22.3804C9.58966 22.0678 9.93168 21.8173 10.3141 21.645C10.6964 21.4728 11.1107 21.3826 11.5301 21.3804C12.1834 21.3931 12.8204 21.587 13.3701 21.9404C10.5401 23.4504 9.95008 25.8704 8.37008 26.4204C8.10677 26.5137 7.82941 26.561 7.55008 26.5604C6.98278 26.5598 6.42632 26.405 5.94018 26.1126C5.45404 25.8202 5.05651 25.4012 4.79008 24.9004C6.54567 24.6084 8.14618 23.718 9.32008 22.3804" fill="#222220"/>
<path d="M13.89 38.7993C13.7169 35.6178 14.5043 32.4577 16.15 29.7293C15.6384 31.2092 15.5634 32.8051 15.934 34.3265C16.3046 35.8478 17.1051 37.2304 18.24 38.3093C18.24 38.3093 12.68 31.6493 20.45 24.8293C23.56 22.2293 26.95 20.6293 28.7 19.4893C22.38 21.5493 19.29 19.2793 19.29 19.2793C20.164 19.9608 21.1751 20.445 22.254 20.6988C23.3328 20.9525 24.4538 20.9697 25.54 20.7493C25.1 20.9593 24.64 21.1893 24.15 21.4493C18.82 24.3493 14 29.1193 13.21 35.7193V35.6693C11.97 42.1493 9.20996 43.8093 9.20996 43.8093C11.4 42.7293 12.79 39.8093 13.12 38.8093C13.49 44.5093 16.27 48.4593 19.52 52.2593C20.5134 53.4043 21.2864 54.7231 21.8 56.1493C21.5266 54.716 20.9088 53.3707 20 52.2293C17 48.5793 14.1 43.9993 13.89 38.7993Z" fill="#222220"/>
<path d="M38.6699 25.4492V26.7592C38.8441 26.5904 39.0543 26.4632 39.2846 26.387C39.5149 26.3108 39.7594 26.2876 39.9999 26.3192V28.2092C39.9922 28.6756 39.8684 29.1326 39.6399 29.5392H41.5299C41.3033 29.1318 41.1797 28.6753 41.1699 28.2092V26.3192C41.4088 26.2892 41.6515 26.3131 41.8799 26.3893C42.1084 26.4654 42.3168 26.5918 42.4899 26.7592V25.4492H38.6699Z" fill="#222220"/>
<path d="M37.8599 17.6892C38.1533 17.942 38.4929 18.1355 38.8599 18.2592L39.0999 18.3692V17.1292L36.8799 16.1992C36.9337 16.5035 37.0504 16.7932 37.2226 17.0498C37.3948 17.3063 37.6187 17.5241 37.8799 17.6892" fill="#222220"/>
<path d="M43.1399 17.6892C43.4011 17.5241 43.625 17.3063 43.7972 17.0498C43.9694 16.7932 44.0861 16.5035 44.1399 16.1992L41.9199 17.1292V18.3592L42.1499 18.2492C42.5169 18.1255 42.8565 17.932 43.1499 17.6792" fill="#222220"/>
<path d="M47.1298 12.6691C47.1298 10.7991 43.9798 9.11914 40.5098 9.11914C37.0398 9.11914 33.8898 10.7991 33.8898 12.6691L33.9598 13.1291L35.3498 21.1291L33.9598 21.9391L30.3298 23.9991C30.3298 23.9991 29.5198 24.4191 29.1398 24.6691C27.7698 25.6691 27.4798 27.0091 28.2698 27.5891C28.3675 26.9304 28.7034 26.3303 29.2139 25.9027C29.7245 25.4751 30.3742 25.2497 31.0398 25.2691C31.6072 25.2853 32.1627 25.4349 32.6614 25.706C33.16 25.977 33.5878 26.3618 33.9098 26.8291C34.1056 27.0709 34.286 27.3247 34.4498 27.5891C34.6598 27.9291 34.8698 28.2291 35.0798 28.5191H25.8198C26.5988 29.8626 27.0542 31.3691 27.1498 32.9191V53.4891C27.1498 58.4891 30.9798 60.8391 35.1498 60.8391C38.3498 60.8391 38.7798 60.6891 40.5398 62.4491C42.2998 60.6891 42.7298 60.8391 45.9298 60.8391C50.0698 60.8391 53.9298 58.4691 53.9298 53.4891V32.9391C54.0255 31.3891 54.4808 29.8826 55.2598 28.5391H45.8998C46.1098 28.2491 46.3198 27.9491 46.5298 27.6091C46.696 27.3463 46.8763 27.0926 47.0698 26.8491C47.3935 26.381 47.8229 25.9958 48.3233 25.7248C48.8237 25.4537 49.3809 25.3045 49.9498 25.2891C50.6155 25.2697 51.2652 25.4951 51.7757 25.9227C52.2862 26.3503 52.6222 26.9504 52.7198 27.6091C53.5198 27.0391 53.2298 25.6091 51.8498 24.6891C51.4798 24.4291 50.6698 24.0191 50.6698 24.0191L47.0698 21.8991L45.6798 21.0891L47.0698 13.0891L47.1298 12.6691ZM35.2298 13.5891L40.1098 15.2391V22.8991L36.5198 20.9991L35.2298 13.5891ZM36.2298 29.8691C36.8842 30.552 37.6792 31.0843 38.5598 31.4291C38.3726 32.091 38.4185 32.7971 38.6898 33.4291C39.0147 34.1004 39.5833 34.6226 40.2798 34.8891C40.3449 35.4504 40.5671 35.9819 40.9209 36.4224C41.2748 36.8629 41.7458 37.1946 42.2798 37.3791C41.6798 37.9891 41.0898 38.5591 40.8498 38.7891L35.2598 38.6991C35.0746 38.6109 34.9209 38.4677 34.8198 38.2891V38.2191L35.7298 38.3691H35.7898C35.8758 38.3703 35.9593 38.3408 36.0253 38.2857C36.0913 38.2307 36.1355 38.1539 36.1498 38.0691C36.1644 37.9738 36.1412 37.8766 36.0852 37.7982C36.0291 37.7198 35.9447 37.6663 35.8498 37.6491L34.7298 37.4691L35.9698 33.1691L34.7898 30.6891L32.8998 32.6891L32.7798 37.1591L31.5098 36.9591C31.4625 36.9506 31.4139 36.9516 31.3669 36.9621C31.32 36.9726 31.2756 36.9925 31.2365 37.0204C31.1973 37.0484 31.1642 37.0839 31.139 37.1249C31.1138 37.1659 31.0971 37.2116 31.0898 37.2591C31.0753 37.3544 31.0985 37.4516 31.1545 37.5301C31.2105 37.6085 31.295 37.662 31.3898 37.6791L31.9198 37.7591C31.7298 37.8691 31.5998 37.9491 31.5898 37.9691L31.4798 38.0491V38.1791C31.3598 38.7369 31.4046 39.3174 31.6088 39.8501C31.813 40.3828 32.1677 40.8446 32.6298 41.1791V41.3391C32.6009 41.5285 32.6476 41.7217 32.7598 41.877C32.8721 42.0323 33.0409 42.1372 33.2298 42.1691H33.3498C33.5114 42.1682 33.6678 42.1123 33.7933 42.0104C33.9187 41.9086 34.0057 41.7671 34.0398 41.6091C34.2763 41.6229 34.5134 41.6229 34.7498 41.6091H34.8998L42.2298 42.9391L42.3498 42.8591C42.9298 42.4491 45.1598 40.8591 45.8898 40.2891C46.1014 40.4732 46.3369 40.628 46.5898 40.7491C46.4218 41.264 46.3963 41.8147 46.5161 42.3429C46.6358 42.8711 46.8962 43.357 47.2698 43.7491H28.4898V32.9391C28.4482 31.8844 28.2215 30.8453 27.8198 29.8691H36.2298ZM45.2898 39.7391C44.5498 40.2891 42.6398 41.6791 41.9498 42.1591L35.2998 40.9991V40.8191C35.4142 40.3713 35.4746 39.9114 35.4798 39.4491L41.0798 39.5391L41.1898 39.4291C41.2798 39.3391 43.0498 37.6291 43.9498 36.6391C44.1859 36.9344 44.4699 37.1879 44.7898 37.3891C44.6324 38.2134 44.8009 39.0666 45.2598 39.7691L45.2898 39.7391ZM34.1498 38.5891C34.2959 38.8708 34.5175 39.1062 34.7898 39.2691C34.7815 39.675 34.7414 40.0796 34.6698 40.4791C34.6698 40.5691 34.6698 40.6591 34.5998 40.7491V40.8891C34.1415 40.8915 33.6858 40.8206 33.2498 40.6791C32.8599 40.4691 32.5436 40.1447 32.3434 39.7497C32.1432 39.3546 32.0687 38.9078 32.1298 38.4691C32.4851 38.2161 32.8972 38.0547 33.3298 37.9991C33.5083 37.9932 33.684 38.0443 33.8314 38.145C33.9789 38.2457 34.0904 38.3908 34.1498 38.5591V38.5891ZM33.4598 37.2291L33.5698 32.9991L34.5698 31.9991L35.1798 33.2691L33.9898 37.3891L33.4598 37.2291ZM45.2498 59.5091H44.2498L44.9998 57.0591C45.1198 56.7191 44.4998 56.2791 44.2398 55.8891C44.8524 56.2545 45.4832 56.5882 46.1298 56.8891C46.1298 56.9691 45.2098 59.5091 45.2098 59.5091H45.2498ZM47.6998 56.6991L47.1798 59.3991C46.8498 59.3991 46.4998 59.4691 46.1798 59.4891L46.7298 56.8891C46.8898 56.1191 44.8198 55.8891 43.7998 54.3591C43.4702 54.6339 43.089 54.8401 42.6785 54.9655C42.2681 55.0908 41.8367 55.1329 41.4098 55.0891C40.654 55.0791 39.9008 54.9988 39.1598 54.8491C39.03 54.8386 38.8996 54.8386 38.7698 54.8491C38.6159 54.8381 38.462 54.8707 38.3258 54.9433C38.1896 55.0158 38.0766 55.1253 37.9998 55.2591L37.8498 55.5091L34.9998 54.8191L34.3198 55.9991C34.2664 56.0781 34.2422 56.1732 34.2513 56.2681C34.2604 56.363 34.3023 56.4518 34.3698 56.5191L34.5598 56.7291C34.3729 57.0977 34.13 57.435 33.8398 57.7291L33.4198 57.2091C33.2649 56.9533 33.1889 56.6574 33.2014 56.3586C33.2138 56.0597 33.3142 55.7712 33.4898 55.5291L34.6098 53.6391L36.9998 53.9991L36.6298 53.1491C36.1298 52.0291 36.8898 50.5991 36.9698 49.7791C36.9698 50.0291 36.7098 50.0791 36.4498 50.0791C36.1898 50.0791 35.9398 50.0791 35.7598 50.0791C35.7075 50.0641 35.6521 50.0641 35.5998 50.0791L34.9498 50.4691L34.4398 49.9991C34.4021 49.9282 34.3885 49.8468 34.4012 49.7674C34.4138 49.688 34.4519 49.6149 34.5098 49.5591L35.6898 48.2291L34.2898 46.5991L36.2898 47.5991L36.8898 46.8791C37.0498 47.0391 36.9798 47.4591 36.9798 47.4591C37.6851 47.6343 38.3094 48.045 38.7495 48.6233C39.1895 49.2015 39.419 49.9127 39.3998 50.6391C39.3998 50.7091 39.3998 50.7791 39.3998 50.8591V50.9291C39.5993 51.2463 39.9153 51.4725 40.2798 51.5591L42.9898 51.8291C43.5283 51.6637 44.0805 51.5466 44.6398 51.4791C45.1232 51.482 45.5954 51.6244 45.9998 51.8891C46.1907 51.7546 46.4165 51.6782 46.6498 51.6691H46.7398C47.9498 51.6691 48.4598 52.7691 49.1098 53.6691C49.5998 54.3591 50.2598 55.3991 50.2598 55.3991C50.1683 55.5381 50.0436 55.6521 49.8969 55.7306C49.7502 55.8092 49.5862 55.8499 49.4198 55.8491C49.3034 55.8608 49.1862 55.8608 49.0698 55.8491C47.7698 55.6091 47.5798 52.9291 46.8398 52.7191H46.7198C46.6497 52.7213 46.5814 52.7418 46.5217 52.7786C46.462 52.8155 46.4131 52.8674 46.3798 52.9291C46.7198 53.8391 46.5198 54.2091 46.8898 54.9291C47.1624 55.3613 47.4997 55.7492 47.8898 56.0791C47.8898 56.0791 47.8398 56.4791 47.7798 56.7691L47.6998 56.6991ZM33.1898 54.1491L33.3098 54.4591C33.2298 54.7291 32.3098 55.1191 32.3098 55.1191L32.1098 54.6791C31.9817 54.3743 31.9594 54.0354 32.0464 53.7164C32.1334 53.3974 32.3247 53.1167 32.5898 52.9191L34.0998 51.9991L35.7098 52.3391C35.701 52.6588 35.7996 52.9721 35.9898 53.2291L34.2998 52.9091L33.2998 53.6091C33.2244 53.6747 33.1742 53.7644 33.1578 53.863C33.1414 53.9615 33.1598 54.0627 33.2098 54.1491H33.1898ZM47.9998 59.2591L48.4598 56.8391C48.4598 56.6991 48.5098 56.5291 48.5298 56.3891C48.6648 56.4473 48.8056 56.4908 48.9498 56.5191C49.1095 56.5341 49.2702 56.5341 49.4298 56.5191C49.7005 56.5195 49.9677 56.4575 50.2105 56.3378C50.4533 56.2181 50.6653 56.0441 50.8298 55.8291L51.1898 55.4091L50.8898 54.9991C50.8898 54.9991 50.2198 53.9391 49.7198 53.2391L49.4398 52.8191C48.8798 51.9791 48.1698 50.9191 46.7598 50.9191H46.6298C46.4249 50.9289 46.2227 50.9694 46.0298 51.0391C45.5992 50.8317 45.1278 50.7224 44.6498 50.7191C44.168 50.7293 43.6913 50.8206 43.2398 50.9891L42.9998 51.0591L40.3598 50.7991C40.2518 50.7466 40.1589 50.6674 40.0898 50.5691L40.6598 50.3391C40.4998 48.4291 38.6598 47.2591 37.6598 46.8691C37.6145 46.6638 37.5103 46.4761 37.3598 46.3291L36.7898 45.7891L36.2898 46.3891L36.0398 46.6891L32.3398 45.1691L34.7498 48.1691L33.7998 49.6091C33.7508 49.6575 33.712 49.7151 33.6854 49.7786C33.6589 49.8422 33.6452 49.9103 33.6452 49.9791C33.6452 50.048 33.6589 50.1161 33.6854 50.1796C33.712 50.2432 33.7508 50.3008 33.7998 50.3491L34.7998 51.0291L35.7998 50.6491H35.8998C35.8998 50.7991 35.7898 51.4091 35.7398 51.5791L33.9998 51.2791L32.1398 52.2791C31.7227 52.5784 31.4234 53.0142 31.2937 53.511C31.1641 54.0077 31.2122 54.5342 31.4298 54.9991L31.6398 55.4491L31.9298 56.0891L32.5798 55.8191C32.4597 56.1366 32.4224 56.4795 32.4714 56.8154C32.5204 57.1513 32.6541 57.4692 32.8598 57.7391L33.2498 58.2391L33.7698 58.8991L34.3498 58.2791C34.7284 57.9041 35.0307 57.4593 35.2398 56.9691L35.3598 56.5691L35.0798 56.2591V56.1991L35.3998 55.6791L37.7098 56.2191L38.2298 56.3391L38.5098 55.8791L38.6598 55.6291C38.6598 55.5791 38.6598 55.5691 38.7998 55.5691H39.0498C39.8371 55.7261 40.6371 55.8098 41.4398 55.8191C41.9802 55.8496 42.5217 55.7853 43.0398 55.6291L44.3198 57.0891L43.5598 59.4291V59.5691C42.9979 59.5598 42.4403 59.6689 41.9234 59.8895C41.4065 60.11 40.9419 60.437 40.5598 60.8491C39.3298 59.6291 38.4598 59.4991 35.1698 59.4991C31.2198 59.4991 28.5498 57.1891 28.5498 53.4991V44.4991H52.5498V53.4991C52.6016 54.8438 52.1717 56.1627 51.3376 57.2187C50.5035 58.2746 49.3199 58.9982 47.9998 59.2591ZM53.1998 29.8691C52.7945 30.8441 52.5676 31.884 52.5298 32.9391V39.6791C52.1044 39.5888 51.72 39.3623 51.4349 39.0339C51.1498 38.7055 50.9795 38.293 50.9498 37.8591V37.5491H50.6498C50.1327 37.5046 49.6493 37.2736 49.2898 36.8991C48.8534 36.3922 48.6091 35.748 48.5998 35.0791C48.3878 35.4229 48.2849 35.8228 48.3045 36.2262C48.3241 36.6296 48.4654 37.0176 48.7098 37.3391C49.0988 37.8339 49.6658 38.157 50.2898 38.2391C50.3782 38.8035 50.6472 39.324 51.0565 39.7225C51.4658 40.121 51.9933 40.376 52.5598 40.4491V43.7491H48.3598C47.8323 43.4801 47.4276 43.0195 47.2287 42.4618C47.0297 41.904 47.0516 41.2913 47.2898 40.7491L47.4498 40.3891L47.0798 40.2491C46.5011 40.0483 46.0232 39.6304 45.747 39.0836C45.4708 38.5368 45.418 37.9041 45.5998 37.3191L45.6798 37.0191L45.3998 36.8891C44.8868 36.5898 44.4742 36.1449 44.2143 35.6108C43.9544 35.0768 43.8589 34.4776 43.9398 33.8891C43.6705 34.1617 43.493 34.5115 43.4321 34.8897C43.3711 35.268 43.4298 35.6558 43.5998 35.9991C43.3998 36.2291 43.1398 36.4991 42.8498 36.7991C42.3399 36.6921 41.8805 36.4172 41.5451 36.0184C41.2098 35.6196 41.0178 35.1199 40.9998 34.5991V34.3491L40.7698 34.2591C40.4704 34.17 40.192 34.0213 39.9515 33.822C39.7109 33.6227 39.5131 33.3768 39.3698 33.0991C39.177 32.6367 39.1418 32.1236 39.2698 31.6391C39.4675 31.6832 39.668 31.7133 39.8698 31.7291C40.073 31.7396 40.2766 31.7396 40.4798 31.7291C41.2802 31.7267 42.0711 31.5563 42.8014 31.229C43.5318 30.9018 44.1853 30.4248 44.7198 29.8291L53.1998 29.8691ZM46.7198 23.0491L48.3598 24.0491L48.7698 24.2891C47.9192 24.5211 47.1481 24.981 46.5398 25.6191L46.4698 25.6791C46.3298 25.8291 46.1998 25.9791 46.0698 26.1391L45.9898 26.2391C45.8632 26.3991 45.7432 26.5691 45.6298 26.7491L45.5698 26.8391C45.4298 27.0391 45.2998 27.2591 45.1698 27.4791C44.7229 28.3677 44.0585 29.1288 43.2386 29.6918C42.4186 30.2547 41.4696 30.6012 40.4798 30.6991C39.49 30.6012 38.5411 30.2547 37.7211 29.6918C36.9011 29.1288 36.2368 28.3677 35.7898 27.4791C35.6598 27.2591 35.5298 27.0491 35.3998 26.8391L35.3198 26.7291L34.9998 26.2091L34.9098 26.0991C34.7798 25.9391 34.6498 25.7891 34.5198 25.6491L34.4498 25.5791C33.8415 24.941 33.0704 24.4811 32.2198 24.2491L32.6398 24.0091L34.2898 23.0091L35.9798 22.0091L40.4898 24.4591L44.9998 22.0891L46.7198 23.0491ZM44.4998 21.0491L40.9098 22.9391V15.2491L45.7798 13.5991L44.4998 21.0491ZM40.4998 14.4391L35.1598 12.2991C35.6098 11.2191 37.7098 10.2991 40.4998 10.2991C43.2898 10.2991 45.3898 11.2191 45.8398 12.2991L40.4998 14.4391Z" fill="#222220"/>
</g>
<defs>
<clipPath id="clip0">
<rect width="298.99" height="72.33" fill="white"/>
</clipPath>
</defs>
</svg>
