<svg width="238" height="40" viewBox="0 0 238 40" fill="none" xmlns="http://www.w3.org/2000/svg">
<g style="mix-blend-mode:luminosity" clip-path="url(#clip0)">
<path d="M61.6646 13.2756C60.3077 12.1614 58.5977 11.5798 56.8498 11.6381H49.9556V30.4631H54.3V24.1006H58.0133C58.4086 24.1023 58.8029 24.0604 59.1891 23.9756H59.4119C60.7376 23.5598 61.8682 22.6712 62.5929 21.4756C63.2929 20.4472 63.6565 19.2232 63.6326 17.9756C63.6888 17.0916 63.5401 16.2066 63.1985 15.3907C62.8569 14.5749 62.3317 13.8507 61.6646 13.2756ZM59.1891 17.8756C59.2132 18.1733 59.1687 18.4727 59.0592 18.7503C58.9497 19.0279 58.7782 19.2761 58.5579 19.4756C57.9702 19.8955 57.2592 20.1025 56.5404 20.0631H54.2877V15.6631H56.5899C57.3079 15.6133 58.0197 15.8263 58.595 16.2631C58.82 16.4626 58.9963 16.712 59.1101 16.9917C59.2238 17.2714 59.2721 17.5739 59.251 17.8756H59.1891ZM217.101 13.2756C215.739 12.1615 214.025 11.5802 212.273 11.6381H205.379V30.4631H209.724V24.1006H213.437C213.853 24.107 214.268 24.065 214.675 23.9756H214.91C216.23 23.5561 217.356 22.668 218.078 21.4756C218.778 20.4472 219.142 19.2232 219.118 17.9756C219.166 17.0877 219.009 16.2008 218.659 15.385C218.309 14.5692 217.775 13.8469 217.101 13.2756ZM214.625 17.8756C214.65 18.1745 214.604 18.4752 214.492 18.7531C214.381 19.0311 214.206 19.2785 213.982 19.4756C213.399 19.8973 212.692 20.1046 211.976 20.0631H209.674V15.6631H211.976C212.691 15.6118 213.399 15.8251 213.969 16.2631C214.196 16.4608 214.374 16.7098 214.488 16.99C214.602 17.2702 214.649 17.5736 214.625 17.8756ZM85.7016 13.7506C83.8922 11.9588 81.4591 10.9551 78.925 10.9551C76.3908 10.9551 73.9578 11.9588 72.1483 13.7506C70.4128 15.643 69.4487 18.1274 69.4487 20.7068C69.4487 23.2862 70.4128 25.7706 72.1483 27.6631C73.9743 29.4471 76.4154 30.4444 78.9559 30.4444C81.4965 30.4444 83.9376 29.4471 85.7635 27.6631C87.4937 25.7679 88.4542 23.2845 88.4542 20.7068C88.4542 18.1291 87.4937 15.6457 85.7635 13.7506H85.7016ZM82.5578 24.7631C82.0818 25.2446 81.5165 25.6266 80.8942 25.8872C80.2719 26.1478 79.6049 26.282 78.9312 26.282C78.2575 26.282 77.5904 26.1478 76.9681 25.8872C76.3458 25.6266 75.7805 25.2446 75.3046 24.7631C74.3866 23.6289 73.8852 22.2091 73.8852 20.7443C73.8852 19.2795 74.3866 17.8597 75.3046 16.7256C75.7733 16.2411 76.3322 15.855 76.9492 15.5895C77.5662 15.324 78.2291 15.1843 78.8997 15.1785C79.5704 15.1727 80.2356 15.3008 80.857 15.5556C81.4784 15.8104 82.0438 16.1868 82.5206 16.6631V16.7256C83.4452 17.8566 83.951 19.2776 83.951 20.7443C83.951 22.211 83.4452 23.632 82.5206 24.7631H82.5578ZM196.727 13.7506C194.919 11.9625 192.488 10.9612 189.957 10.9612C187.426 10.9612 184.995 11.9625 183.186 13.7506C181.451 15.643 180.487 18.1274 180.487 20.7068C180.487 23.2862 181.451 25.7706 183.186 27.6631C185.011 29.45 187.453 30.4493 189.994 30.4493C192.536 30.4493 194.977 29.45 196.802 27.6631C198.537 25.7706 199.501 23.2862 199.501 20.7068C199.501 18.1274 198.537 15.643 196.802 13.7506H196.727ZM193.584 24.7131C193.109 25.1942 192.544 25.5759 191.923 25.8364C191.302 26.0969 190.636 26.2309 189.963 26.2309C189.29 26.2309 188.624 26.0969 188.003 25.8364C187.382 25.5759 186.818 25.1942 186.343 24.7131C185.425 23.5789 184.923 22.1591 184.923 20.6943C184.923 19.2295 185.425 17.8097 186.343 16.6756C186.811 16.1911 187.37 15.805 187.987 15.5395C188.604 15.274 189.267 15.1343 189.938 15.1285C190.609 15.1227 191.274 15.2508 191.895 15.5056C192.517 15.7604 193.082 16.1368 193.559 16.6131L193.621 16.6756C194.557 17.8014 195.07 19.2243 195.07 20.6943C195.07 22.1643 194.557 23.5872 193.621 24.7131H193.584ZM236.31 11.6381H224.861V30.4631H229.231V15.7006H234.986L235.197 15.3756L236.917 12.7631L237.647 11.6381H236.31ZM175.896 11.6381H160.585V15.7006H166.415V30.4631H170.809V15.7006H176.639V11.6381H175.896ZM107.684 25.5506L107.276 25.3506L106.917 25.6381C106.06 26.2886 105.004 26.6158 103.934 26.5631C103.202 26.5969 102.471 26.4753 101.789 26.2062C101.107 25.937 100.488 25.5263 99.9728 25.0006C99.4568 24.4471 99.0561 23.7945 98.7945 23.0816C98.533 22.3687 98.416 21.61 98.4504 20.8506C98.4154 20.1023 98.5323 19.3548 98.7942 18.654C99.056 17.9532 99.4571 17.3139 99.9728 16.7756C100.485 16.2568 101.098 15.8512 101.773 15.5844C102.449 15.3176 103.172 15.1954 103.897 15.2256C104.538 15.234 105.171 15.3788 105.753 15.6506C106.391 15.9431 106.961 16.3691 107.424 16.9006L107.857 17.4256L108.39 17.0131L110.382 15.5006L110.989 15.0381L110.506 14.4631C109.713 13.4522 108.702 12.6374 107.551 12.0807C106.399 11.5239 105.136 11.24 103.859 11.2506C102.566 11.2412 101.281 11.4743 100.072 11.9381C98.91 12.3796 97.8519 13.0607 96.9651 13.9381C96.0571 14.8114 95.3477 15.8733 94.8857 17.0506C94.411 18.2422 94.1713 19.5161 94.1802 20.8006C94.1761 22.0823 94.4069 23.3537 94.861 24.5506C95.3107 25.7138 95.9837 26.7759 96.8414 27.6756C97.7182 28.5624 98.7734 29.2488 99.9357 29.6881C101.19 30.1434 102.514 30.3678 103.847 30.3506C104.936 30.4027 106.025 30.2375 107.051 29.8643C108.076 29.4911 109.019 28.9172 109.825 28.1756C109.979 28.0304 110.124 27.876 110.259 27.7131L110.865 27.0006L110.023 26.5881L107.684 25.5506ZM132.86 17.0631C132.386 15.8986 131.679 14.845 130.785 13.9677C129.891 13.0904 128.828 12.408 127.661 11.9631C126.474 11.5115 125.216 11.2787 123.948 11.2756C122.67 11.2656 121.407 11.551 120.254 12.11C119.102 12.669 118.092 13.4867 117.301 14.5006L116.819 15.0881L117.425 15.5381L119.405 17.0506L119.95 17.4631L120.383 16.9506C120.843 16.4205 121.408 15.9946 122.042 15.7006C122.624 15.4283 123.257 15.2875 123.898 15.2881C124.625 15.2514 125.35 15.3693 126.028 15.6342C126.706 15.8991 127.322 16.305 127.834 16.8256L128.231 17.2756C128.253 17.3352 128.292 17.3872 128.342 17.4256C128.803 18.081 129.112 18.833 129.246 19.6256H121.98L122.735 20.7506L124.059 22.7381L124.27 23.0506H128.973C128.722 23.8061 128.298 24.4913 127.735 25.0506C127.222 25.5782 126.603 25.9902 125.921 26.2595C125.238 26.5288 124.507 26.6493 123.775 26.6131C122.707 26.6693 121.655 26.3416 120.804 25.6881L120.445 25.4006L120.037 25.6006L117.673 26.7631L116.831 27.1756L117.437 27.8881C117.586 28.0631 117.734 28.2006 117.871 28.3506C118.677 29.0922 119.62 29.6661 120.645 30.0393C121.671 30.4125 122.76 30.5777 123.849 30.5256C125.182 30.5447 126.507 30.3202 127.76 29.8631C128.921 29.4272 129.972 28.7403 130.842 27.8506C131.708 26.9547 132.385 25.8919 132.835 24.7256C133.289 23.5287 133.52 22.2573 133.516 20.9756C133.553 19.6406 133.33 18.3113 132.86 17.0631ZM156.327 29.4756L149.247 12.1131L149.074 11.6631H145.027L144.853 12.1131L137.823 29.4756L137.415 30.4756H142.366L142.539 30.0131L147.106 18.6006L151.636 30.0006L151.822 30.4631H156.773L156.327 29.4756Z" fill="#191919"/>
<path d="M17.8359 21.9877H0C0.121221 23.2936 0.374209 24.5836 0.755025 25.8377H11.3254L4.4435 32.7877C5.24787 33.7872 6.15207 34.7003 7.14179 35.5127L14.0237 28.5627V39.2377C15.2654 39.6222 16.5428 39.8777 17.8359 40.0002V21.9877ZM39.4964 21.9877H21.6605V40.0002C22.9537 39.8777 24.2311 39.6222 25.4728 39.2377V25.8377H34.6569C33.9069 27.7941 32.7888 29.5854 31.3645 31.1127V36.2502C34.8616 33.6802 37.434 30.0292 38.6919 25.8502V25.7752C38.7662 25.5377 38.8281 25.2877 38.89 25.0377C38.8942 24.9711 38.8942 24.9043 38.89 24.8377C38.9642 24.5627 39.0137 24.3002 39.0756 24.0377V23.8127C39.0756 23.5877 39.1623 23.3627 39.1994 23.1252C39.1941 23.0586 39.1941 22.9917 39.1994 22.9252C39.1994 22.7127 39.2613 22.5002 39.286 22.2877C39.3471 22.1815 39.4176 22.0811 39.4964 21.9877ZM19.8039 0.000151485C14.8404 -0.0193473 10.0507 1.84417 6.38304 5.22169C2.71541 8.59922 0.437373 13.2445 0 18.2377H13.4914L15.6203 14.4002H4.74056C5.0726 13.4767 5.48688 12.5855 5.97831 11.7377H17.118L19.2469 7.88765H9.17169C12.0917 5.28382 15.8529 3.84684 19.7482 3.84684C23.6436 3.84684 27.4048 5.28382 30.3248 7.88765H20.2743L22.4032 11.7377H33.5429C34.034 12.5857 34.4482 13.4768 34.7806 14.4002H23.8885L25.9926 18.2377H39.4841C39.0486 13.266 36.7881 8.63842 33.1467 5.26394C29.5053 1.88946 24.7461 0.0119288 19.8039 0.000151485Z" fill="#0B61AC"/>
</g>
<defs>
<clipPath id="clip0">
<rect width="237.647" height="40" fill="white"/>
</clipPath>
</defs>
</svg>
