<svg width="201" height="40" viewBox="0 0 201 40" fill="none" xmlns="http://www.w3.org/2000/svg">
<g style="mix-blend-mode:luminosity" clip-path="url(#clip0)">
<path d="M127.525 2.35352C127.894 2.36208 128.259 2.42302 128.611 2.53451C128.973 2.62501 129.244 2.806 129.425 2.987C129.697 3.168 129.878 3.43949 129.968 3.80148C130.08 4.15306 130.141 4.51871 130.149 4.88745V7.69288C130.149 8.05487 130.059 8.41686 129.968 8.77885C129.787 9.05035 129.606 9.32184 129.335 9.59333C129.063 9.77433 128.792 9.95532 128.43 10.0458C128.068 10.1363 127.706 10.2268 127.344 10.2268C126.891 10.2268 126.529 10.1363 126.077 10.0458C125.715 9.95532 125.353 9.77433 125.172 9.59333L125.624 8.77885C125.896 8.95985 126.167 9.14084 126.439 9.23134C126.71 9.32184 127.072 9.32184 127.344 9.32184C127.615 9.32184 127.796 9.32184 127.977 9.23134L128.52 8.95985C128.701 8.77885 128.792 8.59786 128.882 8.41686C128.973 8.23587 129.063 7.96437 129.063 7.60238V6.69741H126.167V5.79243H129.063V5.06845C129.063 4.43496 128.882 3.98247 128.611 3.71098C128.339 3.43949 127.887 3.34899 127.434 3.34899C127.163 3.34899 126.891 3.43949 126.62 3.52999C126.348 3.62048 126.077 3.80148 125.896 3.89198L125.353 3.0775C125.624 2.806 125.986 2.62501 126.348 2.53451C126.71 2.44401 127.072 2.35352 127.525 2.35352ZM133.86 3.34899V5.79243C133.86 6.51641 133.769 7.14989 133.679 7.60238C133.588 8.14537 133.407 8.50736 133.226 8.86935C133.045 9.23134 132.864 9.50284 132.593 9.77433L131.688 10.3173L131.235 9.41234C131.507 9.32184 131.688 9.14084 131.959 8.95985C132.14 8.77885 132.321 8.59786 132.412 8.23587C132.502 7.96438 132.593 7.60238 132.683 7.24039C132.774 6.7879 132.774 6.33542 132.774 5.70193V2.44401H137.48V10.0458H136.484V3.34899H133.86ZM139.38 10.0458V2.44401H144.448V3.34899H140.375V5.79243H143.905V6.69741H140.375V9.14085H144.448V10.0458H139.38ZM146.077 10.0458V2.44401H147.072V5.70193H148.611C148.747 5.67927 148.873 5.61621 148.973 5.52094C149.063 5.43044 149.244 5.33994 149.335 5.15895C149.425 4.97795 149.516 4.79695 149.606 4.52546L150.33 2.35352H151.326L150.602 4.61596C150.511 4.97795 150.33 5.33994 150.149 5.52094C149.968 5.79243 149.787 5.97342 149.516 5.97342C149.878 6.06392 150.059 6.24492 150.24 6.51641C150.421 6.7879 150.602 7.0594 150.692 7.51189L151.416 9.95532H150.33L149.697 7.69288C149.606 7.42139 149.516 7.24039 149.425 7.0594C149.354 6.89769 149.225 6.76852 149.063 6.69741C148.963 6.60214 148.837 6.53907 148.701 6.51641H146.982V9.95532H146.077V10.0458ZM155.67 3.34899V10.0458H154.674V3.34899H152.502V2.44401H157.932V3.34899H155.67ZM164.538 4.70646C164.538 4.97795 164.448 5.24944 164.357 5.52094C164.267 5.79243 164.086 6.06392 163.905 6.24492C163.724 6.42591 163.452 6.60691 163.271 6.7879C163 6.9689 162.728 6.9689 162.366 6.9689H160.194V10.0458H159.199V2.44401H162.366C162.728 2.44401 163.09 2.53451 163.362 2.62501C163.633 2.806 163.814 2.8965 163.995 3.168C164.176 3.34899 164.267 3.62048 164.357 3.89198C164.448 4.16347 164.538 4.43496 164.538 4.70646ZM163.543 4.70646C163.543 4.25397 163.452 3.98247 163.181 3.71098C162.909 3.43949 162.638 3.34899 162.185 3.34899H160.285V6.06392H162.185C162.547 6.06392 162.909 5.97342 163.181 5.70193C163.362 5.43044 163.543 5.15895 163.543 4.70646ZM171.507 7.60238C171.507 7.96437 171.416 8.32637 171.326 8.68836C171.145 9.05035 170.964 9.23134 170.692 9.50284L169.787 10.0458C169.425 10.1363 169.063 10.2268 168.701 10.2268C168.249 10.2268 167.887 10.1363 167.525 10.0458C167.163 9.95532 166.891 9.77433 166.62 9.50284C166.348 9.32184 166.167 9.05035 166.077 8.68836C165.896 8.32637 165.896 8.05487 165.896 7.60238V4.97795C165.896 4.61596 165.986 4.25397 166.077 3.89198C166.258 3.52999 166.439 3.34899 166.62 3.0775L167.525 2.53451C167.887 2.44401 168.249 2.35352 168.701 2.35352C169.07 2.36208 169.436 2.42302 169.787 2.53451C170.149 2.62501 170.421 2.806 170.692 3.0775C170.964 3.25849 171.145 3.52999 171.235 3.89198C171.416 4.25397 171.416 4.52546 171.416 4.97795V7.60238H171.507ZM170.421 5.06845C170.421 4.79695 170.33 4.52546 170.24 4.25397C170.149 4.07297 170.059 3.89198 169.878 3.71098C169.697 3.52999 169.516 3.43949 169.335 3.43949C169.154 3.34899 168.882 3.34899 168.611 3.34899C168.339 3.34899 168.158 3.34899 167.887 3.43949L167.344 3.71098C167.163 3.89198 167.072 4.07297 166.982 4.25397C166.891 4.43496 166.801 4.70646 166.801 5.06845V7.42139C166.801 7.69288 166.891 7.96438 166.982 8.23587C167.072 8.41686 167.163 8.59786 167.344 8.77885C167.525 8.95985 167.706 9.05035 167.887 9.05035C168.068 9.14085 168.339 9.14085 168.52 9.14085C168.792 9.14085 168.973 9.14085 169.244 9.05035L169.787 8.77885C169.968 8.59786 170.059 8.41686 170.149 8.23587C170.24 8.05487 170.33 7.78338 170.33 7.42139V5.06845H170.421ZM177.751 10.0458V6.69741H174.222V10.0458H173.136V2.44401H174.222V5.70193H177.751V2.44401H178.837V10.0458H177.751ZM185.081 10.0458V6.69741H181.552V10.0458H180.556V2.44401H181.552V5.70193H185.081V2.44401H186.167V10.0458H185.081ZM192.593 10.0458L191.959 8.32637H188.882L188.339 10.0458H187.253L189.878 2.44401H190.873L193.498 10.0458H192.593ZM190.421 3.80148L189.878 5.61143L189.244 7.42139H191.597L190.964 5.61143L190.421 3.80148ZM194.946 4.70646C194.946 4.43496 195.036 4.07297 195.127 3.80148C195.217 3.52999 195.398 3.25849 195.579 3.0775C195.76 2.8965 196.032 2.71551 196.303 2.62501C196.575 2.53451 196.846 2.44401 197.208 2.44401H200.375V10.0458H199.38V6.7879H197.842C197.751 6.7879 197.57 6.7879 197.48 6.8784C197.343 6.90106 197.217 6.96413 197.118 7.0594C197.027 7.1499 196.846 7.24039 196.756 7.42139L196.484 7.96438L195.851 10.0458H194.855L195.489 7.87388L195.76 7.0594C195.851 6.8784 196.032 6.69741 196.303 6.60691C195.851 6.51641 195.579 6.24492 195.308 5.88293C195.036 5.52094 194.946 5.15895 194.946 4.70646ZM195.941 4.70646C195.941 5.15895 196.032 5.43044 196.303 5.61143C196.575 5.79243 196.937 5.88293 197.299 5.88293H199.199V3.34899H197.299C196.846 3.34899 196.484 3.43949 196.213 3.71098C196.032 3.98247 195.941 4.25397 195.941 4.70646ZM128.52 16.1997V22.8965H127.434V16.1997H125.262V15.2947H130.692V16.1997H128.52ZM137.299 20.4531C137.299 20.8151 137.208 21.177 137.118 21.539C136.937 21.901 136.756 22.082 136.484 22.3535L135.579 22.8965C135.217 22.987 134.855 23.0775 134.493 23.0775C134.041 23.0775 133.679 22.987 133.317 22.8965C132.955 22.806 132.683 22.625 132.412 22.3535C132.14 22.1725 131.959 21.901 131.869 21.539C131.688 21.177 131.688 20.9056 131.688 20.4531V17.8286C131.688 17.4666 131.778 17.1046 131.869 16.7427C132.05 16.3807 132.231 16.1997 132.412 15.9282L133.317 15.3852C133.679 15.2947 134.041 15.2042 134.493 15.2042C134.862 15.2128 135.228 15.2737 135.579 15.3852C135.941 15.4757 136.213 15.6567 136.484 15.9282C136.756 16.1092 136.937 16.3807 137.027 16.7427C137.208 17.1046 137.208 17.3761 137.208 17.8286V20.4531H137.299ZM136.213 17.9191C136.213 17.6476 136.122 17.3761 136.032 17.1046C135.941 16.9236 135.851 16.7427 135.67 16.5617C135.489 16.3807 135.308 16.2902 135.127 16.2902C134.946 16.1997 134.674 16.1997 134.403 16.1997C134.131 16.1997 133.95 16.1997 133.679 16.2902L133.136 16.5617C132.955 16.7427 132.864 16.9236 132.774 17.1046C132.683 17.2856 132.593 17.5571 132.593 17.9191V20.2721C132.593 20.5436 132.683 20.8151 132.774 21.0865C132.864 21.2675 132.955 21.4485 133.136 21.6295C133.317 21.8105 133.498 21.901 133.679 21.901C133.86 21.9915 134.131 21.9915 134.312 21.9915C134.584 21.9915 134.765 21.9915 135.036 21.901L135.579 21.6295C135.76 21.4485 135.851 21.2675 135.941 21.0865C136.032 20.9055 136.122 20.6341 136.122 20.2721V17.9191H136.213ZM144.267 17.5571C144.267 17.8286 144.176 18.1001 144.086 18.3716C143.995 18.6431 143.814 18.9146 143.633 19.0956C143.452 19.2766 143.181 19.4576 143 19.6386C142.728 19.8196 142.457 19.8196 142.095 19.8196H140.013V22.8965H139.018V15.2947H142.185C142.547 15.2947 142.909 15.3852 143.181 15.4757C143.452 15.6567 143.633 15.7472 143.814 16.0187C143.995 16.1997 144.086 16.4712 144.176 16.7427C144.267 17.0141 144.267 17.2856 144.267 17.5571ZM143.271 17.5571C143.271 17.1046 143.181 16.8332 142.909 16.5617C142.638 16.2902 142.366 16.1997 141.914 16.1997H140.013V18.9146H141.914C142.276 18.9146 142.638 18.8241 142.909 18.5526C143.181 18.2811 143.271 18.0096 143.271 17.5571ZM146.71 16.1997V22.8965H145.715V15.2947H150.783V16.1997H146.71ZM157.118 20.4531C157.118 20.8151 157.027 21.177 156.937 21.539C156.756 21.901 156.575 22.082 156.303 22.3535L155.398 22.8965C155.036 22.987 154.674 23.0775 154.312 23.0775C153.86 23.0775 153.498 22.987 153.136 22.8965C152.774 22.806 152.502 22.625 152.231 22.3535C151.959 22.1725 151.778 21.901 151.688 21.539C151.507 21.177 151.507 20.9056 151.507 20.4531V17.8286C151.507 17.4666 151.597 17.1046 151.688 16.7427C151.869 16.3807 152.05 16.1997 152.231 15.9282L153.136 15.3852C153.498 15.2947 153.86 15.2042 154.312 15.2042C154.681 15.2128 155.047 15.2737 155.398 15.3852C155.76 15.4757 156.032 15.6567 156.303 15.9282C156.575 16.1092 156.756 16.3807 156.846 16.7427C157.027 17.1046 157.027 17.3761 157.027 17.8286V20.4531H157.118ZM156.122 17.9191C156.122 17.6476 156.032 17.3761 155.941 17.1046C155.851 16.9236 155.76 16.7427 155.579 16.5617C155.398 16.3807 155.217 16.2902 155.036 16.2902C154.855 16.1997 154.584 16.1997 154.312 16.1997C154.041 16.1997 153.86 16.1997 153.588 16.2902L153.045 16.5617C152.864 16.7427 152.774 16.9236 152.683 17.1046C152.593 17.2856 152.502 17.5571 152.502 17.9191V20.2721C152.502 20.5436 152.593 20.8151 152.683 21.0865C152.774 21.2675 152.864 21.4485 153.045 21.6295C153.226 21.8105 153.407 21.901 153.588 21.901C153.769 21.9915 154.041 21.9915 154.222 21.9915C154.493 21.9915 154.674 21.9915 154.946 21.901L155.489 21.6295C155.67 21.4485 155.76 21.2675 155.851 21.0865C155.941 20.9055 156.032 20.6341 156.032 20.2721V17.9191H156.122ZM164.267 20.6341C164.267 20.9055 164.176 21.177 164.086 21.4485C163.995 21.72 163.814 21.9915 163.633 22.1725C163.452 22.3535 163.181 22.5345 162.909 22.7155C162.638 22.806 162.366 22.8965 162.004 22.8965H158.747V15.2947H161.914C162.276 15.2947 162.547 15.3852 162.819 15.4757C163.09 15.5662 163.271 15.7472 163.543 15.9282C163.724 16.1092 163.905 16.2902 163.995 16.5617C164.086 16.8332 164.176 17.0141 164.176 17.2856C164.176 17.5571 164.086 17.9191 163.995 18.1906C163.814 18.4621 163.633 18.7336 163.271 18.9146C163.626 19.0879 163.913 19.3745 164.086 19.7291C164.267 20.0006 164.267 20.3626 164.267 20.6341ZM163.181 17.2856C163.181 16.9236 163.09 16.5617 162.819 16.4712C162.547 16.2902 162.276 16.1997 161.823 16.1997H159.923V18.4621H161.914C162.095 18.4621 162.276 18.4621 162.366 18.3716C162.547 18.2811 162.638 18.2811 162.728 18.1906C162.84 18.0875 162.932 17.9648 163 17.8286C163.181 17.6476 163.181 17.4666 163.181 17.2856ZM163.271 20.6341C163.271 20.4531 163.271 20.2721 163.181 20.0911C163.113 19.9549 163.021 19.8322 162.909 19.7291C162.819 19.6386 162.638 19.5481 162.457 19.4576C162.276 19.3671 162.095 19.3671 161.914 19.3671H159.923V21.9915H162.004C162.457 21.9915 162.819 21.901 163 21.6295C163.181 21.4485 163.271 21.0865 163.271 20.6341ZM170.783 22.8965L170.149 21.177H167.163L166.62 22.8965H165.534L168.158 15.2947H169.154L171.778 22.8965H170.783ZM168.611 16.6522L168.068 18.4621L167.434 20.2721H169.787L169.154 18.4621L168.611 16.6522ZM173.136 17.5571C173.136 17.2856 173.226 16.9236 173.317 16.6522C173.407 16.3807 173.588 16.1092 173.769 15.9282C173.95 15.7472 174.222 15.5662 174.493 15.4757C174.765 15.3852 175.036 15.2947 175.398 15.2947H178.566V22.8965H177.57V19.6386H176.032C175.941 19.6386 175.76 19.6386 175.67 19.7291C175.534 19.7517 175.407 19.8148 175.308 19.9101C175.217 20.0006 175.036 20.0911 174.946 20.2721L174.674 20.8151L174.041 22.8965H173.045L173.679 20.7246L173.95 19.9101C174.041 19.7291 174.222 19.5481 174.493 19.4576C174.041 19.3671 173.769 19.0956 173.498 18.7336C173.226 18.4621 173.136 18.0096 173.136 17.5571ZM174.131 17.5571C174.131 18.0096 174.222 18.2811 174.493 18.4621C174.765 18.6431 175.127 18.7336 175.489 18.7336H177.389V16.1997H175.489C175.036 16.1997 174.674 16.2902 174.403 16.5617C174.222 16.8332 174.131 17.1046 174.131 17.5571ZM129.878 35.8377V29.1408H126.258V35.8377H125.262V28.2359H130.873V35.8377H129.878ZM134.584 29.1408V31.5843C134.584 32.3083 134.493 32.9417 134.403 33.3942C134.312 33.9372 134.131 34.2992 133.95 34.6612C133.769 35.0232 133.588 35.2947 133.317 35.5662L132.412 36.1092L131.959 35.2042C132.231 35.1137 132.412 34.9327 132.683 34.7517C132.864 34.5707 133.045 34.3897 133.136 34.0277C133.226 33.7562 133.317 33.3942 133.407 33.0322C133.498 32.5798 133.498 32.1273 133.498 31.4938V28.2359H138.204V35.8377H137.208V29.1408H134.584ZM145.624 33.3942C145.624 33.7562 145.534 34.1182 145.443 34.4802C145.262 34.8422 145.081 35.0232 144.81 35.2947L143.905 35.8377C143.543 35.9282 143.181 36.0187 142.819 36.0187C142.366 36.0187 142.004 35.9282 141.642 35.8377C141.28 35.7472 141.009 35.5662 140.737 35.2947C140.466 35.1137 140.285 34.8422 140.194 34.4802C140.013 34.1182 140.013 33.8467 140.013 33.3942V30.7698C140.013 30.4078 140.104 30.0458 140.194 29.6838C140.375 29.3218 140.556 29.1408 140.737 28.8693L141.642 28.3264C142.004 28.2359 142.366 28.1454 142.819 28.1454C143.188 28.1539 143.553 28.2149 143.905 28.3264C144.267 28.4169 144.538 28.5979 144.81 28.8693C145.081 29.0503 145.262 29.3218 145.353 29.6838C145.534 30.0458 145.534 30.3173 145.534 30.7698V33.3942H145.624ZM144.629 30.8603C144.629 30.5888 144.538 30.3173 144.448 30.0458C144.357 29.8648 144.267 29.6838 144.086 29.5028C143.905 29.3218 143.724 29.2313 143.543 29.2313C143.362 29.1408 143.09 29.1408 142.819 29.1408C142.547 29.1408 142.366 29.1408 142.095 29.2313L141.552 29.5028C141.371 29.6838 141.28 29.8648 141.19 30.0458C141.099 30.2268 141.009 30.4983 141.009 30.8603V33.2132C141.009 33.4847 141.099 33.7562 141.19 34.0277C141.28 34.2087 141.371 34.3897 141.552 34.5707C141.733 34.7517 141.914 34.8422 142.095 34.8422C142.276 34.9327 142.547 34.9327 142.728 34.9327C143 34.9327 143.181 34.9327 143.452 34.8422L143.995 34.5707C144.176 34.3897 144.267 34.2087 144.357 34.0277C144.448 33.8467 144.538 33.5752 144.538 33.2132V30.8603H144.629ZM152.05 34.9327H154.674V28.2359H155.76V34.9327H156.394V37.5571H155.398V35.8377H147.344V28.2359H148.339V34.9327H151.054V28.2359H152.05V34.9327ZM162.457 35.8377L161.823 34.1182H158.837L158.294 35.8377H157.208L159.832 28.2359H160.828L163.452 35.8377H162.457ZM160.375 29.6838L159.832 31.4938L159.199 33.3037H161.552L160.918 31.4938L160.375 29.6838ZM164.9 34.9327C165.081 34.8422 165.262 34.6612 165.353 34.4802C165.443 34.2992 165.624 34.0277 165.624 33.7562C165.715 33.4847 165.805 33.1227 165.805 32.7608C165.896 32.3988 165.896 31.8558 165.896 31.3128L165.986 28.3264H170.783V35.0232H171.416V37.5571H170.421V35.9282H165.353V37.5571H164.357V34.9327H164.9ZM166.982 29.1408L166.891 31.3128C166.891 31.7653 166.801 32.2178 166.801 32.5798C166.801 32.9417 166.71 33.3037 166.71 33.5752C166.62 33.8467 166.62 34.1182 166.529 34.2992C166.439 34.4802 166.348 34.6612 166.167 34.8422H169.878V29.0503H166.982V29.1408ZM173.045 35.8377V28.2359H174.041V31.4938H175.579C175.715 31.4711 175.841 31.4081 175.941 31.3128C176.032 31.2223 176.213 31.1318 176.303 30.9508C176.394 30.7698 176.484 30.5888 176.575 30.3173L177.299 28.1454H178.294L177.57 30.4078C177.48 30.7698 177.299 31.1318 177.118 31.3128C176.937 31.5843 176.756 31.7653 176.484 31.7653C176.846 31.8558 177.027 32.0368 177.208 32.3083C177.389 32.5798 177.57 32.8512 177.661 33.3037L178.385 35.7472H177.299L176.665 33.4847C176.575 33.2132 176.484 33.0322 176.394 32.8512C176.322 32.6895 176.193 32.5604 176.032 32.4893C175.932 32.394 175.806 32.3309 175.67 32.3083H173.95V35.7472H173.045V35.8377ZM184.719 35.8377L184.086 34.1182H181.099L180.556 35.8377H179.471L182.095 28.2359H183.09L185.715 35.8377H184.719ZM182.547 29.6838L182.004 31.4938L181.371 33.3037H183.724L183.09 31.4938L182.547 29.6838Z" fill="#007AAE"/>
<path fill-rule="evenodd" clip-rule="evenodd" d="M64.2669 22.4434V16.3801L60.104 16.8326C58.656 17.0136 57.4796 17.1946 56.7556 17.4661C55.8506 17.7376 55.1266 18.19 54.5836 18.733C53.4977 19.9095 53.4977 22.4434 54.7646 23.5294C55.8506 24.4344 57.4796 24.5249 58.7465 24.5249C59.6515 24.5249 60.647 24.3439 61.6425 23.9819C62.6379 23.5294 63.5429 23.0769 64.2669 22.4434ZM64.2669 26.9683L62.3664 28.3258C61.6424 28.8688 60.9185 29.3213 60.285 29.5928C59.38 30.0452 58.3845 30.3167 57.3891 30.4977C56.3936 30.6787 55.3076 30.7692 54.1311 30.7692C51.3257 30.7692 48.9728 29.8643 47.0723 28.1448C45.1719 26.4253 44.2669 24.2534 44.2669 21.5385C44.2669 19.3665 44.7194 17.6471 45.7148 16.2896C46.7103 14.9321 48.0678 13.8462 49.7872 13.1222C51.5067 12.3077 53.6786 11.7647 56.3031 11.4932L64.3574 10.7692V10.5882C64.3574 8.95928 63.7239 7.8733 62.3664 7.23982C61.009 6.60633 59.1085 6.33484 56.4841 6.33484C53.6786 6.33484 50.4207 7.42081 47.7058 8.41629H46.8008V1.44796C47.7963 1.17647 49.4253 0.904977 51.6877 0.542986C53.9501 0.180995 56.2126 0 58.3845 0C63.7239 0 67.6153 0.81448 69.9682 2.44344C72.3212 4.0724 73.4977 6.69683 73.4977 10.1357V30.0452H64.2669V26.9683ZM112.774 37.4661H104.357V30.1357H87.0723V37.4661H78.656V23.7104H81.0995C82.4569 20.9955 83.4524 17.5566 84.2669 13.5747C85.0814 9.59276 85.4434 5.33937 85.4434 0.904977H109.697V23.7104H112.774V37.4661ZM100.375 23.7104V7.33032H93.9501C93.6786 10.5882 93.1357 13.6652 92.4117 16.4706C91.6877 19.276 90.8732 21.629 89.8777 23.7104H100.375ZM40.466 15.1131C40.466 17.5566 40.104 19.7285 39.38 21.7195C38.656 23.7104 37.6605 25.3394 36.4841 26.6063C35.2171 27.9638 33.8596 28.9593 32.2307 29.6833C30.6392 30.4057 28.9106 30.7761 27.1628 30.7692C25.4434 30.7692 24.0859 30.5882 22.9094 30.2262C21.7329 29.8643 20.5565 29.4118 19.2895 28.6878V40H9.87774V30.0452H0.646973V23.6199H9.87774V0.81448H19.2895V3.8914C20.7375 2.71493 22.1854 1.80995 23.7239 1.08597C25.2624 0.361991 26.9818 0 28.9728 0C32.5927 0 35.4886 1.35747 37.4796 3.9819C39.4705 6.78733 40.466 10.4072 40.466 15.1131ZM30.7827 15.2941C30.7827 12.3982 30.3302 9.68326 29.3348 8.41629C28.3393 7.14932 26.8008 6.51584 24.7194 6.51584C23.8144 6.51584 22.9094 6.60633 22.0044 6.87783C21.0995 7.14932 20.1945 7.51131 19.2895 8.0543V23.4389C20.1945 23.8009 21.0995 24.3439 23.4524 24.3439C25.9863 24.3439 27.7963 23.2579 29.0633 21.81C30.1492 20.4525 30.7827 18.2805 30.7827 15.2941ZM118.566 37.4661V0.81448H119.471V37.4661H118.566Z" fill="#007AAE"/>
</g>
<defs>
<clipPath id="clip0">
<rect width="199.638" height="40" fill="white" transform="translate(0.646973)"/>
</clipPath>
</defs>
</svg>
