<svg width="28" height="18" viewBox="0 0 28 18" fill="none" xmlns="http://www.w3.org/2000/svg">
<path d="M27.0579 6.19033L13.9709 0.0626692C13.8283 -0.0208897 13.6002 -0.0208897 13.4577 0.0626692L0.370656 6.19033C0.14256 6.30174 0 6.49671 0 6.74739C0 6.97021 0.14256 7.19304 0.370656 7.2766L4.19127 8.86422C4.19127 8.89207 4.19127 8.91992 4.19127 8.94777V15.8275C4.19127 16.0503 4.33383 16.301 4.59044 16.3845C7.52718 17.4708 10.635 18 13.7143 18C16.7936 18 19.9014 17.4429 22.8381 16.3845C23.0662 16.301 23.2373 16.106 23.2373 15.8275V8.94777C23.2373 8.91992 23.2373 8.89207 23.2373 8.86422L27.0579 7.24874C27.2575 7.16518 27.4286 6.97021 27.4286 6.71954C27.3715 6.52456 27.2575 6.30174 27.0579 6.19033ZM22.0113 15.4375C16.6225 17.3037 10.749 17.3037 5.36026 15.4375V9.39342L13.4577 12.8193C13.5432 12.8472 13.6002 12.875 13.6858 12.875C13.7713 12.875 13.8283 12.8472 13.9139 12.8193L22.0113 9.39342V15.4375ZM13.6858 11.6495L2.02435 6.69168L13.6858 1.2325L25.3472 6.69168L13.6858 11.6495Z" fill="white"/>
</svg>
