<svg width="170" height="193" viewBox="0 0 170 193" fill="none" xmlns="http://www.w3.org/2000/svg">
<g opacity="0.6">
<path d="M23.6698 108.65C20.8294 111.494 17.0908 113.264 13.091 113.66C9.09127 114.056 5.07797 113.053 1.73517 110.821C-1.60764 108.59 -4.07306 105.268 -5.24087 101.422C-6.40869 97.5759 -6.20663 93.444 -4.66913 89.7304C-3.13162 86.0168 -0.353842 82.9513 3.19077 81.0564C6.73538 79.1616 10.8274 78.5546 14.7695 79.3389C18.7115 80.1233 22.2595 82.2504 24.8088 85.3578C27.3581 88.4652 28.7509 92.3605 28.7498 96.3798C28.7258 100.977 26.9022 105.381 23.6698 108.65ZM24.2098 83.5598C21.2439 80.5939 17.3413 78.748 13.167 78.3369C8.99278 77.9257 4.80508 78.9746 1.31748 81.3049C-2.17012 83.6351 -4.74184 87.1026 -5.95948 91.1164C-7.17713 95.1303 -6.96536 99.4421 -5.36027 103.317C-3.75517 107.193 -0.856054 110.391 2.84311 112.369C6.54227 114.346 10.8126 114.979 14.9265 114.161C19.0404 113.343 22.7433 111.124 25.4043 107.881C28.0653 104.639 29.5197 100.574 29.5198 96.3798C29.4992 91.5756 27.5923 86.9716 24.2098 83.5598Z" fill="white"/>
<path d="M10.3896 95.8V96.95L11.3896 97.53L12.3896 96.95V95.8L11.3896 95.23L10.3896 95.8Z" fill="white"/>
<path d="M12.2595 92.9997V90.5997C12.2502 90.3744 12.1575 90.1606 11.9995 89.9997C11.8368 89.8397 11.6177 89.75 11.3895 89.75C11.1613 89.75 10.9422 89.8397 10.7795 89.9997C10.6169 90.1656 10.5239 90.3874 10.5195 90.6197V92.9997L11.3895 93.4997L12.2595 92.9997Z" fill="white"/>
<path d="M5.99975 98.5198C5.9016 98.5752 5.8156 98.6498 5.74688 98.7391C5.67816 98.8285 5.62812 98.9307 5.59975 99.0398C5.54016 99.2619 5.56883 99.4984 5.67975 99.6998C5.79705 99.8996 5.98689 100.046 6.20974 100.11C6.43357 100.156 6.6665 100.124 6.86975 100.02L8.98975 98.7998V97.7998L8.11975 97.2998L5.99975 98.5198Z" fill="white"/>
<path d="M16.8296 98.5198L14.7096 97.2998L13.8496 97.7998V98.7998L15.9996 99.9998C16.2029 100.104 16.4358 100.136 16.6596 100.09C16.8825 100.026 17.0723 99.8796 17.1896 99.6798C17.3005 99.4784 17.3292 99.2419 17.2696 99.0198C17.2412 98.9107 17.1912 98.8085 17.1225 98.7191C17.0538 98.6298 16.9678 98.5552 16.8696 98.4998L16.8296 98.5198Z" fill="white"/>
<path d="M23.9202 103.79C23.8679 103.804 23.8126 103.804 23.7602 103.79L20.0002 103.1C19.9075 103.079 19.8235 103.03 19.7602 102.96C19.691 102.89 19.6485 102.798 19.6402 102.7C19.6217 102.427 19.5166 102.168 19.3402 101.96C19.1679 101.747 18.9338 101.593 18.6702 101.52C18.4077 101.43 18.1228 101.43 17.8602 101.52C17.395 101.681 16.9002 101.739 16.4102 101.69C15.9201 101.647 15.4454 101.497 15.0202 101.25L13.9002 100.6V108H12.2602V99.7097L11.3902 99.2097L10.5202 99.7097V108H8.94024V100.59L7.81024 101.24C7.38509 101.487 6.91038 101.637 6.42024 101.68C5.93029 101.729 5.43549 101.671 4.97024 101.51C4.70772 101.42 4.42275 101.42 4.16024 101.51C3.8967 101.583 3.66256 101.737 3.49024 101.95C3.31389 102.158 3.20877 102.417 3.19024 102.69C3.18108 102.786 3.14268 102.876 3.08024 102.95C3.01166 103.019 2.92504 103.067 2.83024 103.09L-0.979762 103.8C-1.03211 103.814 -1.08741 103.814 -1.13976 103.8C-1.19091 103.777 -1.23315 103.739 -1.25976 103.69C-1.28909 103.643 -1.30466 103.59 -1.30466 103.535C-1.30466 103.48 -1.28909 103.426 -1.25976 103.38L1.26024 100.44C1.324 100.368 1.40877 100.319 1.50226 100.3C1.59575 100.28 1.69311 100.29 1.78024 100.33C2.02847 100.45 2.30866 100.489 2.58024 100.44C2.85146 100.396 3.10281 100.271 3.30024 100.08C3.49054 99.8844 3.61921 99.6375 3.67024 99.3697C3.76766 98.8746 3.97247 98.407 4.27024 97.9997C4.55482 97.5931 4.92306 97.2522 5.35024 96.9997L6.48024 96.3497L0.0602374 92.6397L0.860239 91.2696L8.07024 95.4297L8.94024 94.9297V93.9997L1.72024 89.7997L2.52024 88.4197L8.94024 92.1296V90.8197C8.93676 90.3292 9.04266 89.8441 9.25024 89.3997C9.45107 88.948 9.752 88.5479 10.1302 88.2297C10.3342 88.0494 10.4804 87.8128 10.5502 87.5497C10.6351 87.2863 10.6351 87.003 10.5502 86.7397C10.4515 86.4837 10.277 86.264 10.0502 86.1097C9.97548 86.0546 9.9196 85.9777 9.89024 85.8897C9.86046 85.7987 9.86046 85.7006 9.89024 85.6097L11.1402 81.9997C11.1587 81.9467 11.1938 81.9011 11.2402 81.8697C11.2891 81.8543 11.3414 81.8543 11.3902 81.8697C11.446 81.8674 11.5009 81.8839 11.5463 81.9166C11.5916 81.9492 11.6246 81.996 11.6402 82.0497L12.9302 85.7097C12.96 85.8006 12.96 85.8987 12.9302 85.9897C12.9009 86.0777 12.845 86.1546 12.7702 86.2097C12.5434 86.364 12.369 86.5837 12.2702 86.8396C12.1904 87.1038 12.1904 87.3856 12.2702 87.6497C12.3401 87.9128 12.4862 88.1494 12.6902 88.3297C13.0685 88.6479 13.3694 89.048 13.5702 89.4997C13.7809 89.9434 13.8903 90.4284 13.8902 90.9197V92.2297L20.3002 88.5196L21.1002 89.8997L13.8502 93.9997V94.9997L14.7102 95.4997L21.9202 91.3396L22.7202 92.7097L16.3002 96.3796L17.4302 97.0297C17.8574 97.2822 18.2257 97.6231 18.5102 98.0297C18.7947 98.4336 18.9891 98.894 19.0802 99.3797C19.1313 99.6475 19.2599 99.8944 19.4502 100.09C19.6477 100.281 19.899 100.406 20.1702 100.45C20.4418 100.5 20.7222 100.461 20.9702 100.34C21.0574 100.3 21.1547 100.29 21.2482 100.31C21.3417 100.329 21.4265 100.378 21.4902 100.45L24.0002 103.37C24.0296 103.416 24.0451 103.47 24.0451 103.525C24.0451 103.58 24.0296 103.633 24.0002 103.68C23.9736 103.729 23.9314 103.767 23.8802 103.79H23.9202ZM22.2802 85.4897C19.761 82.9702 16.4462 81.4022 12.9005 81.0528C9.35484 80.7034 5.7977 81.5942 2.83518 83.5734C-0.127341 85.5527 -2.31193 88.4979 -3.34638 91.9073C-4.38082 95.3167 -4.20111 98.9793 -2.83787 102.271C-1.47463 105.563 0.987803 108.28 4.12986 109.96C7.27191 111.639 10.8992 112.178 14.3936 111.483C17.8881 110.788 21.0335 108.903 23.2939 106.149C25.5544 103.395 26.79 99.9425 26.7902 96.3796C26.77 92.2993 25.1508 88.3896 22.2802 85.4897Z" fill="white"/>
<path d="M115.89 111.49V81.27H121.18V92.85H126.98V81.27H132.39V111.49H126.98V98.22H121.18V111.49H115.89Z" fill="white"/>
<path d="M38.4894 99.8L32.6094 81.27H37.8894L41.5094 93.04L45.5094 81.27H50.4594L44.3694 99.2V111.49H38.4894V99.8Z" fill="white"/>
<path d="M69.9199 111.49H74.6599V88.71L78.6999 108.51H83.1299L86.7199 88.39V111.49H92.2699V81.27H83.6599L81.1299 95.64L78.1899 81.27H69.9199V111.49Z" fill="white"/>
<path d="M141.71 99.42L144 85.9L146.18 99.42H141.71ZM148.51 81.27H140.33L134.8 111.49H139.7L140.87 104.49H147L148.13 111.49H153.53L148.53 81.27H148.51Z" fill="white"/>
<path d="M101.599 99.42L103.849 85.9L105.999 99.42H101.599ZM108.399 81.27H100.209L94.6895 111.49H99.5894L100.759 104.49H106.849L107.989 111.49H113.379L108.379 81.27H108.399Z" fill="white"/>
<path d="M55.6297 99.42L57.8797 85.9L60.0697 99.42H55.6297ZM62.4297 81.27H54.2397L48.7197 111.49H53.6197L54.7897 104.49H60.8797L62.0197 111.49H67.4097L62.4097 81.27H62.4297Z" fill="white"/>
</g>
</svg>
