<svg width="154" height="37" viewBox="0 0 154 37" fill="none" xmlns="http://www.w3.org/2000/svg">
<path d="M23.6698 30.6499C20.8294 33.4937 17.0908 35.2645 13.091 35.6605C9.09127 36.0564 5.07797 35.0531 1.73517 32.8214C-1.60764 30.5897 -4.07306 27.2678 -5.24087 23.4218C-6.40869 19.5759 -6.20663 15.444 -4.66913 11.7304C-3.13162 8.01682 -0.353842 4.95133 3.19077 3.05644C6.73538 1.16156 10.8274 0.554562 14.7695 1.33892C18.7115 2.12327 22.2595 4.25043 24.8088 7.35783C27.3581 10.4652 28.7509 14.3605 28.7498 18.3798C28.7258 22.9767 26.9022 27.3813 23.6698 30.6499ZM24.2098 5.55985C21.2439 2.59388 17.3413 0.748046 13.167 0.336863C8.99278 -0.0743192 4.80508 0.974591 1.31748 3.30487C-2.17012 5.63514 -4.74184 9.1026 -5.95948 13.1164C-7.17713 17.1303 -6.96536 21.4421 -5.36027 25.3173C-3.75517 29.1926 -0.856054 32.3913 2.84311 34.3686C6.54227 36.346 10.8126 36.9795 14.9265 36.1612C19.0404 35.343 22.7433 33.1236 25.4043 29.8813C28.0653 26.639 29.5197 22.5743 29.5198 18.3798C29.4992 13.5756 27.5923 8.97161 24.2098 5.55985Z" fill="white"/>
<path d="M10.3896 17.8V18.95L11.3896 19.53L12.3896 18.95V17.8L11.3896 17.23L10.3896 17.8Z" fill="white"/>
<path d="M12.2595 14.9997V12.5997C12.2502 12.3744 12.1575 12.1606 11.9995 11.9997C11.8368 11.8397 11.6177 11.75 11.3895 11.75C11.1613 11.75 10.9422 11.8397 10.7795 11.9997C10.6169 12.1656 10.5239 12.3874 10.5195 12.6197V14.9997L11.3895 15.4997L12.2595 14.9997Z" fill="white"/>
<path d="M5.99975 20.5198C5.9016 20.5752 5.8156 20.6498 5.74688 20.7391C5.67816 20.8285 5.62812 20.9307 5.59975 21.0398C5.54016 21.2619 5.56883 21.4984 5.67975 21.6998C5.79705 21.8996 5.98689 22.0464 6.20974 22.1098C6.43357 22.1561 6.6665 22.1243 6.86975 22.0198L8.98975 20.7998V19.7998L8.11975 19.2998L5.99975 20.5198Z" fill="white"/>
<path d="M16.8296 20.5198L14.7096 19.2998L13.8496 19.7998V20.7998L15.9996 21.9998C16.2029 22.1043 16.4358 22.1361 16.6596 22.0898C16.8825 22.0264 17.0723 21.8796 17.1896 21.6798C17.3005 21.4784 17.3292 21.2419 17.2696 21.0198C17.2412 20.9107 17.1912 20.8085 17.1225 20.7191C17.0538 20.6298 16.9678 20.5552 16.8696 20.4998L16.8296 20.5198Z" fill="white"/>
<path d="M23.9202 25.7897C23.8679 25.8041 23.8126 25.8041 23.7602 25.7897L20.0002 25.0997C19.9075 25.0795 19.8235 25.0305 19.7602 24.9597C19.691 24.8897 19.6485 24.7977 19.6402 24.6996C19.6217 24.4273 19.5166 24.168 19.3402 23.9597C19.1679 23.7471 18.9338 23.5933 18.6702 23.5196C18.4077 23.4297 18.1228 23.4297 17.8602 23.5196C17.395 23.681 16.9002 23.739 16.4102 23.6897C15.9201 23.6475 15.4454 23.4972 15.0202 23.2497L13.9002 22.5997V29.9997H12.2602V21.7097L11.3902 21.2097L10.5202 21.7097V29.9997H8.94024V22.5896L7.81024 23.2397C7.38509 23.4872 6.91038 23.6375 6.42024 23.6797C5.93029 23.729 5.43549 23.671 4.97024 23.5097C4.70772 23.4198 4.42275 23.4198 4.16024 23.5097C3.8967 23.5833 3.66256 23.7371 3.49024 23.9496C3.31389 24.158 3.20877 24.4173 3.19024 24.6897C3.18108 24.7855 3.14268 24.8763 3.08024 24.9496C3.01166 25.0188 2.92504 25.0673 2.83024 25.0896L-0.979762 25.7997C-1.03211 25.8141 -1.08741 25.8141 -1.13976 25.7997C-1.19091 25.7774 -1.23315 25.7387 -1.25976 25.6897C-1.28909 25.6433 -1.30466 25.5895 -1.30466 25.5347C-1.30466 25.4798 -1.28909 25.426 -1.25976 25.3797L1.26024 22.4397C1.324 22.3685 1.40877 22.3195 1.50226 22.2997C1.59575 22.2799 1.69311 22.2904 1.78024 22.3297C2.02847 22.4503 2.30866 22.4888 2.58024 22.4397C2.85146 22.3963 3.10281 22.2706 3.30024 22.0797C3.49054 21.8844 3.61921 21.6375 3.67024 21.3697C3.76766 20.8746 3.97247 20.407 4.27024 19.9997C4.55482 19.5931 4.92306 19.2522 5.35024 18.9997L6.48024 18.3497L0.0602374 14.6397L0.860239 13.2696L8.07024 17.4297L8.94024 16.9297V15.9997L1.72024 11.7997L2.52024 10.4197L8.94024 14.1296V12.8197C8.93676 12.3292 9.04266 11.8441 9.25024 11.3997C9.45107 10.948 9.752 10.5479 10.1302 10.2297C10.3342 10.0494 10.4804 9.81279 10.5502 9.54966C10.6351 9.28633 10.6351 9.00298 10.5502 8.73965C10.4515 8.48373 10.277 8.26397 10.0502 8.10965C9.97548 8.05458 9.9196 7.97774 9.89024 7.88965C9.86046 7.79869 9.86046 7.70061 9.89024 7.60965L11.1402 3.99965C11.1587 3.94666 11.1938 3.90106 11.2402 3.86966C11.2891 3.8543 11.3414 3.8543 11.3902 3.86966C11.446 3.86743 11.5009 3.88395 11.5463 3.91657C11.5916 3.94919 11.6246 3.99605 11.6402 4.04966L12.9302 7.70965C12.96 7.80061 12.96 7.89869 12.9302 7.98965C12.9009 8.07773 12.845 8.15458 12.7702 8.20965C12.5434 8.36397 12.369 8.58372 12.2702 8.83965C12.1904 9.10375 12.1904 9.38555 12.2702 9.64965C12.3401 9.91279 12.4862 10.1494 12.6902 10.3297C13.0685 10.6479 13.3694 11.048 13.5702 11.4997C13.7809 11.9434 13.8903 12.4284 13.8902 12.9197V14.2297L20.3002 10.5196L21.1002 11.8997L13.8502 15.9997V16.9997L14.7102 17.4997L21.9202 13.3396L22.7202 14.7097L16.3002 18.3796L17.4302 19.0297C17.8574 19.2822 18.2257 19.6231 18.5102 20.0297C18.7947 20.4336 18.9891 20.894 19.0802 21.3797C19.1313 21.6475 19.2599 21.8944 19.4502 22.0896C19.6477 22.2806 19.899 22.4063 20.1702 22.4496C20.4418 22.4995 20.7222 22.461 20.9702 22.3396C21.0574 22.3004 21.1547 22.2899 21.2482 22.3097C21.3417 22.3295 21.4265 22.3785 21.4902 22.4496L24.0002 25.3697C24.0296 25.416 24.0451 25.4698 24.0451 25.5247C24.0451 25.5795 24.0296 25.6333 24.0002 25.6797C23.9736 25.7287 23.9314 25.7674 23.8802 25.7897H23.9202ZM22.2802 7.48965C19.761 4.9702 16.4462 3.40219 12.9005 3.05278C9.35484 2.70336 5.7977 3.59418 2.83518 5.57343C-0.127341 7.55268 -2.31193 10.4979 -3.34638 13.9073C-4.38082 17.3167 -4.20111 20.9793 -2.83787 24.271C-1.47463 27.5627 0.987803 30.2799 4.12986 31.9597C7.27191 33.6394 10.8992 34.1777 14.3936 33.4828C17.8881 32.788 21.0335 30.903 23.2939 28.149C25.5544 25.3951 26.79 21.9425 26.7902 18.3796C26.77 14.2993 25.1508 10.3896 22.2802 7.48965Z" fill="white"/>
<path d="M115.89 33.49V3.27002H121.18V14.85H126.98V3.27002H132.39V33.49H126.98V20.22H121.18V33.49H115.89Z" fill="white"/>
<path d="M38.4894 21.8L32.6094 3.27002H37.8894L41.5094 15.04L45.5094 3.27002H50.4594L44.3694 21.2V33.49H38.4894V21.8Z" fill="white"/>
<path d="M69.9199 33.49H74.6599V10.71L78.6999 30.51H83.1299L86.7199 10.39V33.49H92.2699V3.27002H83.6599L81.1299 17.64L78.1899 3.27002H69.9199V33.49Z" fill="white"/>
<path d="M141.71 21.42L144 7.90002L146.18 21.42H141.71ZM148.51 3.27002H140.33L134.8 33.49H139.7L140.87 26.49H147L148.13 33.49H153.53L148.53 3.27002H148.51Z" fill="white"/>
<path d="M101.599 21.42L103.849 7.90002L105.999 21.42H101.599ZM108.399 3.27002H100.209L94.6895 33.49H99.5894L100.759 26.49H106.849L107.989 33.49H113.379L108.379 3.27002H108.399Z" fill="white"/>
<path d="M55.6297 21.42L57.8797 7.90002L60.0697 21.42H55.6297ZM62.4297 3.27002H54.2397L48.7197 33.49H53.6197L54.7897 26.49H60.8797L62.0197 33.49H67.4097L62.4097 3.27002H62.4297Z" fill="white"/>
</svg>
